{
.formatVersion = 3;
axes = (
{
name = Weight;
tag = wght;
}
);
familyName = "Maple Mono VF";
customParameters = (
{
name = glyphOrder;
value = (
A,
space,
C,
D,
E,
F,
G,
H,
I,
J,
K,
L,
M,
N,
O,
P,
Q,
R,
S,
T,
U,
W,
X,
Y,
Z,
period,
a,
b,
c,
d,
e,
f,
l,
m,
n,
o,
r,
s,
t,
u,
v,
w,
x,
y,
z,
comma,
zero,
one,
two,
three,
four,
five,
seven,
eight,
hyphen,
plus,
asterisk,
asciicircum,
slash,
backslash,
colon,
less,
equal,
exclam,
question,
quotesingle,
quotedbl,
at.cv04,
dollar.cv01,
percent,
ampersand,
parenleft,
parenright,
braceleft,
bar,
bracketleft,
bracketright,
B,
asciitilde,
underscore,
grave,
V,
p,
q,
k,
h,
i,
j,
g,
six,
nine,
semicolon,
braceright,
greater,
numbersign,
at,
dollar
);
}
);
featurePrefixes = (
{
code = "###\n# OpenType Layout feature definitions\n# Format: Adobe FDK for OpenType (AFDKO) version 2.5\n# Generated on: 2023-12-13 15:3\n# Generated by: FontLab 8.0.0\n# Font path: D:/code/_maple/font/mono/mono.vfc\n#\n# Totals:\n# Languagesystems: 0\n# GSUB lookups: 0\n# GPOS lookups: 0\n\n#\n# Languagesystem definitions\n#\n\n#> languagesystem\nlanguagesystem DFLT dflt;\nlanguagesystem latn dflt;\n#< languagesystem\n\n\n#\n# Lookup definitions\n#\n";
tag = Languagesystems;
}
);
fontMaster = (
{
axesValues = (
200
);
customParameters = (
{
name = typoAscender;
value = 1000;
},
{
name = typoDescender;
value = -300;
},
{
name = typoLineGap;
value = 0;
},
{
name = winAscent;
value = 1000;
},
{
name = winDescent;
value = 300;
},
{
name = underlineThickness;
value = 50;
},
{
name = underlinePosition;
value = -150;
},
{
name = strikeoutPosition;
value = 300;
},
{
name = strikeoutSize;
value = 50;
},
{
name = subscriptXOffset;
value = 0;
},
{
name = subscriptXSize;
value = 650;
},
{
name = subscriptYOffset;
value = 75;
},
{
name = subscriptYSize;
value = 600;
},
{
name = superscriptXOffset;
value = 0;
},
{
name = superscriptXSize;
value = 650;
},
{
name = superscriptYOffset;
value = 350;
},
{
name = superscriptYSize;
value = 600;
},
{
name = hheaAscender;

glyphs = (
{
glyphname = A;
layers = (
{
layerId = "3D30E2C5-0B1E-4C3D-8621-C00C1C908D18";
shapes = (
{
closed = 1;
nodes = (
(413,148,ls),
(409,168,o),
(397,177,o),
(377,177,cs),
(223,177,ls),
(203,177,o),
(191,168,o),
(185,148,cs),
(155,40,ls),
(146,6,o),
(115,-10,o),
(76,-10,cs),
(36,-10,o),
(16,7,o),
(16,43,cs),
(16,56,o),
(19,72,o),
(24,90,cs),
(198,664,ls),
(214,715,o),
(247,740,o),
(300,740,cs),
(353,740,o),
(386,715,o),
(402,664,cs),
(576,96,ls),
(581,79,o),
(584,63,o),
(584,50,cs),
(584,10,o),
(559,-10,o),
(515,-10,cs),
(474,-10,o),
(443,8,o),
(435,44,cs)
);
},
{
closed = 1;
nodes = (
(349,295,ls),
(365,295,o),
(373,301,o),
(373,313,cs),
(373,316,o),
(372,320,o),
(371,324,cs),
(315,518,ls),
(313,528,o),
(306,532,o),
(300,532,cs),
(294,532,o),
(288,528,o),
(285,518,cs),
(230,324,ls),
(229,320,o),
(228,316,o),
(228,313,cs),
(228,301,o),
(236,295,o),
(252,295,cs)
);
}
);
width = 600;
},
{
layerId = "BD6112AA-D71A-4C36-8E9B-0F516311C436";
shapes = (
{
closed = 1;
nodes = (
(435,172,ls),
(431,185,o),
(423,191,o),
(410,191,cs),
(190,191,ls),
(177,191,o),
(169,185,o),
(165,172,cs),
(122,27,ls),
(115,2,o),
(99,-10,o),
(70,-10,cs),
(43,-10,o),
(24,4,o),
(24,33,cs),
(24,42,o),
(26,52,o),
(29,63,cs),
(221,684,ls),
(233,722,o),
(259,741,o),
(299,741,cs),
(339,741,o),
(365,722,o),
(377,684,cs),
(571,63,ls),
(574,52,o),
(576,42,o),
(576,33,cs),
(576,4,o),
(557,-10,o),
(530,-10,cs),
(501,-10,o),
(485,2,o),
(478,27,cs)
);
},
{
closed = 1;
nodes = (
(385,271,ls),
(395,271,o),
(401,275,o),
(401,283,cs),
(401,285,o),
(401,287,o),
(400,290,cs),
(314,598,ls),
(311,608,o),
(306,612,o),
(301,612,cs),
(295,612,o),
(290,608,o),
(287,598,cs),
(200,290,ls),
(199,287,o),
(199,284,o),
(199,282,cs),
(199,274,o),
(206,271,o),
(214,271,cs)
);
}
);
width = 600;
},
{
layerId = "6081C699-E88C-443F-8307-DAA77428180B";
shapes = (
{
closed = 1;
nodes = (
(445,196,ls),
(443,202,o),
(437,206,o),
(430,206,cs),
(170,206,ls),
(163,206,o),
(156,202,o),
(154,196,cs),
(100,9,ls),
(96,-4,o),
(88,-10,o),
(75,-10,cs),
(58,-10,o),
(48,-2,o),
(48,13,cs),
(48,17,o),
(49,22,o),
(50,27,cs),
(249,701,ls),
(257,727,o),
(273,740,o),
(300,740,cs),
(327,740,o),
(343,728,o),
(351,702,cs),
(551,28,ls),
(553,22,o),
(554,17,o),
(554,12,cs),
(554,-3,o),
(544,-10,o),
(528,-10,cs),
(513,-10,o),
(503,-4,o),
(499,9,cs)
);
},
{
closed = 1;
nodes = (
(417,256,ls),
(423,256,o),
(425,258,o),
(425,262,cs),
(425,263,o),
(427,265,o),
(427,266,cs),
(314,653,ls),
(311,663,o),
(304,668,o),
(300,668,cs),
(296,668,o),
(289,663,o),
(286,653,cs),
(173,266,ls),
(173,265,o),
(175,263,o),
(175,262,cs),
(175,258,o),
(177,256,o),
(183,256,cs)
);
}
);
width = 600;
}
);
unicode = 65;
},
{
glyphname = C;
layers = (
{
layerId = "3D30E2C5-0B1E-4C3D-8621-C00C1C908D18";
shapes = (
{
closed = 1;
nodes = (
(50,567,o),
(134,740,o),
(363,740,cs),
(415,740,o),
(527,736,o),
(545,670,cs),
(548,660,o),
(549,650,o),
(549,640,cs),
(549,616,o),
(540,602,o),
(517,588,cs),
(508,583,o),
(500,583,o),
(492,583,cs),
(481,583,o),
(469,586,o),
(457,591,cs),
(431,603,o),
(404,608,o),
(369,608,cs),
(233,608,o),
(200,476,o),
(200,364,cs),
(200,260,o),
(225,122,o),
(355,122,cs),
(388,122,o),
(415,126,o),
(447,137,cs),
(460,141,o),
(473,143,o),
(486,143,cs),
(493,143,o),
(500,142,o),
(507,140,cs),
(532,130,o),
(543,110,o),
(543,85,cs),
(543,76,o),
(542,67,o),
(539,57,cs),
(520,-10,o),
(405,-10,o),
(349,-10,cs),
(133,-10,o),
(50,169,o),
(50,361,cs)
);
}
);
width = 600;
},
{
layerId = "BD6112AA-D71A-4C36-8E9B-0F516311C436";
shapes = (
{
closed = 1;
nodes = (
(60,569,o),
(143,740,o),
(369,740,cs),
(417,740,o),
(523,733,o),
(534,686,cs),
(535,682,o),
(535,678,o),
(535,674,cs),
(535,657,o),
(527,639,o),
(513,633,cs),
(508,631,o),
(504,630,o),
(499,630,cs),
(492,630,o),
(485,632,o),
(480,634,cs),
(446,645,o),
(405,650,o),
(369,650,cs),
(216,650,o),
(150,496,o),
(150,362,cs),
(150,238,o),
(190,80,o),
(354,80,cs),
(393,80,o),
(423,82,o),
(457,94,cs),
(466,97,o),
(476,99,o),
(486,99,cs),
(493,99,o),
(501,98,o),
(507,95,cs),
(522,88,o),
(531,74,o),
(531,58,cs),
(531,50,o),
(529,42,o),
(524,34,cs),
(499,-10,o),
(406,-10,o),
(354,-10,cs),
(141,-10,o),
(60,168,o),
(60,362,cs)
);
}
);
width = 600;
},
{
layerId = "6081C699-E88C-443F-8307-DAA77428180B";
shapes = (
{
closed = 1;
nodes = (
(70,569,o),
(151,740,o),
(374,740,cs),
(417,740,o),
(503,736,o),
(525,705,cs),
(527,702,o),
(528,698,o),
(528,694,cs),
(528,685,o),
(526,674,o),
(515,669,cs),
(510,667,o),
(506,667,o),
(504,667,cs),
(497,667,o),
(492,669,o),
(485,673,cs),
(466,683,o),
(425,690,o),
(374,690,cs),
(187,690,o),
(120,522,o),
(120,365,cs),
(120,220,o),
(179,40,o),
(358,40,cs),
(391,40,o),
(451,40,o),
(492,54,cs),
(497,56,o),
(501,57,o),
(506,57,cs),
(509,57,o),
(513,56,o),
(516,54,cs),
(524,48,o),
(528,39,o),
(528,31,cs),
(528,26,o),
(527,22,o),
(525,18,cs),
(510,-8,o),
(405,-10,o),
(358,-10,cs),
(149,-10,o),
(70,168,o),
(70,362,cs)
);
}
);
width = 600;
}
);
unicode = 67;
},
{
glyphname = D;
layers = (
{
layerId = "3D30E2C5-0B1E-4C3D-8621-C00C1C908D18";
shapes = (
{
closed = 1;
nodes = (
(153,0,ls),
(93,0,o),
(63,30,o),
(63,90,cs),
(63,640,ls),
(63,700,o),
(93,730,o),
(153,730,cs),
(270,730,ls),
(369,730,o),
(480,672,o),
(540,551,o),
(552,485,qs),
(560,442,o),
(564,405,o),
(564,367,cs),
(564,328,o),
(560,289,o),
(552,245,cs),
(540,175,o),
(480,59,o),
(369,0,o),
(270,0,qs)
);
},
{
closed = 1;
nodes = (
(213,175,ls),
(213,148,o),
(226,135,o),
(253,135,cs),
(270,135,ls),
(339,135,o),
(397,206,o),
(406,245,qs),
(416,289,o),
(421,327,o),
(421,365,cs),
(421,403,o),
(416,442,o),
(406,485,cs),
(396,528,o),
(338,595,o),
(270,595,qs),
(253,595,ls),
(226,595,o),
(213,582,o),
(213,555,cs)
);
}
);
width = 600;
},
{
layerId = "BD6112AA-D71A-4C36-8E9B-0F516311C436";
shapes = (
{
closed = 1;
nodes = (
(172,0,ls),
(118,0,o),
(92,26,o),
(92,80,cs),
(92,650,ls),
(92,704,o),
(118,730,o),
(172,730,cs),
(261,730,ls),
(332,730,o),
(443,680,o),
(496,577,o),
(512,511,qs),
(523,466,o),
(528,417,o),
(528,369,cs),
(528,318,o),
(522,268,o),
(512,220,cs),
(498,154,o),
(443,50,o),
(332,0,o),
(261,0,qs)
);
},
{
closed = 1;
nodes = (
(182,130,ls),
(182,103,o),
(195,90,o),
(222,90,cs),
(261,90,ls),
(331,90,o),
(413,165,o),
(429,230,qs),
(440,277,o),
(446,322,o),
(446,366,cs),
(446,411,o),
(440,455,o),
(429,501,cs),
(413,565,o),
(331,640,o),
(261,640,qs),
(222,640,ls),
(195,640,o),
(182,627,o),
(182,600,cs)
);
}
);
width = 600;
},
{
layerId = "6081C699-E88C-443F-8307-DAA77428180B";
shapes = (
{
closed = 1;
nodes = (
(181,0,ls),
(133,0,o),
(110,23,o),
(110,70,cs),
(110,660,ls),
(110,707,o),
(133,730,o),
(181,730,cs),
(231,730,ls),
(318,730,o),
(440,665,o),
(487,566,o),
(495,500,qs),
(501,449,o),
(504,407,o),
(504,365,cs),
(504,323,o),
(501,282,o),
(495,230,cs),
(487,164,o),
(440,65,o),
(318,0,o),
(231,0,qs)
);
},
{
closed = 1;
nodes = (
(161,85,ls),
(161,62,o),
(173,50,o),
(196,50,cs),
(231,50,ls),
(339,50,o),
(436,151,o),
(445,230,qs),
(450,282,o),
(453,323,o),
(453,365,cs),
(453,407,o),
(450,449,o),
(445,500,cs),
(436,578,o),
(338,680,o),
(231,680,qs),
(196,680,ls),
(173,680,o),
(161,668,o),
(161,645,cs)
);
}
);
width = 600;
}
);
unicode = 68;
},
{
glyphname = E;
layers = (
{
layerId = "3D30E2C5-0B1E-4C3D-8621-C00C1C908D18";
shapes = (
{
closed = 1;
nodes = (
(270,600,ls),
(241,600,o),
(230,588,o),
(230,560,cs),
(230,470,ls),
(230,448,o),
(238,440,o),
(260,440,cs),
(433,440,ls),
(475,440,o),
(499,417,o),
(499,375,cs),
(499,333,o),
(475,308,o),
(433,308,cs),
(260,308,ls),
(240,308,o),
(230,298,o),
(230,278,cs),
(230,170,ls),
(230,143,o),
(243,130,o),
(270,130,cs),
(465,130,ls),
(509,130,o),
(530,109,o),
(530,65,cs),
(530,21,o),
(509,0,o),
(465,0,cs),
(180,0,ls),
(113,0,o),
(80,33,o),
(80,100,cs),
(80,630,ls),
(80,697,o),
(113,730,o),
(180,730,cs),
(465,730,ls),
(509,730,o),
(530,709,o),
(530,665,cs),
(530,621,o),
(509,600,o),
(465,600,cs)
);
}
);
width = 600;
},
{
layerId = "BD6112AA-D71A-4C36-8E9B-0F516311C436";
shapes = (
{
closed = 1;
nodes = (
(230,640,ls),
(203,640,o),
(190,627,o),
(190,600,cs),
(190,452,ls),
(190,435,o),
(198,427,o),
(215,427,cs),
(445,427,ls),
(472,427,o),
(490,409,o),
(490,382,cs),
(490,355,o),
(472,337,o),
(445,337,cs),
(215,337,ls),
(198,337,o),
(190,329,o),
(190,312,cs),
(190,130,ls),
(190,103,o),
(203,90,o),
(230,90,cs),
(479,90,ls),
(506,90,o),
(520,72,o),
(520,45,cs),
(520,18,o),
(506,0,o),
(479,0,cs),
(180,0,ls),
(126,0,o),
(100,26,o),
(100,80,cs),
(100,650,ls),
(100,704,o),
(126,730,o),
(180,730,cs),
(479,730,ls),
(506,730,o),
(520,712,o),
(520,685,cs),
(520,658,o),
(506,640,o),
(479,640,cs)
);
}
);
width = 600;
},
{
layerId = "6081C699-E88C-443F-8307-DAA77428180B";
shapes = (
{
closed = 1;
nodes = (
(205,680,ls),
(182,680,o),
(170,668,o),
(170,645,cs),
(170,426,ls),
(170,413,o),
(177,406,o),
(190,406,cs),
(453,406,ls),
(468,406,o),
(475,396,o),
(475,381,cs),
(475,366,o),
(468,356,o),
(453,356,cs),
(190,356,ls),
(177,356,o),
(170,349,o),
(170,336,cs),
(170,85,ls),
(170,62,o),
(182,50,o),
(205,50,cs),
(487,50,ls),
(502,50,o),
(510,40,o),
(510,25,cs),
(510,10,o),
(502,0,o),
(487,0,cs),
(190,0,ls),
(143,0,o),
(120,23,o),
(120,70,cs),
(120,660,ls),
(120,707,o),
(143,730,o),
(190,730,cs),
(487,730,ls),
(502,730,o),
(510,720,o),
(510,705,cs),
(510,690,o),
(502,680,o),
(487,680,cs)
);
}
);
width = 600;
}
);
unicode = 69;
},
{
glyphname = F;
layers = (
{
layerId = "3D30E2C5-0B1E-4C3D-8621-C00C1C908D18";
shapes = (
{
closed = 1;
nodes = (
(70,640,ls),
(70,700,o),
(100,730,o),
(160,730,cs),
(475,730,ls),
(519,730,o),
(540,709,o),
(540,665,cs),
(540,621,o),
(519,600,o),
(475,600,cs),
(260,600,ls),
(233,600,o),
(220,588,o),
(220,560,cs),
(220,466,ls),
(220,446,o),
(230,436,o),
(250,436,cs),
(452,436,ls),
(494,436,o),
(514,416,o),
(514,374,cs),
(514,332,o),
(494,312,o),
(452,312,cs),
(250,312,ls),
(230,312,o),
(220,302,o),
(220,282,cs),
(220,75,ls),
(220,25,o),
(195,0,o),
(145,0,cs),
(95,0,o),
(70,25,o),
(70,75,cs)
);
}
);
width = 600;
},
{
layerId = "BD6112AA-D71A-4C36-8E9B-0F516311C436";
shapes = (
{
closed = 1;
nodes = (
(95,650,ls),
(95,704,o),
(121,730,o),
(175,730,cs),
(480,730,ls),
(510,730,o),
(525,715,o),
(525,685,cs),
(525,655,o),
(510,640,o),
(480,640,cs),
(225,640,ls),
(198,640,o),
(185,627,o),
(185,600,cs),
(185,452,ls),
(185,435,o),
(193,427,o),
(210,427,cs),
(459,427,ls),
(486,427,o),
(499,414,o),
(499,387,cs),
(499,360,o),
(486,347,o),
(459,347,cs),
(210,347,ls),
(193,347,o),
(185,339,o),
(185,322,cs),
(185,45,ls),
(185,15,o),
(170,0,o),
(140,0,cs),
(110,0,o),
(95,15,o),
(95,45,cs)
);
}
);
width = 600;
},
{
layerId = "6081C699-E88C-443F-8307-DAA77428180B";
shapes = (
{
closed = 1;
nodes = (
(115,660,ls),
(115,707,o),
(138,730,o),
(185,730,cs),
(500,730,ls),
(517,730,o),
(525,722,o),
(525,705,cs),
(525,688,o),
(517,680,o),
(500,680,cs),
(200,680,ls),
(177,680,o),
(165,668,o),
(165,645,cs),
(165,426,ls),
(165,413,o),
(172,406,o),
(185,406,cs),
(465,406,ls),
(482,406,o),
(490,398,o),
(490,381,cs),
(490,364,o),
(482,356,o),
(465,356,cs),
(185,356,ls),
(172,356,o),
(165,349,o),
(165,336,cs),
(165,25,ls),
(165,8,o),
(157,0,o),
(140,0,cs),
(123,0,o),
(115,8,o),
(115,25,cs)
);
}
);
width = 600;
}
);
unicode = 70;
},
{
glyphname = G;
layers = (
{
layerId = "3D30E2C5-0B1E-4C3D-8621-C00C1C908D18";
shapes = (
{
closed = 1;
nodes = (
(418,248,ls),
(418,275,o),
(405,288,o),
(378,288,cs),
(340,288,ls),
(300,288,o),
(280,308,o),
(280,348,cs),
(280,388,o),
(300,408,o),
(340,408,cs),
(428,408,ls),
(508,408,o),
(548,368,o),
(548,288,cs),
(548,210,ls),
(548,144,o),
(487,45,o),
(373,-10,o),
(300,-10,qs),
(228,-10,o),
(123,45,o),
(54,145,o),
(40,210,qs),
(17,319,o),
(20,401,o),
(40,510,cs),
(52,576,o),
(121,685,o),
(216,740,o),
(300,740,qs),
(363,740,o),
(478,685,o),
(508,636,qs),
(514,627,o),
(519,616,qs),
(548,559,o),
(519,520,o),
(448,520,cs),
(420,520,o),
(404,532,o),
(401,540,cs),
(391,568,o),
(363,588,qs),
(340,605,o),
(300,605,qs),
(255,605,o),
(192,524,o),
(184,471,qs),
(172,388,o),
(167,334,o),
(184,238,cs),
(193,186,o),
(257,125,o),
(300,125,qs),
(345,125,o),
(418,167,o),
(418,210,qs)
);
}
);
width = 600;
},
{
layerId = "BD6112AA-D71A-4C36-8E9B-0F516311C436";
shapes = (
{
closed = 1;
nodes = (
(428,270,ls),
(428,297,o),
(415,300,o),
(388,300,cs),
(325,300,ls),
(295,300,o),
(280,315,o),
(280,345,cs),
(280,375,o),
(295,390,o),
(325,390,cs),
(438,390,ls),
(492,390,o),
(518,364,o),
(518,310,cs),
(518,200,ls),
(518,136,o),
(466,41,o),
(366,-10,o),
(300,-10,qs),
(236,-10,o),
(143,40,o),
(81,136,o),
(68,200,qs),
(44,316,o),
(48,405,o),
(68,520,cs),
(79,585,o),
(141,690,o),
(234,740,o),
(300,740,qs),
(356,740,o),
(456,689,o),
(482,642,qs),
(496,617,o),
(505,588,qs),
(517,551,o),
(499,530,o),
(458,530,cs),
(439,530,o),
(427,538,o),
(421,559,cs),
(408,608,o),
(378,627,qs),
(342,650,o),
(300,650,qs),
(246,650,o),
(170,577,o),
(160,521,qs),
(139,406,o),
(136,315,o),
(160,200,cs),
(173,139,o),
(249,80,o),
(300,80,qs),
(352,80,o),
(428,138,o),
(428,200,qs)
);
}
);
width = 600;
},
{
layerId = "6081C699-E88C-443F-8307-DAA77428180B";
shapes = (
{
closed = 1;
nodes = (
(460,288,ls),
(460,308,o),
(450,318,o),
(430,318,cs),
(305,318,ls),
(288,318,o),
(280,326,o),
(280,343,cs),
(280,360,o),
(288,368,o),
(305,368,cs),
(450,368,ls),
(490,368,o),
(510,348,o),
(510,308,cs),
(510,200,ls),
(510,134,o),
(460,42,o),
(362,-10,o),
(300,-10,qs),
(241,-10,o),
(157,40,o),
(107,131,o),
(95,190,qs),
(70,312,o),
(75,408,o),
(95,530,cs),
(105,590,o),
(155,691,o),
(245,740,o),
(300,740,qs),
(360,740,o),
(450,688,o),
(475,641,qs),
(494,607,o),
(504,563,qs),
(509,542,o),
(500,530,o),
(477,530,cs),
(466,530,o),
(458,535,o),
(457,546,cs),
(449,613,o),
(409,651,qs),
(368,690,o),
(300,690,qs),
(236,690,o),
(157,601,o),
(145,530,qs),
(125,408,o),
(121,312,o),
(145,190,cs),
(159,119,o),
(232,40,o),
(300,40,qs),
(372,40,o),
(460,122,o),
(460,200,qs)
);
}
);
width = 600;
}
);
unicode = 71;
},
{
glyphname = H;
layers = (
{
layerId = "3D30E2C5-0B1E-4C3D-8621-C00C1C908D18";
shapes = (
{
closed = 1;
nodes = (
(91,-10,o),
(66,15,o),
(66,65,cs),
(66,665,ls),
(66,715,o),
(91,740,o),
(141,740,cs),
(191,740,o),
(216,715,o),
(216,665,cs),
(216,474,ls),
(216,457,o),
(224,449,o),
(241,449,cs),
(359,449,ls),
(376,449,o),
(384,457,o),
(384,474,cs),
(384,665,ls),
(384,715,o),
(409,740,o),
(459,740,cs),
(509,740,o),
(534,715,o),
(534,665,cs),
(534,65,ls),
(534,15,o),
(509,-10,o),
(459,-10,cs),
(409,-10,o),
(384,15,o),
(384,65,cs),
(384,284,ls),
(384,301,o),
(376,309,o),
(359,309,cs),
(241,309,ls),
(224,309,o),
(216,301,o),
(216,284,cs),
(216,65,ls),
(216,15,o),
(191,-10,o),
(141,-10,cs)
);
}
);
width = 600;
},
{
layerId = "BD6112AA-D71A-4C36-8E9B-0F516311C436";
shapes = (
{
closed = 1;
nodes = (
(108,-10,o),
(93,5,o),
(93,35,cs),
(93,695,ls),
(93,725,o),
(108,740,o),
(138,740,cs),
(168,740,o),
(183,725,o),
(183,695,cs),
(183,442,ls),
(183,429,o),
(190,422,o),
(203,422,cs),
(397,422,ls),
(410,422,o),
(417,429,o),
(417,442,cs),
(417,695,ls),
(417,725,o),
(432,740,o),
(462,740,cs),
(492,740,o),
(507,725,o),
(507,695,cs),
(507,35,ls),
(507,5,o),
(492,-10,o),
(462,-10,cs),
(432,-10,o),
(417,5,o),
(417,35,cs),
(417,312,ls),
(417,325,o),
(410,332,o),
(397,332,cs),
(203,332,ls),
(190,332,o),
(183,325,o),
(183,312,cs),
(183,35,ls),
(183,5,o),
(168,-10,o),
(138,-10,cs)
);
}
);
width = 600;
},
{
layerId = "6081C699-E88C-443F-8307-DAA77428180B";
shapes = (
{
closed = 1;
nodes = (
(118,-10,o),
(110,-2,o),
(110,15,cs),
(110,705,ls),
(110,722,o),
(118,730,o),
(135,730,cs),
(152,730,o),
(160,722,o),
(160,705,cs),
(160,420,ls),
(160,410,o),
(165,405,o),
(175,405,cs),
(425,405,ls),
(435,405,o),
(440,410,o),
(440,420,cs),
(440,705,ls),
(440,722,o),
(448,730,o),
(465,730,cs),
(482,730,o),
(490,722,o),
(490,705,cs),
(490,15,ls),
(490,-2,o),
(482,-10,o),
(465,-10,cs),
(448,-10,o),
(440,-2,o),
(440,15,cs),
(440,340,ls),
(440,350,o),
(435,355,o),
(425,355,cs),
(175,355,ls),
(165,355,o),
(160,350,o),
(160,340,cs),
(160,15,ls),
(160,-2,o),
(152,-10,o),
(135,-10,cs)
);
}
);
width = 600;
}
);
unicode = 72;
},
{
glyphname = I;
layers = (
{
layerId = "3D30E2C5-0B1E-4C3D-8621-C00C1C908D18";
shapes = (
{
closed = 1;
nodes = (
(148,0,ls),
(103,0,o),
(80,23,o),
(80,68,cs),
(80,113,o),
(103,135,o),
(148,135,cs),
(200,135,ls),
(217,135,o),
(225,143,o),
(225,160,cs),
(225,570,ls),
(225,587,o),
(217,595,o),
(200,595,cs),
(148,595,ls),
(103,595,o),
(80,618,o),
(80,663,cs),
(80,708,o),
(103,730,o),
(148,730,cs),
(452,730,ls),
(497,730,o),
(520,708,o),
(520,663,cs),
(520,618,o),
(497,595,o),
(452,595,cs),
(400,595,ls),
(383,595,o),
(375,587,o),
(375,570,cs),
(375,160,ls),
(375,143,o),
(383,135,o),
(400,135,cs),
(452,135,ls),
(497,135,o),
(520,113,o),
(520,68,cs),
(520,23,o),
(497,0,o),
(452,0,cs)
);
}
);
width = 600;
},
{
layerId = "BD6112AA-D71A-4C36-8E9B-0F516311C436";
shapes = (
{
closed = 1;
nodes = (
(150,0,ls),
(123,0,o),
(105,18,o),
(105,45,cs),
(105,72,o),
(123,90,o),
(150,90,cs),
(234,90,ls),
(247,90,o),
(254,97,o),
(254,110,cs),
(254,620,ls),
(254,633,o),
(247,640,o),
(234,640,cs),
(150,640,ls),
(123,640,o),
(105,658,o),
(105,685,cs),
(105,712,o),
(123,730,o),
(150,730,cs),
(450,730,ls),
(477,730,o),
(495,712,o),
(495,685,cs),
(495,658,o),
(477,640,o),
(450,640,cs),
(366,640,ls),
(353,640,o),
(346,633,o),
(346,620,cs),
(346,110,ls),
(346,97,o),
(353,90,o),
(366,90,cs),
(450,90,ls),
(477,90,o),
(495,72,o),
(495,45,cs),
(495,18,o),
(477,0,o),
(450,0,cs)
);
}
);
width = 600;
},
{
layerId = "6081C699-E88C-443F-8307-DAA77428180B";
shapes = (
{
closed = 1;
nodes = (
(145,0,ls),
(130,0,o),
(120,10,o),
(120,25,cs),
(120,40,o),
(130,50,o),
(145,50,cs),
(261,50,ls),
(271,50,o),
(276,55,o),
(276,65,cs),
(276,665,ls),
(276,675,o),
(271,680,o),
(261,680,cs),
(145,680,ls),
(130,680,o),
(120,690,o),
(120,705,cs),
(120,720,o),
(130,730,o),
(145,730,cs),
(455,730,ls),
(470,730,o),
(480,720,o),
(480,705,cs),
(480,690,o),
(470,680,o),
(455,680,cs),
(339,680,ls),
(329,680,o),
(324,675,o),
(324,665,cs),
(324,65,ls),
(324,55,o),
(329,50,o),
(339,50,cs),
(455,50,ls),
(470,50,o),
(480,40,o),
(480,25,cs),
(480,10,o),
(470,0,o),
(455,0,cs)
);
}
);
width = 600;
}
);
unicode = 73;
},
{
glyphname = J;
layers = (
{
layerId = "3D30E2C5-0B1E-4C3D-8621-C00C1C908D18";
shapes = (
{
closed = 1;
nodes = (
(15,186,o),
(45,221,o),
(108,221,cs),
(137,221,o),
(157,205,o),
(186,161,cs),
(191,154,o),
(197,148,qs),
(224,121,o),
(270,120,qs),
(316,120,o),
(370,173,o),
(370,219,qs),
(370,530,ls),
(370,564,o),
(353,580,o),
(320,580,cs),
(230,580,ls),
(180,580,o),
(155,605,o),
(155,655,cs),
(155,705,o),
(180,730,o),
(230,730,cs),
(400,730,ls),
(480,730,o),
(520,690,o),
(520,610,cs),
(520,219,ls),
(520,113,o),
(386,-10,o),
(270,-10,qs),
(156,-10,o),
(88,53,qs),
(51,87,o),
(34,134,qs)
);
}
);
width = 600;
},
{
layerId = "BD6112AA-D71A-4C36-8E9B-0F516311C436";
shapes = (
{
closed = 1;
nodes = (
(44,194,o),
(59,210,o),
(90,210,cs),
(118,210,o),
(132,197,o),
(140,165,cs),
(149,132,o),
(171,112,qs),
(207,81,o),
(270,80,qs),
(334,80,o),
(405,143,o),
(405,210,qs),
(405,600,ls),
(405,627,o),
(392,640,o),
(365,640,cs),
(215,640,ls),
(185,640,o),
(170,655,o),
(170,685,cs),
(170,715,o),
(185,730,o),
(215,730,cs),
(415,730,ls),
(469,730,o),
(495,704,o),
(495,650,cs),
(495,210,ls),
(495,108,o),
(374,-10,o),
(270,-10,qs),
(165,-10,o),
(105,49,qs),
(59,94,o),
(48,165,qs)
);
}
);
width = 600;
},
{
layerId = "6081C699-E88C-443F-8307-DAA77428180B";
shapes = (
{
closed = 1;
nodes = (
(70,191,o),
(78,200,o),
(95,200,cs),
(111,200,o),
(119,192,o),
(121,175,cs),
(127,116,o),
(162,82,qs),
(204,41,o),
(275,40,qs),
(347,40,o),
(430,123,o),
(430,199,qs),
(430,650,ls),
(430,670,o),
(420,680,o),
(400,680,cs),
(220,680,ls),
(203,680,o),
(195,688,o),
(195,705,cs),
(195,722,o),
(203,730,o),
(220,730,cs),
(420,730,ls),
(460,730,o),
(480,710,o),
(480,670,cs),
(480,199,ls),
(480,102,o),
(370,-10,o),
(275,-10,qs),
(180,-10,o),
(125,46,qs),
(78,95,o),
(71,175,qs)
);
}
);
width = 600;
}
);
unicode = 74;
},
{
glyphname = K;
layers = (
{
layerId = "3D30E2C5-0B1E-4C3D-8621-C00C1C908D18";
shapes = (
{
closed = 1;
nodes = (
(65,65,ls),
(65,15,o),
(90,-10,o),
(140,-10,cs),
(190,-10,o),
(215,15,o),
(215,65,cs),
(215,250,ls),
(215,259,o),
(218,267,o),
(223,274,cs),
(223,274,ls),
(228,281,o),
(232,280,o),
(236,273,cs),
(382,39,ls),
(402,7,o),
(429,-10,o),
(467,-10,cs),
(523,-10,o),
(564,23,o),
(524,88,cs),
(337,396,ls),
(328,411,o),
(329,424,o),
(340,438,cs),
(494,648,ls),
(538,708,o),
(491,740,o),
(446,740,cs),
(408,740,o),
(379,725,o),
(356,695,cs),
(230,533,ls),
(223,524,o),
(215,527,o),
(215,538,cs),
(215,665,ls),
(215,715,o),
(190,740,o),
(140,740,cs),
(90,740,o),
(65,715,o),
(65,665,cs)
);
}
);
width = 600;
},
{
layerId = "BD6112AA-D71A-4C36-8E9B-0F516311C436";
shapes = (
{
closed = 1;
nodes = (
(92,35,ls),
(92,5,o),
(107,-10,o),
(137,-10,cs),
(167,-10,o),
(182,5,o),
(182,35,cs),
(182,250,ls),
(182,263,o),
(186,275,o),
(194,286,cs),
(218,319,ls),
(226,330,o),
(233,330,o),
(240,318,cs),
(426,20,ls),
(438,0,o),
(455,-10,o),
(479,-10,cs),
(516,-10,o),
(539,10,o),
(514,51,cs),
(300,403,ls),
(293,415,o),
(294,425,o),
(302,436,cs),
(489,684,ls),
(518,722,o),
(480,740,o),
(460,740,cs),
(437,740,o),
(419,731,o),
(404,712,cs),
(194,432,ls),
(189,425,o),
(182,427,o),
(182,436,cs),
(182,695,ls),
(182,725,o),
(167,740,o),
(137,740,cs),
(107,740,o),
(92,725,o),
(92,695,cs)
);
}
);
width = 600;
},
{
layerId = "6081C699-E88C-443F-8307-DAA77428180B";
shapes = (
{
closed = 1;
nodes = (
(110,15,ls),
(110,-2,o),
(118,-10,o),
(135,-10,cs),
(152,-10,o),
(160,-2,o),
(160,15,cs),
(160,254,ls),
(160,264,o),
(163,273,o),
(169,281,cs),
(235,369,ls),
(241,377,o),
(247,377,o),
(252,368,cs),
(470,7,ls),
(477,-5,o),
(487,-10,o),
(500,-10,cs),
(517,-10,o),
(534,2,o),
(520,25,cs),
(287,413,ls),
(282,422,o),
(283,430,o),
(289,438,cs),
(494,705,ls),
(512,728,o),
(494,740,o),
(480,740,cs),
(463,740,o),
(453,737,o),
(442,723,cs),
(169,362,ls),
(166,358,o),
(160,359,o),
(160,365,cs),
(160,715,ls),
(160,732,o),
(152,740,o),
(135,740,cs),
(118,740,o),
(110,732,o),
(110,715,cs)
);
}
);
width = 600;
}
);
unicode = 75;
},
{
glyphname = L;
layers = (
{
layerId = "3D30E2C5-0B1E-4C3D-8621-C00C1C908D18";
shapes = (
{
closed = 1;
nodes = (
(235,0,ls),
(155,0,o),
(115,40,o),
(115,120,cs),
(115,665,ls),
(115,715,o),
(140,740,o),
(190,740,cs),
(240,740,o),
(265,715,o),
(265,665,cs),
(265,195,ls),
(265,155,o),
(285,135,o),
(325,135,cs),
(493,135,ls),
(538,135,o),
(560,113,o),
(560,68,cs),
(560,23,o),
(537,0,o),
(492,0,cs)
);
}
);
width = 600;
},
{
layerId = "BD6112AA-D71A-4C36-8E9B-0F516311C436";
shapes = (
{
closed = 1;
nodes = (
(210,0,ls),
(156,0,o),
(130,26,o),
(130,80,cs),
(130,695,ls),
(130,725,o),
(145,740,o),
(175,740,cs),
(205,740,o),
(220,725,o),
(220,695,cs),
(220,130,ls),
(220,103,o),
(233,90,o),
(260,90,cs),
(505,90,ls),
(532,90,o),
(550,72,o),
(550,45,cs),
(550,18,o),
(532,0,o),
(505,0,cs)
);
}
);
width = 600;
},
{
layerId = "6081C699-E88C-443F-8307-DAA77428180B";
shapes = (
{
closed = 1;
nodes = (
(200,0,ls),
(160,0,o),
(140,20,o),
(140,60,cs),
(140,715,ls),
(140,732,o),
(148,740,o),
(165,740,cs),
(182,740,o),
(190,732,o),
(190,715,cs),
(190,80,ls),
(190,60,o),
(200,50,o),
(220,50,cs),
(520,50,ls),
(535,50,o),
(545,40,o),
(545,25,cs),
(545,10,o),
(535,0,o),
(520,0,cs)
);
}
);
width = 600;
}
);
unicode = 76;
},
{
glyphname = M;
layers = (
{
layerId = "3D30E2C5-0B1E-4C3D-8621-C00C1C908D18";
shapes = (
{
closed = 1;
nodes = (
(560,60,ls),
(560,13,o),
(537,-10,o),
(490,-10,cs),
(443,-10,o),
(420,13,o),
(420,60,cs),
(420,530,ls),
(420,547,o),
(414,547,o),
(411,530,cs),
(372,328,ls),
(364,289,o),
(340,270,o),
(300,270,cs),
(260,270,o),
(236,289,o),
(228,328,cs),
(189,530,ls),
(186,546,o),
(180,547,o),
(180,530,cs),
(180,60,ls),
(180,13,o),
(157,-10,o),
(110,-10,cs),
(63,-10,o),
(40,13,o),
(40,60,cs),
(40,608,ls),
(40,696,o),
(84,740,o),
(152,740,cs),
(221,740,o),
(244,713,o),
(256,658,cs),
(290,499,ls),
(299,459,o),
(303,460,o),
(311,499,cs),
(344,658,ls),
(355,713,o),
(389,740,o),
(454,740,cs),
(516,740,o),
(560,696,o),
(560,614,cs)
);
}
);
width = 600;
},
{
layerId = "BD6112AA-D71A-4C36-8E9B-0F516311C436";
shapes = (
{
closed = 1;
nodes = (
(540,35,ls),
(540,5,o),
(525,-10,o),
(495,-10,cs),
(465,-10,o),
(450,5,o),
(450,35,cs),
(450,590,ls),
(450,612,o),
(444,612,o),
(437,590,cs),
(351,317,ls),
(343,292,o),
(326,280,o),
(300,280,cs),
(274,280,o),
(257,292,o),
(249,317,cs),
(163,590,ls),
(156,613,o),
(150,612,o),
(150,590,cs),
(150,35,ls),
(150,5,o),
(135,-10,o),
(105,-10,cs),
(75,-10,o),
(60,5,o),
(60,35,cs),
(60,655,ls),
(60,712,o),
(88,740,o),
(135,740,cs),
(181,740,o),
(207,722,o),
(217,685,cs),
(289,428,ls),
(296,402,o),
(304,402,o),
(311,428,cs),
(383,685,ls),
(393,722,o),
(419,740,o),
(465,740,cs),
(512,740,o),
(540,712,o),
(540,655,cs)
);
}
);
width = 600;
},
{
layerId = "6081C699-E88C-443F-8307-DAA77428180B";
shapes = (
{
closed = 1;
nodes = (
(510,15,ls),
(510,-2,o),
(502,-10,o),
(485,-10,cs),
(468,-10,o),
(460,-2,o),
(460,15,cs),
(460,640,ls),
(460,660,o),
(454,660,o),
(447,640,cs),
(337,316,ls),
(331,298,o),
(319,290,o),
(300,290,cs),
(281,290,o),
(269,298,o),
(263,316,cs),
(153,640,ls),
(146,661,o),
(140,659,o),
(140,640,cs),
(140,15,ls),
(140,-2,o),
(132,-10,o),
(115,-10,cs),
(98,-10,o),
(90,-2,o),
(90,15,cs),
(90,692,ls),
(90,724,o),
(106,740,o),
(138,740,cs),
(162,740,o),
(177,729,o),
(185,706,cs),
(291,379,ls),
(297,360,o),
(303,360,o),
(309,379,cs),
(415,706,ls),
(423,729,o),
(438,740,o),
(462,740,cs),
(494,740,o),
(510,724,o),
(510,692,cs)
);
}
);
width = 600;
}
);
unicode = 77;
},
{
glyphname = N;
layers = (
{
layerId = "3D30E2C5-0B1E-4C3D-8621-C00C1C908D18";
shapes = (
{
closed = 1;
nodes = (
(50,629,ls),
(50,703,o),
(87,740,o),
(161,740,cs),
(211,740,o),
(241,716,o),
(257,669,cs),
(400,240,ls),
(401,236,o),
(403,234,o),
(406,234,cs),
(409,234,o),
(410,236,o),
(410,240,cs),
(410,670,ls),
(410,717,o),
(433,740,o),
(480,740,cs),
(527,740,o),
(550,717,o),
(550,670,cs),
(550,101,ls),
(550,27,o),
(513,-10,o),
(439,-10,cs),
(389,-10,o),
(359,14,o),
(343,61,cs),
(200,490,ls),
(199,494,o),
(197,496,o),
(194,496,cs),
(191,496,o),
(190,494,o),
(190,490,cs),
(190,60,ls),
(190,13,o),
(167,-10,o),
(120,-10,cs),
(73,-10,o),
(50,13,o),
(50,60,cs)
);
}
);
width = 600;
},
{
layerId = "BD6112AA-D71A-4C36-8E9B-0F516311C436";
shapes = (
{
closed = 1;
nodes = (
(80,662,ls),
(80,714,o),
(106,740,o),
(158,740,cs),
(193,740,o),
(214,723,o),
(226,690,cs),
(421,150,ls),
(422,146,o),
(423,144,o),
(426,144,cs),
(429,144,o),
(430,146,o),
(430,150,cs),
(430,695,ls),
(430,725,o),
(445,740,o),
(475,740,cs),
(505,740,o),
(520,725,o),
(520,695,cs),
(520,68,ls),
(520,16,o),
(494,-10,o),
(442,-10,cs),
(407,-10,o),
(386,7,o),
(374,40,cs),
(179,580,ls),
(178,584,o),
(177,586,o),
(174,586,cs),
(171,586,o),
(170,584,o),
(170,580,cs),
(170,35,ls),
(170,5,o),
(155,-10,o),
(125,-10,cs),
(95,-10,o),
(80,5,o),
(80,35,cs)
);
}
);
width = 600;
},
{
layerId = "6081C699-E88C-443F-8307-DAA77428180B";
shapes = (
{
closed = 1;
nodes = (
(110,693,ls),
(110,724,o),
(126,740,o),
(157,740,cs),
(181,740,o),
(196,729,o),
(204,707,cs),
(430,80,ls),
(431,76,o),
(433,74,o),
(436,74,cs),
(439,74,o),
(440,76,o),
(440,80,cs),
(440,715,ls),
(440,732,o),
(448,740,o),
(465,740,cs),
(482,740,o),
(490,732,o),
(490,715,cs),
(490,37,ls),
(490,6,o),
(474,-10,o),
(443,-10,cs),
(419,-10,o),
(404,1,o),
(396,23,cs),
(170,650,ls),
(169,654,o),
(167,656,o),
(164,656,cs),
(161,656,o),
(160,654,o),
(160,650,cs),
(160,15,ls),
(160,-2,o),
(152,-10,o),
(135,-10,cs),
(118,-10,o),
(110,-2,o),
(110,15,cs)
);
}
);
width = 600;
}
);
unicode = 78;
},
{
glyphname = O;
layers = (
{
layerId = "3D30E2C5-0B1E-4C3D-8621-C00C1C908D18";
shapes = (
{
closed = 1;
nodes = (
(395,115,o),
(405,283,o),
(405,365,cs),
(405,448,o),
(395,615,o),
(300,615,cs),
(206,615,o),
(195,447,o),
(195,365,cs),
(195,283,o),
(206,115,o),
(300,115,cs)
);
},
{
closed = 1;
nodes = (
(85,-10,o),
(45,208,o),
(45,365,cs),
(45,522,o),
(85,740,o),
(300,740,cs),
(519,740,o),
(555,524,o),
(555,365,cs),
(555,208,o),
(514,-10,o),
(300,-10,cs)
);
}
);
width = 600;
},
{
layerId = "BD6112AA-D71A-4C36-8E9B-0F516311C436";
shapes = (
{
closed = 1;
nodes = (
(428,80,o),
(447,271,o),
(447,365,cs),
(447,460,o),
(429,650,o),
(300,650,cs),
(171,650,o),
(153,459,o),
(153,365,cs),
(153,271,o),
(172,80,o),
(300,80,cs)
);
},
{
closed = 1;
nodes = (
(100,-10,o),
(63,208,o),
(63,365,cs),
(63,522,o),
(100,740,o),
(300,740,cs),
(503,740,o),
(537,524,o),
(537,365,cs),
(537,208,o),
(499,-10,o),
(300,-10,cs)
);
}
);
width = 600;
},
{
layerId = "6081C699-E88C-443F-8307-DAA77428180B";
shapes = (
{
closed = 1;
nodes = (
(453,40,o),
(474,260,o),
(474,365,cs),
(474,472,o),
(454,690,o),
(300,690,cs),
(146,690,o),
(126,470,o),
(126,365,cs),
(126,260,o),
(147,40,o),
(300,40,cs)
);
},
{
closed = 1;
nodes = (
(106,-10,o),
(76,208,o),
(76,365,cs),
(76,522,o),
(106,740,o),
(300,740,cs),
(498,740,o),
(524,524,o),
(524,365,cs),
(524,208,o),
(493,-10,o),
(300,-10,cs)
);
}
);
width = 600;
}
);
unicode = 79;
},
{
glyphname = P;
layers = (
{
layerId = "3D30E2C5-0B1E-4C3D-8621-C00C1C908D18";
shapes = (
{
closed = 1;
nodes = (
(66,630,ls),
(66,697,o),
(99,730,o),
(166,730,cs),
(315,730,ls),
(392,730,o),
(507,672,o),
(570,578,o),
(570,508,qs),
(570,439,o),
(506,344,o),
(392,286,o),
(315,286,qs),
(241,286,ls),
(224,286,o),
(216,278,o),
(216,261,cs),
(216,65,ls),
(216,15,o),
(190,-10,o),
(140,-10,cs),
(90,-10,o),
(66,15,o),
(66,65,cs)
);
},
{
closed = 1;
nodes = (
(216,441,ls),
(216,424,o),
(224,416,o),
(241,416,cs),
(315,416,ls),
(363,416,o),
(420,464,o),
(420,508,qs),
(420,552,o),
(363,600,o),
(315,600,qs),
(266,600,ls),
(233,600,o),
(216,583,o),
(216,550,cs)
);
}
);
width = 600;
},
{
layerId = "BD6112AA-D71A-4C36-8E9B-0F516311C436";
shapes = (
{
closed = 1;
nodes = (
(92,650,ls),
(92,704,o),
(118,730,o),
(172,730,cs),
(327,730,ls),
(395,730,o),
(495,677,o),
(550,591,o),
(550,525,qs),
(550,460,o),
(495,373,o),
(395,320,o),
(327,320,qs),
(207,320,ls),
(190,320,o),
(182,312,o),
(182,295,cs),
(182,35,ls),
(182,5,o),
(167,-10,o),
(137,-10,cs),
(107,-10,o),
(92,5,o),
(92,35,cs)
);
},
{
closed = 1;
nodes = (
(182,435,ls),
(182,418,o),
(190,410,o),
(207,410,cs),
(327,410,ls),
(386,410,o),
(457,473,o),
(457,525,qs),
(457,578,o),
(386,640,o),
(327,640,qs),
(222,640,ls),
(195,640,o),
(182,627,o),
(182,600,cs)
);
}
);
width = 600;
},
{
layerId = "6081C699-E88C-443F-8307-DAA77428180B";
shapes = (
{
closed = 1;
nodes = (
(110,670,ls),
(110,710,o),
(130,730,o),
(170,730,cs),
(325,730,ls),
(389,730,o),
(483,680,o),
(535,599,o),
(535,537,qs),
(535,476,o),
(483,394,o),
(389,344,o),
(325,344,qs),
(180,344,ls),
(167,344,o),
(160,337,o),
(160,324,cs),
(160,15,ls),
(160,-2,o),
(152,-10,o),
(135,-10,cs),
(118,-10,o),
(110,-2,o),
(110,15,cs)
);
},
{
closed = 1;
nodes = (
(160,414,ls),
(160,401,o),
(167,394,o),
(180,394,cs),
(325,394,ls),
(398,394,o),
(485,469,o),
(485,537,qs),
(485,606,o),
(399,680,o),
(325,680,qs),
(190,680,ls),
(170,680,o),
(160,670,o),
(160,650,cs)
);
}
);
width = 600;
}
);
unicode = 80;
},
{
glyphname = Q;
layers = (
{
layerId = "3D30E2C5-0B1E-4C3D-8621-C00C1C908D18";
shapes = (
{
closed = 1;
nodes = (
(395,115,o),
(405,283,o),
(405,365,cs),
(405,448,o),
(395,615,o),
(300,615,cs),
(206,615,o),
(195,447,o),
(195,365,cs),
(195,283,o),
(206,115,o),
(300,115,cs)
);
},
{
closed = 1;
nodes = (
(85,-10,o),
(45,208,o),
(45,365,cs),
(45,522,o),
(85,740,o),
(300,740,cs),
(519,740,o),
(555,524,o),
(555,365,cs),
(555,208,o),
(514,-10,o),
(300,-10,cs)
);
},
{
closed = 1;
nodes = (
(308,-177,ls),
(270,-166,o),
(253,-142,o),
(264,-101,cs),
(275,-60,o),
(302,-45,o),
(340,-56,cs),
(501,-102,ls),
(540,-113,o),
(557,-138,o),
(546,-179,cs),
(535,-220,o),
(507,-234,o),
(468,-223,cs)
);
}
);
width = 600;
},
{
layerId = "BD6112AA-D71A-4C36-8E9B-0F516311C436";
shapes = (
{
closed = 1;
nodes = (
(428,80,o),
(447,271,o),
(447,365,cs),
(447,460,o),
(429,650,o),
(300,650,cs),
(171,650,o),
(153,459,o),
(153,365,cs),
(153,271,o),
(172,80,o),
(300,80,cs)
);
},
{
closed = 1;
nodes = (
(100,-10,o),
(63,208,o),
(63,365,cs),
(63,522,o),
(100,740,o),
(300,740,cs),
(503,740,o),
(537,524,o),
(537,365,cs),
(537,208,o),
(499,-10,o),
(300,-10,cs)
);
},
{
closed = 1;
nodes = (
(300,-154,ls),
(271,-147,o),
(261,-128,o),
(269,-99,cs),
(277,-70,o),
(294,-60,o),
(323,-67,cs),
(486,-109,ls),
(515,-116,o),
(526,-136,o),
(518,-165,cs),
(510,-194,o),
(492,-203,o),
(463,-196,cs)
);
}
);
width = 600;
},
{
layerId = "6081C699-E88C-443F-8307-DAA77428180B";
shapes = (
{
closed = 1;
nodes = (
(453,40,o),
(484,260,o),
(484,365,cs),
(484,472,o),
(454,690,o),
(300,690,cs),
(146,690,o),
(116,470,o),
(116,365,cs),
(116,260,o),
(147,40,o),
(300,40,cs)
);
},
{
closed = 1;
nodes = (
(106,-10,o),
(66,208,o),
(66,365,cs),
(66,522,o),
(106,740,o),
(300,740,cs),
(498,740,o),
(534,524,o),
(534,365,cs),
(534,208,o),
(493,-10,o),
(300,-10,cs)
);
},
{
closed = 1;
nodes = (
(291,-124,ls),
(275,-120,o),
(270,-110,o),
(274,-94,cs),
(278,-78,o),
(288,-72,o),
(304,-76,cs),
(497,-127,ls),
(513,-131,o),
(519,-143,o),
(515,-159,cs),
(511,-175,o),
(500,-180,o),
(484,-176,cs)
);
}
);
width = 600;
}
);
unicode = 81;
},
{
glyphname = R;
layers = (
{
layerId = "3D30E2C5-0B1E-4C3D-8621-C00C1C908D18";
shapes = (
{
closed = 1;
nodes = (
(90,-10,o),
(66,14,o),
(66,64,cs),
(66,630,ls),
(66,697,o),
(99,730,o),
(166,730,cs),
(300,730,ls),
(378,730,o),
(492,676,o),
(554,579,o),
(555,511,qs),
(556,450,o),
(521,401,qs),
(489,356,o),
(449,331,qs),
(434,322,o),
(432,312,o),
(439,298,cs),
(543,86,ls),
(575,21,o),
(559,-10,o),
(486,-10,cs),
(450,-10,o),
(422,6,o),
(407,38,cs),
(295,274,ls),
(288,289,o),
(276,296,o),
(259,296,cs),
(239,296,ls),
(222,296,o),
(214,288,o),
(214,271,cs),
(214,64,ls),
(214,14,o),
(190,-10,o),
(140,-10,cs)
);
},
{
closed = 1;
nodes = (
(214,451,ls),
(214,434,o),
(222,426,o),
(239,426,cs),
(300,426,ls),
(350,426,o),
(405,466,o),
(405,511,qs),
(405,558,o),
(350,600,o),
(300,600,qs),
(264,600,ls),
(231,600,o),
(214,583,o),
(214,550,cs)
);
}
);
width = 600;
},
{
layerId = "BD6112AA-D71A-4C36-8E9B-0F516311C436";
shapes = (
{
closed = 1;
nodes = (
(108,-10,o),
(93,5,o),
(93,35,cs),
(93,650,ls),
(93,704,o),
(119,730,o),
(173,730,cs),
(318,730,ls),
(383,730,o),
(481,677,o),
(535,593,o),
(535,530,qs),
(535,476,o),
(497,413,qs),
(470,368,o),
(419,348,qs),
(403,342,o),
(401,331,o),
(408,317,cs),
(539,48,ls),
(559,8,o),
(548,-10,o),
(504,-10,cs),
(482,-10,o),
(466,-1,o),
(456,19,cs),
(315,308,ls),
(308,323,o),
(295,330,o),
(278,330,cs),
(207,330,ls),
(190,330,o),
(182,322,o),
(182,305,cs),
(182,35,ls),
(182,5,o),
(168,-10,o),
(138,-10,cs)
);
},
{
closed = 1;
nodes = (
(182,445,ls),
(182,428,o),
(190,420,o),
(207,420,cs),
(318,420,ls),
(374,420,o),
(442,481,o),
(442,530,qs),
(442,580,o),
(374,640,o),
(318,640,qs),
(222,640,ls),
(195,640,o),
(182,627,o),
(182,600,cs)
);
}
);
width = 600;
},
{
layerId = "6081C699-E88C-443F-8307-DAA77428180B";
shapes = (
{
closed = 1;
nodes = (
(118,-10,o),
(110,-2,o),
(110,15,cs),
(110,670,ls),
(110,710,o),
(130,730,o),
(170,730,cs),
(315,730,ls),
(380,730,o),
(474,681,o),
(524,602,o),
(525,540,qs),
(526,481,o),
(481,416,qs),
(447,366,o),
(379,356,qs),
(366,354,o),
(363,347,o),
(369,335,cs),
(530,25,ls),
(542,2,o),
(537,-10,o),
(510,-10,cs),
(497,-10,o),
(486,-4,o),
(480,8,cs),
(315,332,ls),
(309,344,o),
(298,350,o),
(285,350,cs),
(180,350,ls),
(167,350,o),
(160,343,o),
(160,330,cs),
(160,15,ls),
(160,-2,o),
(152,-10,o),
(135,-10,cs)
);
},
{
closed = 1;
nodes = (
(160,420,ls),
(160,407,o),
(167,400,o),
(180,400,cs),
(315,400,ls),
(388,400,o),
(475,475,o),
(475,540,qs),
(475,607,o),
(388,680,o),
(315,680,qs),
(190,680,ls),
(170,680,o),
(160,670,o),
(160,650,cs)
);
}
);
width = 600;
}
);
unicode = 82;
},
{
glyphname = S;
layers = (
{
layerId = "3D30E2C5-0B1E-4C3D-8621-C00C1C908D18";
shapes = (
{
closed = 1;
nodes = (
(41,170,o),
(74,210,o),
(144,210,cs),
(167,210,o),
(184,197,o),
(206,163,cs),
(213,153,o),
(223,145,qs),
(253,121,o),
(302,120,qs),
(351,120,o),
(406,167,o),
(406,206,qs),
(406,237,o),
(370,286,o),
(335,294,qs),
(246,315,ls),
(160,335,o),
(59,450,o),
(59,530,qs),
(59,595,o),
(116,689,o),
(223,740,o),
(296,740,qs),
(370,740,o),
(478,689,o),
(507,642,qs),
(511,634,o),
(515,626,qs),
(542,572,o),
(510,531,o),
(439,531,cs),
(419,531,o),
(400,546,o),
(377,578,cs),
(372,585,o),
(365,591,qs),
(340,613,o),
(296,612,qs),
(253,612,o),
(205,570,o),
(205,535,qs),
(205,506,o),
(241,470,o),
(274,462,qs),
(366,441,ls),
(452,422,o),
(553,295,o),
(553,206,qs),
(553,141,o),
(492,43,o),
(379,-10,o),
(302,-10,qs),
(225,-10,o),
(111,45,o),
(79,94,qs),
(73,105,o),
(67,115,qs)
);
}
);
width = 600;
},
{
layerId = "BD6112AA-D71A-4C36-8E9B-0F516311C436";
shapes = (
{
closed = 1;
nodes = (
(71,184,o),
(86,200,o),
(117,200,cs),
(144,200,o),
(158,187,o),
(168,155,cs),
(177,125,o),
(201,105,qs),
(240,71,o),
(304,70,qs),
(366,70,o),
(440,142,o),
(440,200,qs),
(440,244,o),
(393,309,o),
(349,321,qs),
(238,352,ls),
(169,372,o),
(90,475,o),
(90,545,qs),
(90,603,o),
(142,691,o),
(236,740,o),
(297,740,qs),
(359,740,o),
(454,692,o),
(481,648,qs),
(496,623,o),
(503,592,qs),
(509,564,o),
(495,547,o),
(463,547,cs),
(437,547,o),
(423,558,o),
(410,591,cs),
(402,613,o),
(384,629,qs),
(350,661,o),
(297,660,qs),
(244,660,o),
(178,597,o),
(178,547,qs),
(178,507,o),
(221,450,o),
(260,439,qs),
(374,407,ls),
(447,387,o),
(528,276,o),
(528,200,qs),
(528,136,o),
(473,42,o),
(372,-10,o),
(304,-10,qs),
(234,-10,o),
(130,41,o),
(101,88,qs),
(83,118,o),
(76,155,qs)
);
}
);
width = 600;
},
{
layerId = "6081C699-E88C-443F-8307-DAA77428180B";
shapes = (
{
closed = 1;
nodes = (
(84,192,o),
(93,200,o),
(110,200,cs),
(126,200,o),
(133,193,o),
(135,176,cs),
(142,119,o),
(182,81,qs),
(230,35,o),
(305,35,qs),
(376,35,o),
(466,116,o),
(466,180,qs),
(466,238,o),
(404,325,o),
(351,341,qs),
(249,372,ls),
(183,392,o),
(105,489,o),
(105,555,qs),
(105,609,o),
(155,694,o),
(245,740,o),
(304,740,qs),
(363,740,o),
(453,691,o),
(478,647,qs),
(498,612,o),
(502,569,qs),
(504,553,o),
(496,545,o),
(479,545,cs),
(463,545,o),
(455,552,o),
(453,569,cs),
(447,621,o),
(413,655,qs),
(372,697,o),
(303,696,qs),
(237,696,o),
(154,618,o),
(154,559,qs),
(154,508,o),
(212,434,o),
(261,418,qs),
(363,386,ls),
(433,364,o),
(515,255,o),
(515,183,qs),
(515,126,o),
(462,39,o),
(368,-10,o),
(305,-10,qs),
(240,-10,o),
(141,44,o),
(113,91,qs),
(91,129,o),
(86,176,qs)
);
}
);
width = 600;
}
);
unicode = 83;
},
{
glyphname = T;
layers = (
{
layerId = "3D30E2C5-0B1E-4C3D-8621-C00C1C908D18";
shapes = (
{
closed = 1;
nodes = (
(250,0,o),
(225,25,o),
(225,75,cs),
(225,570,ls),
(225,587,o),
(217,595,o),
(200,595,cs),
(108,595,ls),
(63,595,o),
(40,618,o),
(40,663,cs),
(40,708,o),
(62,730,o),
(107,730,cs),
(493,730,ls),
(538,730,o),
(560,708,o),
(560,663,cs),
(560,618,o),
(537,595,o),
(492,595,cs),
(400,595,ls),
(383,595,o),
(375,587,o),
(375,570,cs),
(375,75,ls),
(375,25,o),
(350,0,o),
(300,0,cs)
);
}
);
width = 600;
},
{
layerId = "BD6112AA-D71A-4C36-8E9B-0F516311C436";
shapes = (
{
closed = 1;
nodes = (
(270,-10,o),
(255,5,o),
(255,35,cs),
(255,620,ls),
(255,633,o),
(248,640,o),
(235,640,cs),
(100,640,ls),
(73,640,o),
(55,658,o),
(55,685,cs),
(55,712,o),
(73,730,o),
(100,730,cs),
(500,730,ls),
(527,730,o),
(545,712,o),
(545,685,cs),
(545,658,o),
(527,640,o),
(500,640,cs),
(365,640,ls),
(352,640,o),
(345,633,o),
(345,620,cs),
(345,35,ls),
(345,5,o),
(330,-10,o),
(300,-10,cs)
);
}
);
width = 600;
},
{
layerId = "6081C699-E88C-443F-8307-DAA77428180B";
shapes = (
{
closed = 1;
nodes = (
(284,-10,o),
(276,-2,o),
(276,15,cs),
(276,665,ls),
(276,675,o),
(271,680,o),
(261,680,cs),
(85,680,ls),
(70,680,o),
(60,690,o),
(60,705,cs),
(60,720,o),
(70,730,o),
(85,730,cs),
(515,730,ls),
(530,730,o),
(540,720,o),
(540,705,cs),
(540,690,o),
(529,680,o),
(514,680,cs),
(341,680,ls),
(331,680,o),
(326,675,o),
(326,665,cs),
(326,15,ls),
(326,-2,o),
(318,-10,o),
(301,-10,cs)
);
}
);
width = 600;
}
);
unicode = 84;
},
{
glyphname = U;
layers = (
{
layerId = "3D30E2C5-0B1E-4C3D-8621-C00C1C908D18";
shapes = (
{
closed = 1;
nodes = (
(60,655,ls),
(60,705,o),
(85,730,o),
(135,730,cs),
(185,730,o),
(210,705,o),
(210,655,cs),
(210,225,ls),
(210,179,o),
(257,120,o),
(300,120,qs),
(342,120,o),
(390,179,o),
(390,225,qs),
(390,655,ls),
(390,705,o),
(415,730,o),
(465,730,cs),
(515,730,o),
(540,705,o),
(540,655,cs),
(540,224,ls),
(540,121,o),
(411,-10,o),
(300,-10,qs),
(189,-10,o),
(60,120,o),
(60,224,qs)
);
}
);
width = 600;
},
{
layerId = "BD6112AA-D71A-4C36-8E9B-0F516311C436";
shapes = (
{
closed = 1;
nodes = (
(90,685,ls),
(90,715,o),
(105,730,o),
(135,730,cs),
(165,730,o),
(180,715,o),
(180,685,cs),
(180,210,ls),
(180,150,o),
(239,80,o),
(300,80,qs),
(360,80,o),
(420,150,o),
(420,210,qs),
(420,685,ls),
(420,715,o),
(435,730,o),
(465,730,cs),
(495,730,o),
(510,715,o),
(510,685,cs),
(510,210,ls),
(510,112,o),
(403,-10,o),
(300,-10,qs),
(198,-10,o),
(90,113,o),
(90,210,qs)
);
}
);
width = 600;
},
{
layerId = "6081C699-E88C-443F-8307-DAA77428180B";
shapes = (
{
closed = 1;
nodes = (
(108,705,ls),
(108,722,o),
(116,730,o),
(133,730,cs),
(150,730,o),
(158,722,o),
(158,705,cs),
(158,200,ls),
(158,127,o),
(233,40,o),
(300,40,qs),
(367,40,o),
(442,127,o),
(442,200,qs),
(442,705,ls),
(442,722,o),
(450,730,o),
(467,730,cs),
(484,730,o),
(492,722,o),
(492,705,cs),
(492,200,ls),
(492,109,o),
(387,-10,o),
(300,-10,qs),
(212,-10,o),
(108,109,o),
(108,200,qs)
);
}
);
width = 600;
}
);
unicode = 85;
},
{
glyphname = W;
layers = (
{
layerId = "3D30E2C5-0B1E-4C3D-8621-C00C1C908D18";
shapes = (
{
closed = 1;
nodes = (
(7,670,ls),
(2,717,o),
(23,740,o),
(70,740,cs),
(110,740,o),
(131,720,o),
(134,680,cs),
(167,225,ls),
(168,211,o),
(179,209,o),
(182,224,cs),
(234,505,ls),
(241,542,o),
(262,560,o),
(300,560,cs),
(338,560,o),
(359,542,o),
(366,505,cs),
(418,224,ls),
(421,209,o),
(432,210,o),
(433,225,cs),
(466,688,ls),
(468,723,o),
(487,740,o),
(522,740,cs),
(574,740,o),
(597,714,o),
(591,662,cs),
(526,71,ls),
(520,17,o),
(490,-10,o),
(436,-10,cs),
(382,-10,o),
(351,16,o),
(343,70,cs),
(309,301,ls),
(307,315,o),
(293,316,o),
(291,301,cs),
(257,73,ls),
(249,18,o),
(218,-10,o),
(162,-10,cs),
(106,-10,o),
(75,17,o),
(69,73,cs)
);
}
);
width = 600;
},
{
layerId = "BD6112AA-D71A-4C36-8E9B-0F516311C436";
shapes = (
{
closed = 1;
nodes = (
(17,685,ls),
(12,722,o),
(29,740,o),
(66,740,cs),
(91,740,o),
(104,728,o),
(107,703,cs),
(167,145,ls),
(168,133,o),
(176,132,o),
(178,144,cs),
(244,513,ls),
(250,545,o),
(268,560,o),
(300,560,cs),
(332,560,o),
(350,545,o),
(356,513,cs),
(422,145,ls),
(424,134,o),
(432,134,o),
(433,146,cs),
(493,703,ls),
(496,728,o),
(509,740,o),
(534,740,cs),
(571,740,o),
(588,722,o),
(583,685,cs),
(504,50,ls),
(499,10,o),
(477,-10,o),
(436,-10,cs),
(395,-10,o),
(372,10,o),
(365,50,cs),
(307,391,ls),
(305,402,o),
(295,402,o),
(293,391,cs),
(235,51,ls),
(228,10,o),
(205,-10,o),
(164,-10,cs),
(123,-10,o),
(100,10,o),
(95,51,cs)
);
}
);
width = 600;
},
{
layerId = "6081C699-E88C-443F-8307-DAA77428180B";
shapes = (
{
closed = 1;
nodes = (
(39,710,ls),
(36,730,o),
(45,740,o),
(66,740,cs),
(80,740,o),
(86,734,o),
(88,720,cs),
(169,55,ls),
(170,50,o),
(174,49,o),
(175,55,cs),
(262,529,ls),
(266,550,o),
(279,560,o),
(300,560,cs),
(321,560,o),
(334,550,o),
(338,529,cs),
(427,55,ls),
(428,50,o),
(432,50,o),
(433,55,cs),
(512,720,ls),
(514,734,o),
(520,740,o),
(534,740,cs),
(555,740,o),
(564,730,o),
(561,710,cs),
(475,27,ls),
(472,2,o),
(458,-10,o),
(433,-10,cs),
(408,-10,o),
(393,2,o),
(388,27,cs),
(304,475,ls),
(303,480,o),
(297,480,o),
(296,475,cs),
(212,27,ls),
(207,2,o),
(193,-10,o),
(168,-10,cs),
(143,-10,o),
(128,2,o),
(125,27,cs)
);
}
);
width = 600;
}
);
unicode = 87;
},
{
glyphname = X;
layers = (
{
layerId = "3D30E2C5-0B1E-4C3D-8621-C00C1C908D18";
shapes = (
{
closed = 1;
nodes = (
(76,-10,o),
(37,22,o),
(70,88,cs),
(216,377,l),
(83,642,ls),
(50,708,o),
(89,740,o),
(143,740,cs),
(180,740,o),
(204,724,o),
(220,690,cs),
(300,520,l),
(380,690,ls),
(396,724,o),
(420,740,o),
(457,740,cs),
(511,740,o),
(550,708,o),
(517,642,cs),
(384,377,l),
(530,88,ls),
(563,22,o),
(524,-10,o),
(470,-10,cs),
(433,-10,o),
(408,7,o),
(392,40,cs),
(300,230,l),
(208,40,ls),
(192,7,o),
(167,-10,o),
(130,-10,cs)
);
}
);
width = 600;
},
{
layerId = "BD6112AA-D71A-4C36-8E9B-0F516311C436";
shapes = (
{
closed = 1;
nodes = (
(77,-10,o),
(50,9,o),
(72,48,cs),
(250,370,l),
(82,682,ls),
(61,721,o),
(88,740,o),
(117,740,cs),
(139,740,o),
(155,731,o),
(165,711,cs),
(300,450,l),
(435,711,ls),
(445,731,o),
(461,740,o),
(483,740,cs),
(512,740,o),
(538,721,o),
(517,682,cs),
(350,376,l),
(528,49,ls),
(549,10,o),
(523,-10,o),
(493,-10,cs),
(471,-10,o),
(455,0,o),
(445,20,cs),
(300,300,l),
(155,20,ls),
(145,0,o),
(129,-10,o),
(107,-10,cs)
);
}
);
width = 600;
},
{
layerId = "6081C699-E88C-443F-8307-DAA77428180B";
shapes = (
{
closed = 1;
nodes = (
(75,-10,o),
(59,1,o),
(71,22,cs),
(270,380,l),
(86,707,ls),
(74,729,o),
(90,740,o),
(105,740,cs),
(118,740,o),
(127,735,o),
(133,724,cs),
(300,420,l),
(467,724,ls),
(473,735,o),
(482,740,o),
(495,740,cs),
(510,740,o),
(526,729,o),
(514,707,cs),
(330,382,l),
(529,22,ls),
(541,1,o),
(525,-10,o),
(510,-10,cs),
(498,-10,o),
(489,-5,o),
(483,6,cs),
(300,340,l),
(117,6,ls),
(111,-5,o),
(102,-10,o),
(90,-10,cs)
);
}
);
width = 600;
}
);
unicode = 88;
},
{
glyphname = Y;
layers = (
{
layerId = "3D30E2C5-0B1E-4C3D-8621-C00C1C908D18";
shapes = (
{
closed = 1;
nodes = (
(250,-10,o),
(225,15,o),
(225,65,cs),
(225,230,ls),
(225,250,o),
(221,269,o),
(213,287,cs),
(52,655,ls),
(31,704,o),
(66,740,o),
(108,740,cs),
(150,740,o),
(177,721,o),
(193,683,cs),
(289,448,ls),
(297,429,o),
(303,429,o),
(311,448,cs),
(407,683,ls),
(423,721,o),
(450,740,o),
(492,740,cs),
(534,740,o),
(569,704,o),
(548,655,cs),
(387,287,ls),
(379,269,o),
(375,250,o),
(375,230,cs),
(375,65,ls),
(375,15,o),
(350,-10,o),
(300,-10,cs)
);
}
);
width = 600;
},
{
layerId = "BD6112AA-D71A-4C36-8E9B-0F516311C436";
shapes = (
{
closed = 1;
nodes = (
(270,-10,o),
(255,5,o),
(255,35,cs),
(255,248,ls),
(255,265,o),
(251,281,o),
(244,296,cs),
(59,690,ls),
(47,716,o),
(69,740,o),
(91,740,cs),
(116,740,o),
(129,735,o),
(143,706,cs),
(290,390,ls),
(297,375,o),
(303,375,o),
(310,390,cs),
(457,706,ls),
(471,735,o),
(484,740,o),
(509,740,cs),
(531,740,o),
(553,716,o),
(541,690,cs),
(356,296,ls),
(349,281,o),
(345,265,o),
(345,248,cs),
(345,35,ls),
(345,5,o),
(330,-10,o),
(300,-10,cs)
);
}
);
width = 600;
},
{
layerId = "6081C699-E88C-443F-8307-DAA77428180B";
shapes = (
{
closed = 1;
nodes = (
(283,-10,o),
(275,-2,o),
(275,15,cs),
(275,260,ls),
(275,273,o),
(272,286,o),
(266,298,cs),
(64,711,ls),
(56,727,o),
(71,740,o),
(82,740,cs),
(96,740,o),
(109,734,o),
(115,721,cs),
(291,356,ls),
(297,344,o),
(303,344,o),
(309,356,cs),
(485,721,ls),
(491,734,o),
(504,740,o),
(518,740,cs),
(529,740,o),
(544,727,o),
(536,711,cs),
(334,298,ls),
(328,286,o),
(325,273,o),
(325,260,cs),
(325,15,ls),
(325,-2,o),
(317,-10,o),
(300,-10,cs)
);
}
);
width = 600;
}
);
unicode = 89;
},
{
glyphname = Z;
layers = (
{
layerId = "3D30E2C5-0B1E-4C3D-8621-C00C1C908D18";
shapes = (
{
closed = 1;
nodes = (
(176,0,ls),
(108,0,o),
(75,33,o),
(75,101,cs),
(75,124,o),
(81,144,o),
(92,164,cs),
(328,569,ls),
(338,586,o),
(333,595,o),
(313,595,cs),
(150,595,ls),
(105,595,o),
(83,618,o),
(83,663,cs),
(83,708,o),
(106,730,o),
(151,730,cs),
(413,730,ls),
(481,730,o),
(514,697,o),
(514,629,cs),
(514,606,o),
(508,586,o),
(497,566,cs),
(260,161,ls),
(250,144,o),
(255,135,o),
(275,135,cs),
(458,135,ls),
(503,135,o),
(525,113,o),
(525,68,cs),
(525,23,o),
(503,0,o),
(458,0,cs)
);
}
);
width = 600;
},
{
layerId = "BD6112AA-D71A-4C36-8E9B-0F516311C436";
shapes = (
{
closed = 1;
nodes = (
(153,0,ls),
(108,0,o),
(85,23,o),
(85,68,cs),
(85,83,o),
(88,96,o),
(96,109,cs),
(391,618,ls),
(399,632,o),
(396,640,o),
(379,640,cs),
(135,640,ls),
(108,640,o),
(90,658,o),
(90,685,cs),
(90,712,o),
(108,730,o),
(135,730,cs),
(437,730,ls),
(482,730,o),
(505,708,o),
(505,663,cs),
(505,648,o),
(502,634,o),
(494,621,cs),
(199,112,ls),
(191,98,o),
(194,90,o),
(211,90,cs),
(470,90,ls),
(497,90,o),
(515,72,o),
(515,45,cs),
(515,18,o),
(497,0,o),
(470,0,cs)
);
}
);
width = 600;
},
{
layerId = "6081C699-E88C-443F-8307-DAA77428180B";
shapes = (
{
closed = 1;
nodes = (
(127,0,ls),
(102,0,o),
(90,13,o),
(90,38,cs),
(90,46,o),
(92,54,o),
(96,61,cs),
(433,663,ls),
(440,675,o),
(436,680,o),
(423,680,cs),
(121,680,ls),
(106,680,o),
(94,690,o),
(94,705,cs),
(94,720,o),
(106,730,o),
(121,730,cs),
(454,730,ls),
(483,730,o),
(497,716,o),
(497,687,cs),
(497,677,o),
(495,669,o),
(490,661,cs),
(157,67,ls),
(150,55,o),
(154,50,o),
(167,50,cs),
(485,50,ls),
(500,50,o),
(510,40,o),
(510,25,cs),
(510,10,o),
(500,0,o),
(485,0,cs)
);
}
);
width = 600;
}
);
unicode = 90;
},
{
glyphname = period;
layers = (
{
layerId = "3D30E2C5-0B1E-4C3D-8621-C00C1C908D18";
shapes = (
{
closed = 1;
nodes = (
(255,-10,o),
(199,46,o),
(199,91,qs),
(199,136,o),
(255,192,o),
(300,192,qs),
(345,192,o),
(401,136,o),
(401,91,qs),
(401,46,o),
(345,-10,o),
(300,-10,qs)
);
}
);
width = 600;
},
{
layerId = "BD6112AA-D71A-4C36-8E9B-0F516311C436";
shapes = (
{
closed = 1;
nodes = (
(263,-10,o),
(218,34,o),
(218,69,qs),
(218,106,o),
(263,152,o),
(300,152,qs),
(337,152,o),
(382,106,o),
(382,69,qs),
(382,34,o),
(337,-10,o),
(300,-10,qs)
);
}
);
width = 600;
},
{
layerId = "6081C699-E88C-443F-8307-DAA77428180B";
shapes = (
{
closed = 1;
nodes = (
(275,-10,o),
(242,24,o),
(242,50,qs),
(242,75,o),
(275,108,o),
(300,108,qs),
(325,108,o),
(358,75,o),
(358,50,qs),
(358,24,o),
(325,-10,o),
(300,-10,qs)
);
}
);
width = 600;
}
);
unicode = 46;
},
{
glyphname = a;
layers = (
{
layerId = "3D30E2C5-0B1E-4C3D-8621-C00C1C908D18";
shapes = (
{
closed = 1;
nodes = (
(327,125,o),
(360,185,o),
(375,243,cs),
(385,283,o),
(386,297,o),
(386,338,cs),
(386,396,o),
(362,425,o),
(314,425,cs),
(249,425,o),
(193,342,o),
(193,241,cs),
(193,170,o),
(212,125,o),
(260,125,cs)
);
},
{
closed = 1;
nodes = (
(475,-10,o),
(454,26,o),
(445,79,cs),
(443,88,o),
(441,97,o),
(438,103,cs),
(436,107,o),
(434,108,o),
(431,108,cs),
(426,108,o),
(421,101,o),
(414,91,cs),
(375,36,o),
(330,-10,o),
(240,-10,cs),
(82,-10,o),
(43,109,o),
(43,232,cs),
(43,381,o),
(126,560,o),
(320,560,cs),
(363,560,o),
(399,552,o),
(416,531,cs),
(420,526,o),
(424,519,o),
(430,519,cs),
(435,519,o),
(437,526,o),
(439,535,cs),
(445,560,o),
(464,560,o),
(496,560,cs),
(525,560,o),
(548,543,o),
(548,508,cs),
(548,445,o),
(525,411,o),
(525,255,cs),
(525,180,o),
(542,120,o),
(561,77,cs),
(567,64,o),
(571,44,o),
(571,32,cs),
(571,7,o),
(552,-10,o),
(516,-10,cs)
);
}
);
width = 600;
},
{
layerId = "BD6112AA-D71A-4C36-8E9B-0F516311C436";
shapes = (
{
closed = 1;
nodes = (
(321,80,o),
(386,150,o),
(405,210,cs),
(421,260,o),
(426,296,o),
(426,342,cs),
(426,420,o),
(385,470,o),
(314,470,cs),
(214,470,o),
(153,322,o),
(153,231,cs),
(153,160,o),
(168,80,o),
(250,80,cs)
);
},
{
closed = 1;
nodes = (
(464,-10,o),
(450,61,o),
(445,94,cs),
(444,103,o),
(441,112,o),
(438,118,cs),
(436,122,o),
(434,123,o),
(431,123,cs),
(428,123,o),
(425,120,o),
(420,112,cs),
(381,48,o),
(330,-10,o),
(235,-10,cs),
(103,-10,o),
(63,99,o),
(63,222,cs),
(63,371,o),
(156,560,o),
(320,560,cs),
(365,560,o),
(407,540,o),
(423,517,cs),
(427,511,o),
(430,509,o),
(433,509,cs),
(439,509,o),
(441,526,o),
(443,535,cs),
(449,560,o),
(461,560,o),
(486,560,cs),
(514,560,o),
(528,543,o),
(528,518,cs),
(528,466,o),
(505,411,o),
(505,245,cs),
(505,177,o),
(517,106,o),
(540,63,cs),
(547,50,o),
(551,39,o),
(551,26,cs),
(551,7,o),
(544,-10,o),
(508,-10,cs)
);
}
);
width = 600;
},
{
layerId = "6081C699-E88C-443F-8307-DAA77428180B";
shapes = (
{
closed = 1;
nodes = (
(330,40,o),
(405,167,o),
(420,223,cs),
(435,279,o),
(436,338,o),
(434,375,cs),
(430,447,o),
(392,510,o),
(314,510,cs),
(198,510,o),
(128,335,o),
(128,220,cs),
(128,144,o),
(134,40,o),
(241,40,cs)
);
},
{
closed = 1;
nodes = (
(463,-10,o),
(447,69,o),
(440,103,cs),
(439,109,o),
(437,118,o),
(434,125,cs),
(431,131,o),
(428,134,o),
(424,134,cs),
(420,134,o),
(417,130,o),
(414,123,cs),
(400,89,o),
(344,-10,o),
(230,-10,cs),
(104,-10,o),
(78,99,o),
(78,218,cs),
(78,372,o),
(155,560,o),
(324,560,cs),
(374,560,o),
(415,541,o),
(429,509,cs),
(432,503,o),
(434,501,o),
(437,501,cs),
(444,501,o),
(447,527,o),
(449,536,cs),
(453,560,o),
(465,560,o),
(477,560,cs),
(494,560,o),
(503,549,o),
(503,531,cs),
(503,484,o),
(475,440,o),
(475,246,cs),
(475,120,o),
(492,72,o),
(512,41,cs),
(522,26,o),
(524,22,o),
(524,13,cs),
(524,0,o),
(519,-10,o),
(500,-10,cs)
);
}
);
width = 600;
}
);
unicode = 97;
},
{
glyphname = b;
layers = (
{
layerId = "3D30E2C5-0B1E-4C3D-8621-C00C1C908D18";
shapes = (
{
closed = 1;
nodes = (
(215,69,o),
(211,69,o),
(211,64,cs),
(211,62,ls),
(211,13,o),
(188,-10,o),
(139,-10,cs),
(90,-10,o),
(66,14,o),
(66,63,cs),
(66,665,ls),
(66,715,o),
(91,740,o),
(141,740,cs),
(191,740,o),
(216,715,o),
(216,665,cs),
(216,519,ls),
(216,511,o),
(225,509,o),
(231,514,cs),
(237,519,o),
(245,525,qs),
(288,560,o),
(358,560,qs),
(438,560,o),
(560,429,o),
(560,275,qs),
(560,121,o),
(442,-10,o),
(362,-10,qs),
(296,-10,o),
(245,34,qs),
(232,46,o),
(218,65,qs)
);
},
{
closed = 1;
nodes = (
(355,140,o),
(410,192,o),
(410,275,qs),
(410,359,o),
(355,420,o),
(314,420,qs),
(271,420,o),
(216,361,o),
(216,315,qs),
(216,235,ls),
(216,199,o),
(271,140,o),
(314,140,qs)
);
}
);
width = 600;
},
{
layerId = "BD6112AA-D71A-4C36-8E9B-0F516311C436";
shapes = (
{
closed = 1;
nodes = (
(195,77,o),
(192,76,o),
(192,74,cs),
(192,35,ls),
(192,5,o),
(177,-10,o),
(147,-10,cs),
(117,-10,o),
(102,5,o),
(102,35,cs),
(102,695,ls),
(102,725,o),
(117,740,o),
(147,740,cs),
(177,740,o),
(192,725,o),
(192,695,cs),
(192,476,ls),
(192,473,o),
(195,473,o),
(196,476,cs),
(209,503,o),
(232,523,qs),
(275,560,o),
(342,560,qs),
(425,560,o),
(533,425,o),
(533,275,qs),
(533,125,o),
(425,-10,o),
(342,-10,qs),
(277,-10,o),
(232,27,qs),
(210,45,o),
(196,74,qs)
);
},
{
closed = 1;
nodes = (
(369,73,o),
(443,158,o),
(443,275,qs),
(443,393,o),
(370,475,o),
(315,475,qs),
(276,475,o),
(192,381,o),
(192,315,qs),
(192,205,ls),
(192,163,o),
(270,73,o),
(322,73,qs)
);
}
);
width = 600;
},
{
layerId = "6081C699-E88C-443F-8307-DAA77428180B";
shapes = (
{
closed = 1;
nodes = (
(173,80,o),
(170,79,o),
(170,75,cs),
(170,15,ls),
(170,-2,o),
(162,-10,o),
(145,-10,cs),
(128,-10,o),
(120,-2,o),
(120,15,cs),
(120,715,ls),
(120,732,o),
(128,740,o),
(145,740,cs),
(162,740,o),
(170,732,o),
(170,715,cs),
(170,475,ls),
(170,471,o),
(174,471,o),
(175,474,cs),
(186,499,o),
(209,519,qs),
(257,560,o),
(323,560,qs),
(406,560,o),
(515,420,o),
(515,275,qs),
(515,129,o),
(406,-10,o),
(323,-10,qs),
(257,-10,o),
(209,31,qs),
(186,51,o),
(175,76,qs)
);
},
{
closed = 1;
nodes = (
(380,38,o),
(465,145,o),
(465,275,qs),
(465,404,o),
(380,512,o),
(313,512,qs),
(260,512,o),
(170,409,o),
(170,355,qs),
(170,194,ls),
(170,131,o),
(261,38,o),
(313,38,qs)
);
}
);
width = 600;
}
);
unicode = 98;
},
{
glyphname = c;
layers = (
{
layerId = "3D30E2C5-0B1E-4C3D-8621-C00C1C908D18";
shapes = (
{
closed = 1;
nodes = (
(55,479,o),
(164,560,o),
(323,560,cs),
(375,560,o),
(507,531,o),
(525,466,cs),
(535,431,o),
(528,397,o),
(497,385,cs),
(470,374,o),
(445,383,o),
(428,392,cs),
(413,400,o),
(390,430,o),
(329,430,cs),
(263,430,o),
(205,387,o),
(205,275,cs),
(205,171,o),
(255,122,o),
(315,122,cs),
(390,122,o),
(406,150,o),
(427,162,cs),
(443,172,o),
(469,172,o),
(487,165,cs),
(521,152,o),
(530,118,o),
(519,82,cs),
(497,13,o),
(365,-10,o),
(309,-10,cs),
(163,-10,o),
(55,79,o),
(55,272,cs)
);
}
);
width = 600;
},
{
layerId = "BD6112AA-D71A-4C36-8E9B-0F516311C436";
shapes = (
{
closed = 1;
nodes = (
(80,479,o),
(193,560,o),
(349,560,cs),
(417,560,o),
(503,533,o),
(514,486,cs),
(519,466,o),
(511,440,o),
(493,433,cs),
(481,428,o),
(468,431,o),
(460,434,cs),
(426,445,o),
(405,470,o),
(349,470,cs),
(266,470,o),
(170,406,o),
(170,272,cs),
(170,148,o),
(240,80,o),
(334,80,cs),
(393,80,o),
(403,102,o),
(437,114,cs),
(452,119,o),
(471,122,o),
(487,115,cs),
(510,105,o),
(518,78,o),
(504,54,cs),
(479,10,o),
(406,-10,o),
(334,-10,cs),
(191,-10,o),
(80,78,o),
(80,272,cs)
);
}
);
width = 600;
},
{
layerId = "6081C699-E88C-443F-8307-DAA77428180B";
shapes = (
{
closed = 1;
nodes = (
(100,479,o),
(201,560,o),
(354,560,cs),
(417,560,o),
(483,533,o),
(505,502,cs),
(513,491,o),
(505,469,o),
(487,467,cs),
(473,465,o),
(461,472,o),
(449,479,cs),
(438,485,o),
(407,510,o),
(354,510,cs),
(237,510,o),
(150,432,o),
(150,275,cs),
(150,130,o),
(229,40,o),
(338,40,cs),
(393,40,o),
(438,62,o),
(456,72,cs),
(472,81,o),
(484,85,o),
(496,77,cs),
(509,68,o),
(511,52,o),
(505,41,cs),
(490,15,o),
(405,-10,o),
(338,-10,cs),
(200,-10,o),
(100,78,o),
(100,272,cs)
);
}
);
width = 600;
}
);
unicode = 99;
},
{
glyphname = d;
layers = (
{
layerId = "3D30E2C5-0B1E-4C3D-8621-C00C1C908D18";
shapes = (
{
closed = 1;
nodes = (
(368,46,o),
(355,34,qs),
(304,-10,o),
(238,-10,qs),
(158,-10,o),
(40,121,o),
(40,275,qs),
(40,429,o),
(162,560,o),
(242,560,qs),
(312,560,o),
(355,525,qs),
(363,519,o),
(369,514,qs),
(375,509,o),
(384,511,o),
(384,519,cs),
(384,665,ls),
(384,715,o),
(409,740,o),
(459,740,cs),
(509,740,o),
(534,715,o),
(534,665,cs),
(534,63,ls),
(534,14,o),
(510,-10,o),
(461,-10,cs),
(412,-10,o),
(389,13,o),
(389,62,cs),
(389,64,ls),
(389,69,o),
(385,69,o),
(382,65,cs)
);
},
{
closed = 1;
nodes = (
(329,140,o),
(384,199,o),
(384,235,qs),
(384,315,ls),
(384,361,o),
(329,420,o),
(286,420,qs),
(245,420,o),
(190,359,o),
(190,275,qs),
(190,192,o),
(245,140,o),
(286,140,qs)
);
}
);
width = 600;
},
{
layerId = "BD6112AA-D71A-4C36-8E9B-0F516311C436";
shapes = (
{
closed = 1;
nodes = (
(400,45,o),
(378,27,qs),
(333,-10,o),
(268,-10,qs),
(185,-10,o),
(77,125,o),
(77,275,qs),
(77,425,o),
(185,560,o),
(268,560,qs),
(335,560,o),
(378,523,qs),
(401,503,o),
(414,476,qs),
(415,473,o),
(418,473,o),
(418,476,cs),
(418,695,ls),
(418,725,o),
(433,740,o),
(463,740,cs),
(493,740,o),
(508,725,o),
(508,695,cs),
(508,35,ls),
(508,5,o),
(493,-10,o),
(463,-10,cs),
(433,-10,o),
(418,5,o),
(418,35,cs),
(418,74,ls),
(418,76,o),
(415,77,o),
(414,74,cs)
);
},
{
closed = 1;
nodes = (
(340,73,o),
(418,163,o),
(418,205,qs),
(418,315,ls),
(418,381,o),
(334,475,o),
(295,475,qs),
(240,475,o),
(167,393,o),
(167,275,qs),
(167,158,o),
(241,73,o),
(288,73,qs)
);
}
);
width = 600;
},
{
layerId = "6081C699-E88C-443F-8307-DAA77428180B";
shapes = (
{
closed = 1;
nodes = (
(424,51,o),
(401,31,qs),
(353,-10,o),
(287,-10,qs),
(204,-10,o),
(95,129,o),
(95,275,qs),
(95,420,o),
(204,560,o),
(287,560,qs),
(353,560,o),
(401,519,qs),
(424,499,o),
(435,474,qs),
(436,471,o),
(440,471,o),
(440,475,cs),
(440,715,ls),
(440,732,o),
(448,740,o),
(465,740,cs),
(482,740,o),
(490,732,o),
(490,715,cs),
(490,15,ls),
(490,-2,o),
(482,-10,o),
(465,-10,cs),
(448,-10,o),
(440,-2,o),
(440,15,cs),
(440,75,ls),
(440,79,o),
(437,80,o),
(435,76,cs)
);
},
{
closed = 1;
nodes = (
(349,38,o),
(440,131,o),
(440,194,qs),
(440,355,ls),
(440,409,o),
(350,512,o),
(297,512,qs),
(230,512,o),
(145,404,o),
(145,275,qs),
(145,145,o),
(230,38,o),
(297,38,qs)
);
}
);
width = 600;
}
);
unicode = 100;
},
{
glyphname = e;
layers = (
{
layerId = "3D30E2C5-0B1E-4C3D-8621-C00C1C908D18";
shapes = (
{
closed = 1;
nodes = (
(385,340,ls),
(394,340,o),
(399,345,o),
(397,354,cs),
(384,402,o),
(352,435,o),
(305,435,cs),
(261,435,o),
(219,403,o),
(206,356,cs),
(203,346,o),
(208,340,o),
(219,340,cs)
);
},
{
closed = 1;
nodes = (
(144,-10,o),
(62,117,o),
(62,277,cs),
(62,417,o),
(148,560,o),
(305,560,cs),
(471,560,o),
(533,429,o),
(533,285,cs),
(533,241,o),
(513,220,o),
(472,220,cs),
(219,220,ls),
(206,220,o),
(201,215,o),
(203,205,cs),
(216,145,o),
(265,110,o),
(315,110,cs),
(366,110,o),
(400,130,o),
(423,144,cs),
(436,152,o),
(447,158,o),
(457,158,cs),
(491,158,o),
(518,128,o),
(518,97,cs),
(518,80,o),
(511,67,o),
(499,55,cs),
(449,7,o),
(385,-10,o),
(305,-10,cs)
);
}
);
width = 600;
},
{
layerId = "BD6112AA-D71A-4C36-8E9B-0F516311C436";
shapes = (
{
closed = 1;
nodes = (
(409,320,ls),
(420,320,o),
(425,323,o),
(425,336,cs),
(425,410,o),
(375,470,o),
(300,470,cs),
(221,470,o),
(160,390,o),
(160,334,cs),
(160,321,o),
(167,320,o),
(176,320,cs)
);
},
{
closed = 1;
nodes = (
(167,-10,o),
(70,98,o),
(70,277,cs),
(70,425,o),
(145,560,o),
(300,560,cs),
(454,560,o),
(522,443,o),
(522,277,cs),
(522,253,o),
(503,230,o),
(475,230,cs),
(178,230,ls),
(165,230,o),
(160,225,o),
(160,211,cs),
(160,147,o),
(231,80,o),
(310,80,cs),
(371,80,o),
(422,104,o),
(446,123,cs),
(454,129,o),
(456,132,o),
(466,132,cs),
(491,132,o),
(510,110,o),
(510,88,cs),
(510,76,o),
(505,66,o),
(497,58,cs),
(447,10,o),
(377,-10,o),
(307,-10,cs)
);
}
);
width = 600;
},
{
layerId = "6081C699-E88C-443F-8307-DAA77428180B";
shapes = (
{
closed = 1;
nodes = (
(454,308,ls),
(460,308,o),
(462,311,o),
(462,318,cs),
(462,409,o),
(410,510,o),
(300,510,cs),
(190,510,o),
(136,399,o),
(136,318,cs),
(136,312,o),
(138,308,o),
(144,308,cs)
);
},
{
closed = 1;
nodes = (
(152,-10,o),
(82,106,o),
(82,277,cs),
(82,418,o),
(140,560,o),
(300,560,cs),
(460,560,o),
(512,432,o),
(512,288,cs),
(512,273,o),
(501,258,o),
(485,258,cs),
(143,258,ls),
(138,258,o),
(133,254,o),
(133,247,cs),
(133,128,o),
(211,40,o),
(305,40,cs),
(386,40,o),
(416,63,o),
(450,99,cs),
(459,109,o),
(464,114,o),
(472,114,cs),
(487,114,o),
(499,96,o),
(499,82,cs),
(499,75,o),
(496,69,o),
(491,64,cs),
(440,10,o),
(395,-10,o),
(305,-10,cs)
);
}
);
width = 600;
}
);
unicode = 101;
},
{
glyphname = f;
layers = (
{
layerId = "3D30E2C5-0B1E-4C3D-8621-C00C1C908D18";
shapes = (
{
closed = 1;
nodes = (
(190,315,ls),
(190,332,o),
(182,340,o),
(165,340,cs),
(111,340,ls),
(66,340,o),
(44,363,o),
(44,408,cs),
(44,453,o),
(66,475,o),
(111,475,cs),
(165,475,ls),
(182,475,o),
(190,483,o),
(190,500,cs),
(190,545,ls),
(190,627,o),
(305,730,o),
(395,730,qs),
(466,730,ls),
(510,730,o),
(531,709,o),
(531,665,cs),
(531,621,o),
(510,600,o),
(466,600,cs),
(395,600,ls),
(370,600,o),
(340,570,o),
(340,545,qs),
(340,500,ls),
(340,483,o),
(348,475,o),
(365,475,cs),
(474,475,ls),
(519,475,o),
(541,453,o),
(541,408,cs),
(541,363,o),
(519,340,o),
(474,340,cs),
(365,340,ls),
(348,340,o),
(340,332,o),
(340,315,cs),
(340,65,ls),
(340,15,o),
(315,-10,o),
(265,-10,cs),
(215,-10,o),
(190,15,o),
(190,65,cs)
);
}
);
width = 600;
},
{
layerId = "BD6112AA-D71A-4C36-8E9B-0F516311C436";
shapes = (
{
closed = 1;
nodes = (
(215,360,ls),
(215,373,o),
(208,380,o),
(195,380,cs),
(99,380,ls),
(72,380,o),
(55,398,o),
(55,425,cs),
(55,452,o),
(72,470,o),
(99,470,cs),
(195,470,ls),
(208,470,o),
(215,477,o),
(215,490,cs),
(215,570,ls),
(215,640,o),
(312,730,o),
(389,730,qs),
(474,730,ls),
(501,730,o),
(520,712,o),
(520,685,cs),
(520,658,o),
(501,640,o),
(474,640,cs),
(389,640,ls),
(353,640,o),
(305,596,o),
(305,570,qs),
(305,490,ls),
(305,477,o),
(312,470,o),
(325,470,cs),
(486,470,ls),
(513,470,o),
(530,452,o),
(530,425,cs),
(530,398,o),
(513,380,o),
(486,380,cs),
(325,380,ls),
(312,380,o),
(305,373,o),
(305,360,cs),
(305,35,ls),
(305,5,o),
(290,-10,o),
(260,-10,cs),
(230,-10,o),
(215,5,o),
(215,35,cs)
);
}
);
width = 600;
},
{
layerId = "6081C699-E88C-443F-8307-DAA77428180B";
shapes = (
{
closed = 1;
nodes = (
(235,414,ls),
(235,424,o),
(230,429,o),
(220,429,cs),
(90,429,ls),
(75,429,o),
(65,440,o),
(65,455,cs),
(65,470,o),
(75,479,o),
(90,479,cs),
(220,479,ls),
(230,479,o),
(235,484,o),
(235,494,cs),
(235,595,ls),
(235,654,o),
(314,730,o),
(375,730,qs),
(484,730,ls),
(499,730,o),
(508,720,o),
(508,705,cs),
(508,690,o),
(499,680,o),
(484,680,cs),
(375,680,ls),
(337,680,o),
(285,628,o),
(285,595,qs),
(285,494,ls),
(285,484,o),
(290,479,o),
(300,479,cs),
(493,479,ls),
(508,479,o),
(518,470,o),
(518,455,cs),
(518,440,o),
(508,429,o),
(493,429,cs),
(300,429,ls),
(290,429,o),
(285,424,o),
(285,414,cs),
(285,15,ls),
(285,-2,o),
(277,-10,o),
(260,-10,cs),
(243,-10,o),
(235,-2,o),
(235,15,cs)
);
}
);
width = 600;
}
);
unicode = 102;
},
{
glyphname = l;
layers = (
{
layerId = "3D30E2C5-0B1E-4C3D-8621-C00C1C908D18";
shapes = (
{
closed = 1;
nodes = (
(140,596,ls),
(180,596,o),
(200,576,o),
(200,536,cs),
(200,214,ls),
(200,69,o),
(238,-10,o),
(377,-10,cs),
(434,-10,o),
(529,1,o),
(529,80,cs),
(529,120,o),
(501,148,o),
(461,148,cs),
(449,148,o),
(439,144,o),
(428,139,cs),
(421,136,o),
(412,132,o),
(393,132,cs),
(355,132,o),
(350,168,o),
(350,230,cs),
(350,610,ls),
(350,690,o),
(310,730,o),
(230,730,cs),
(100,730,ls),
(55,730,o),
(33,708,o),
(33,663,cs),
(33,618,o),
(55,596,o),
(100,596,cs)
);
}
);
width = 600;
},
{
layerId = "BD6112AA-D71A-4C36-8E9B-0F516311C436";
shapes = (
{
closed = 1;
nodes = (
(180,648,ls),
(207,648,o),
(220,635,o),
(220,608,cs),
(220,207,ls),
(220,67,o),
(261,-10,o),
(390,-10,cs),
(441,-10,o),
(526,-2,o),
(526,56,cs),
(526,81,o),
(509,99,o),
(484,99,cs),
(475,99,o),
(470,96,o),
(462,92,cs),
(451,87,o),
(437,80,o),
(407,80,cs),
(326,80,o),
(310,148,o),
(310,224,cs),
(310,650,ls),
(310,704,o),
(284,730,o),
(230,730,cs),
(91,730,ls),
(64,730,o),
(50,716,o),
(50,689,cs),
(50,662,o),
(64,648,o),
(91,648,cs)
);
}
);
width = 600;
},
{
layerId = "6081C699-E88C-443F-8307-DAA77428180B";
shapes = (
{
closed = 1;
nodes = (
(200,683,ls),
(220,683,o),
(230,673,o),
(230,653,cs),
(230,202,ls),
(230,34,o),
(306,-10,o),
(389,-10,cs),
(437,-10,o),
(515,-5,o),
(515,40,cs),
(515,55,o),
(505,66,o),
(490,66,cs),
(487,66,o),
(483,65,o),
(477,62,c),
(463,56,o),
(446,45,o),
(408,45,cs),
(304,45,o),
(280,110,o),
(280,220,cs),
(280,670,ls),
(280,710,o),
(260,730,o),
(220,730,cs),
(84,730,ls),
(68,730,o),
(60,723,o),
(60,707,cs),
(60,691,o),
(67,683,o),
(83,683,cs)
);
}
);
width = 600;
}
);
unicode = 108;
},
{
glyphname = m;
layers = (
{
layerId = "3D30E2C5-0B1E-4C3D-8621-C00C1C908D18";
shapes = (
{
closed = 1;
nodes = (
(60,-10,o),
(33,11,o),
(33,54,cs),
(33,499,ls),
(33,540,o),
(59,560,o),
(100,560,cs),
(138,560,o),
(161,541,o),
(161,504,cs),
(161,493,ls),
(161,489,o),
(166,488,o),
(167,492,cs),
(174,514,o),
(188,531,qs),
(212,561,o),
(255,560,qs),
(297,559,o),
(326,527,qs),
(337,514,o),
(344,498,qs),
(347,491,o),
(355,491,o),
(358,498,cs),
(365,517,o),
(378,531,qs),
(404,560,o),
(446,560,qs),
(503,560,o),
(567,495,o),
(567,440,qs),
(567,54,ls),
(567,11,o),
(541,-10,o),
(498,-10,cs),
(455,-10,o),
(428,12,o),
(428,55,cs),
(428,393,ls),
(428,410,o),
(410,436,o),
(395,436,qs),
(380,436,o),
(365,410,o),
(365,393,qs),
(365,49,ls),
(365,9,o),
(340,-10,o),
(300,-10,cs),
(260,-10,o),
(235,9,o),
(235,49,cs),
(235,393,ls),
(235,410,o),
(220,436,o),
(205,436,qs),
(190,436,o),
(173,410,o),
(173,393,qs),
(173,55,ls),
(173,12,o),
(146,-10,o),
(103,-10,cs)
);
}
);
width = 600;
},
{
layerId = "BD6112AA-D71A-4C36-8E9B-0F516311C436";
shapes = (
{
closed = 1;
nodes = (
(74,0,o),
(55,14,o),
(55,42,cs),
(55,521,ls),
(55,547,o),
(73,560,o),
(99,560,cs),
(125,560,o),
(138,547,o),
(138,521,cs),
(138,502,ls),
(138,497,o),
(143,497,o),
(144,501,cs),
(150,518,o),
(163,532,qs),
(188,560,o),
(230,560,qs),
(278,560,o),
(307,524,qs),
(315,514,o),
(321,502,qs),
(325,493,o),
(333,495,o),
(336,503,cs),
(343,520,o),
(355,533,qs),
(381,560,o),
(424,560,qs),
(477,560,o),
(545,491,o),
(545,418,qs),
(545,42,ls),
(545,14,o),
(526,0,o),
(498,0,cs),
(470,0,o),
(451,14,o),
(451,42,cs),
(451,409,ls),
(451,442,o),
(424,481,o),
(396,481,qs),
(369,481,o),
(342,443,o),
(342,410,qs),
(342,37,ls),
(342,12,o),
(325,0,o),
(300,0,cs),
(275,0,o),
(258,12,o),
(258,37,cs),
(258,409,ls),
(258,442,o),
(231,481,o),
(204,481,qs),
(176,481,o),
(149,443,o),
(149,410,qs),
(149,42,ls),
(149,14,o),
(130,0,o),
(102,0,cs)
);
}
);
width = 600;
},
{
layerId = "6081C699-E88C-443F-8307-DAA77428180B";
shapes = (
{
closed = 1;
nodes = (
(84,-10,o),
(75,-1,o),
(75,15,cs),
(75,538,ls),
(75,553,o),
(82,560,o),
(97,560,cs),
(112,560,o),
(119,553,o),
(119,538,cs),
(119,496,ls),
(119,492,o),
(123,492,o),
(124,495,cs),
(132,518,o),
(147,534,qs),
(173,560,o),
(216,560,qs),
(260,561,o),
(288,534,qs),
(304,520,o),
(312,499,qs),
(314,493,o),
(321,493,o),
(323,499,cs),
(330,519,o),
(344,534,qs),
(370,560,o),
(416,560,qs),
(466,560,o),
(525,490,o),
(525,431,qs),
(525,14,ls),
(525,-2,o),
(517,-10,o),
(501,-10,cs),
(485,-10,o),
(476,-2,o),
(476,14,cs),
(476,420,ls),
(476,463,o),
(436,513,o),
(401,513,qs),
(366,513,o),
(324,463,o),
(324,420,qs),
(324,14,ls),
(324,-2,o),
(316,-10,o),
(300,-10,cs),
(284,-10,o),
(276,-2,o),
(276,14,cs),
(276,420,ls),
(276,463,o),
(236,513,o),
(201,513,qs),
(166,513,o),
(124,463,o),
(124,420,qs),
(124,14,ls),
(124,-2,o),
(116,-10,o),
(100,-10,cs)
);
}
);
width = 600;
}
);
unicode = 109;
},
{
glyphname = n;
layers = (
{
layerId = "3D30E2C5-0B1E-4C3D-8621-C00C1C908D18";
shapes = (
{
closed = 1;
nodes = (
(66,487,ls),
(66,536,o),
(90,560,o),
(139,560,c),
(188,560,o),
(211,537,o),
(211,488,cs),
(211,488,ls),
(211,480,o),
(218,480,o),
(221,486,cs),
(234,505,o),
(250,519,qs),
(294,557,o),
(359,560,qs),
(439,560,o),
(536,448,o),
(536,355,qs),
(536,65,ls),
(536,15,o),
(511,-10,o),
(461,-10,c),
(411,-10,o),
(386,15,o),
(386,65,cs),
(386,330,ls),
(386,373,o),
(351,420,o),
(311,420,qs),
(281,420,o),
(216,363,o),
(216,310,qs),
(216,65,ls),
(216,15,o),
(191,-10,o),
(141,-10,c),
(91,-10,o),
(66,15,o),
(66,65,cs)
);
}
);
width = 600;
},
{
layerId = "BD6112AA-D71A-4C36-8E9B-0F516311C436";
shapes = (
{
closed = 1;
nodes = (
(92,515,ls),
(92,545,o),
(107,560,o),
(137,560,cs),
(167,560,o),
(182,545,o),
(182,515,cs),
(182,482,ls),
(182,478,o),
(186,478,o),
(187,481,cs),
(199,509,o),
(221,525,qs),
(263,556,o),
(329,560,qs),
(412,560,o),
(510,458,o),
(510,370,qs),
(510,35,ls),
(510,5,o),
(495,-10,o),
(465,-10,cs),
(435,-10,o),
(420,5,o),
(420,35,cs),
(420,344,ls),
(420,407,o),
(357,474,o),
(303,474,qs),
(257,474,o),
(182,394,o),
(182,330,qs),
(182,35,ls),
(182,5,o),
(167,-10,o),
(137,-10,cs),
(107,-10,o),
(92,5,o),
(92,35,cs)
);
}
);
width = 600;
},
{
layerId = "6081C699-E88C-443F-8307-DAA77428180B";
shapes = (
{
closed = 1;
nodes = (
(110,535,ls),
(110,552,o),
(118,560,o),
(135,560,cs),
(152,560,o),
(160,552,o),
(160,535,cs),
(160,490,ls),
(160,484,o),
(164,484,o),
(167,489,cs),
(181,506,o),
(196,518,qs),
(243,556,o),
(313,560,qs),
(394,560,o),
(492,456,o),
(492,367,qs),
(492,15,ls),
(492,-2,o),
(484,-10,o),
(467,-10,cs),
(450,-10,o),
(442,-2,o),
(442,15,cs),
(442,355,ls),
(442,429,o),
(368,512,o),
(303,512,qs),
(247,512,o),
(160,418,o),
(160,345,qs),
(160,15,ls),
(160,-2,o),
(152,-10,o),
(135,-10,cs),
(118,-10,o),
(110,-2,o),
(110,15,cs)
);
}
);
width = 600;
}
);
unicode = 110;
},
{
glyphname = o;
layers = (
{
layerId = "3D30E2C5-0B1E-4C3D-8621-C00C1C908D18";
shapes = (
{
closed = 1;
nodes = (
(135,-10,o),
(55,123,o),
(55,275,cs),
(55,427,o),
(135,560,o),
(300,560,cs),
(465,560,o),
(545,429,o),
(545,275,cs),
(545,123,o),
(465,-10,o),
(300,-10,cs)
);
},
{
closed = 1;
nodes = (
(365,115,o),
(395,190,o),
(395,275,cs),
(395,362,o),
(365,435,o),
(300,435,cs),
(235,435,o),
(205,360,o),
(205,275,cs),
(205,190,o),
(235,115,o),
(300,115,cs)
);
}
);
width = 600;
},
{
layerId = "BD6112AA-D71A-4C36-8E9B-0F516311C436";
shapes = (
{
closed = 1;
nodes = (
(150,-10,o),
(78,118,o),
(78,275,cs),
(78,432,o),
(150,560,o),
(300,560,cs),
(463,560,o),
(522,434,o),
(522,275,cs),
(522,118,o),
(459,-10,o),
(300,-10,cs)
);
},
{
closed = 1;
nodes = (
(399,80,o),
(432,167,o),
(432,275,cs),
(432,384,o),
(401,470,o),
(300,470,cs),
(211,470,o),
(168,382,o),
(168,275,cs),
(168,167,o),
(211,80,o),
(300,80,cs)
);
}
);
width = 600;
},
{
layerId = "6081C699-E88C-443F-8307-DAA77428180B";
shapes = (
{
closed = 1;
nodes = (
(166,-10,o),
(91,108,o),
(91,275,cs),
(91,442,o),
(166,560,o),
(300,560,cs),
(438,560,o),
(509,444,o),
(509,275,cs),
(509,108,o),
(433,-10,o),
(300,-10,cs)
);
},
{
closed = 1;
nodes = (
(401,40,o),
(459,137,o),
(459,275,cs),
(459,415,o),
(405,510,o),
(300,510,cs),
(198,510,o),
(141,413,o),
(141,275,cs),
(141,137,o),
(198,40,o),
(300,40,cs)
);
}
);
width = 600;
}
);
unicode = 111;
},
{
glyphname = r;
layers = (
{
layerId = "3D30E2C5-0B1E-4C3D-8621-C00C1C908D18";
shapes = (
{
closed = 1;
nodes = (
(111,-10,o),
(86,15,o),
(86,65,cs),
(86,487,ls),
(86,536,o),
(110,560,o),
(159,560,cs),
(208,560,o),
(231,537,o),
(231,488,cs),
(231,487,ls),
(231,481,o),
(236,482,o),
(239,486,cs),
(253,506,o),
(267,517,qs),
(319,560,o),
(385,560,qs),
(468,560,o),
(562,452,o),
(562,390,qs),
(562,380,ls),
(562,330,o),
(537,305,o),
(487,305,cs),
(437,305,o),
(412,323,o),
(412,373,cs),
(412,376,ls),
(412,394,o),
(382,425,o),
(345,425,qs),
(306,425,o),
(236,350,o),
(236,298,qs),
(236,65,ls),
(236,15,o),
(211,-10,o),
(161,-10,cs)
);
}
);
width = 600;
},
{
layerId = "BD6112AA-D71A-4C36-8E9B-0F516311C436";
shapes = (
{
closed = 1;
nodes = (
(127,-10,o),
(112,5,o),
(112,35,cs),
(112,515,ls),
(112,545,o),
(127,560,o),
(157,560,cs),
(187,560,o),
(202,545,o),
(202,515,cs),
(202,488,ls),
(202,484,o),
(204,484,o),
(207,487,cs),
(224,508,o),
(242,523,qs),
(286,560,o),
(351,560,qs),
(437,559,o),
(530,457,o),
(530,392,qs),
(530,380,ls),
(530,350,o),
(515,335,o),
(485,335,cs),
(455,335,o),
(440,350,o),
(440,380,cs),
(440,392,ls),
(440,429,o),
(382,475,o),
(339,475,qs),
(280,475,o),
(202,381,o),
(202,330,qs),
(202,35,ls),
(202,5,o),
(187,-10,o),
(157,-10,cs)
);
}
);
width = 600;
},
{
layerId = "6081C699-E88C-443F-8307-DAA77428180B";
shapes = (
{
closed = 1;
nodes = (
(140,-10,o),
(132,-2,o),
(132,15,cs),
(132,535,ls),
(132,552,o),
(140,560,o),
(157,560,cs),
(174,560,o),
(182,552,o),
(182,535,cs),
(182,489,ls),
(182,483,o),
(185,484,o),
(188,488,cs),
(201,504,o),
(214,516,qs),
(260,560,o),
(328,560,qs),
(419,560,o),
(508,458,o),
(508,395,qs),
(508,380,ls),
(508,363,o),
(500,355,o),
(483,355,cs),
(466,355,o),
(458,363,o),
(458,380,cs),
(458,395,ls),
(458,439,o),
(388,510,o),
(320,510,qs),
(263,510,o),
(182,425,o),
(182,350,qs),
(182,15,ls),
(182,-2,o),
(174,-10,o),
(157,-10,cs)
);
}
);
width = 591;
}
);
unicode = 114;
},
{
glyphname = s;
layers = (
{
layerId = "3D30E2C5-0B1E-4C3D-8621-C00C1C908D18";
shapes = (
{
closed = 1;
nodes = (
(227,-10,o),
(128,33,o),
(99,71,qs),
(95,76,o),
(92,81,qs),
(61,129,o),
(95,170,o),
(162,170,cs),
(199,170,o),
(208,136,o),
(241,120,cs),
(243,119,o),
(245,118,qs),
(273,104,o),
(300,104,qs),
(331,104,o),
(380,137,o),
(380,158,qs),
(380,179,o),
(351,202,o),
(314,213,qs),
(233,238,ls),
(161,260,o),
(90,325,o),
(90,393,qs),
(90,476,o),
(214,560,o),
(305,560,qs),
(386,560,o),
(455,516,qs),
(482,499,o),
(498,476,qs),
(530,430,o),
(499,388,o),
(432,388,cs),
(411,388,o),
(394,397,o),
(382,411,cs),
(372,423,o),
(370,425,o),
(353,435,cs),
(329,449,o),
(305,448,qs),
(275,447,o),
(240,418,o),
(240,399,qs),
(240,380,o),
(260,364,o),
(292,353,qs),
(367,328,ls),
(445,302,o),
(530,237,o),
(530,160,qs),
(530,79,o),
(413,-10,o),
(300,-10,qs)
);
}
);
width = 600;
},
{
layerId = "BD6112AA-D71A-4C36-8E9B-0F516311C436";
shapes = (
{
closed = 1;
nodes = (
(225,-10,o),
(135,28,o),
(109,63,qs),
(96,81,o),
(92,98,qs),
(84,132,o),
(101,151,o),
(139,151,cs),
(165,151,o),
(165,136,o),
(185,116,cs),
(201,100,o),
(214,94,qs),
(245,80,o),
(300,80,qs),
(365,80,o),
(420,119,o),
(420,154,qs),
(420,185,o),
(390,220,o),
(357,228,qs),
(220,262,ls),
(167,275,o),
(112,341,o),
(112,404,qs),
(112,476,o),
(213,559,o),
(300,560,qs),
(387,561,o),
(443,519,qs),
(473,497,o),
(489,468,qs),
(505,438,o),
(487,415,o),
(448,415,cs),
(434,415,o),
(415,421,o),
(401,437,cs),
(392,447,o),
(371,460,o),
(357,463,cs),
(326,470,o),
(300,470,qs),
(253,470,o),
(202,430,o),
(202,404,qs),
(202,382,o),
(221,350,o),
(243,344,qs),
(370,312,ls),
(439,295,o),
(510,220,o),
(510,154,qs),
(510,82,o),
(407,-10,o),
(300,-10,qs)
);
}
);
width = 600;
},
{
layerId = "6081C699-E88C-443F-8307-DAA77428180B";
shapes = (
{
closed = 1;
nodes = (
(230,-10,o),
(153,27,o),
(129,60,qs),
(114,81,o),
(106,106,qs),
(100,125,o),
(109,135,o),
(130,135,cs),
(143,135,o),
(153,129,o),
(159,116,cs),
(176,82,o),
(200,64,qs),
(233,40,o),
(300,40,qs),
(365,40,o),
(449,96,o),
(449,140,qs),
(449,178,o),
(398,237,o),
(356,248,qs),
(255,275,ls),
(186,293,o),
(120,352,o),
(120,411,qs),
(120,477,o),
(211,560,o),
(300,560,qs),
(385,560,o),
(435,523,qs),
(473,495,o),
(486,454,qs),
(492,436,o),
(483,425,o),
(462,425,cs),
(450,425,o),
(441,430,o),
(435,444,cs),
(427,462,o),
(408,481,o),
(392,490,cs),
(356,509,o),
(300,510,qs),
(234,511,o),
(171,454,o),
(171,412,qs),
(171,375,o),
(212,338,o),
(263,324,qs),
(362,297,ls),
(425,280,o),
(500,206,o),
(500,147,qs),
(500,78,o),
(387,-10,o),
(300,-10,qs)
);
}
);
width = 600;
}
);
unicode = 115;
},
{
glyphname = t;
layers = (
{
layerId = "3D30E2C5-0B1E-4C3D-8621-C00C1C908D18";
shapes = (
{
closed = 1;
nodes = (
(175,214,ls),
(175,69,o),
(233,-10,o),
(372,-10,cs),
(429,-10,o),
(544,1,o),
(544,80,cs),
(544,120,o),
(516,148,o),
(476,148,cs),
(464,148,o),
(454,144,o),
(443,139,cs),
(436,136,o),
(417,132,o),
(398,132,cs),
(350,132,o),
(325,168,o),
(325,230,cs),
(325,370,ls),
(325,387,o),
(333,395,o),
(350,395,cs),
(472,395,ls),
(517,395,o),
(540,418,o),
(540,463,cs),
(540,508,o),
(517,530,o),
(472,530,cs),
(350,530,ls),
(333,530,o),
(325,538,o),
(325,555,cs),
(325,630,ls),
(325,680,o),
(300,705,o),
(250,705,cs),
(200,705,o),
(175,680,o),
(175,630,cs),
(175,555,ls),
(175,538,o),
(167,530,o),
(150,530,cs),
(96,530,ls),
(50,530,o),
(27,507,o),
(27,461,cs),
(27,417,o),
(49,395,o),
(93,395,cs),
(151,395,ls),
(167,395,o),
(175,386,o),
(175,371,cs)
);
}
);
width = 600;
},
{
layerId = "BD6112AA-D71A-4C36-8E9B-0F516311C436";
shapes = (
{
closed = 1;
nodes = (
(205,207,ls),
(205,67,o),
(246,-10,o),
(375,-10,cs),
(426,-10,o),
(531,-2,o),
(531,56,cs),
(531,81,o),
(514,99,o),
(489,99,cs),
(480,99,o),
(475,96,o),
(467,92,cs),
(456,87,o),
(422,80,o),
(392,80,cs),
(311,80,o),
(295,148,o),
(295,224,cs),
(295,420,ls),
(295,433,o),
(302,440,o),
(315,440,cs),
(479,440,ls),
(506,440,o),
(520,458,o),
(520,485,cs),
(520,512,o),
(506,530,o),
(479,530,cs),
(315,530,ls),
(302,530,o),
(295,537,o),
(295,550,cs),
(295,660,ls),
(295,690,o),
(280,705,o),
(250,705,cs),
(220,705,o),
(205,690,o),
(205,660,cs),
(205,550,ls),
(205,537,o),
(198,530,o),
(185,530,cs),
(88,530,ls),
(61,530,o),
(47,512,o),
(47,485,cs),
(47,458,o),
(61,440,o),
(88,440,cs),
(185,440,ls),
(198,440,o),
(205,433,o),
(205,420,cs)
);
}
);
width = 600;
},
{
layerId = "6081C699-E88C-443F-8307-DAA77428180B";
shapes = (
{
closed = 1;
nodes = (
(225,202,ls),
(225,34,o),
(301,-10,o),
(384,-10,cs),
(432,-10,o),
(520,-5,o),
(520,40,cs),
(520,55,o),
(510,66,o),
(495,66,cs),
(492,66,o),
(488,65,o),
(482,62,cs),
(468,56,o),
(441,45,o),
(403,45,cs),
(299,45,o),
(275,110,o),
(275,220,cs),
(275,465,ls),
(275,475,o),
(280,480,o),
(290,480,cs),
(482,480,ls),
(497,480,o),
(505,490,o),
(505,505,cs),
(505,520,o),
(497,530,o),
(482,530,cs),
(290,530,ls),
(280,530,o),
(275,535,o),
(275,545,cs),
(275,680,ls),
(275,697,o),
(267,705,o),
(250,705,cs),
(233,705,o),
(225,697,o),
(225,680,cs),
(225,545,ls),
(225,535,o),
(220,530,o),
(210,530,cs),
(85,530,ls),
(70,530,o),
(62,520,o),
(62,505,cs),
(62,490,o),
(70,480,o),
(85,480,cs),
(210,480,ls),
(220,480,o),
(225,474,o),
(225,465,cs)
);
}
);
width = 600;
}
);
unicode = 116;
},
{
glyphname = u;
layers = (
{
layerId = "3D30E2C5-0B1E-4C3D-8621-C00C1C908D18";
shapes = (
{
closed = 1;
nodes = (
(536,63,ls),
(536,14,o),
(512,-10,o),
(463,-10,c),
(414,-10,o),
(391,13,o),
(391,62,cs),
(391,62,ls),
(391,70,o),
(384,70,o),
(381,64,cs),
(368,45,o),
(352,31,qs),
(308,-7,o),
(243,-10,qs),
(163,-10,o),
(66,102,o),
(66,195,qs),
(66,485,ls),
(66,535,o),
(91,560,o),
(141,560,c),
(191,560,o),
(216,535,o),
(216,485,cs),
(216,220,ls),
(216,177,o),
(251,130,o),
(291,130,qs),
(321,130,o),
(386,187,o),
(386,240,qs),
(386,485,ls),
(386,535,o),
(411,560,o),
(461,560,c),
(511,560,o),
(536,535,o),
(536,485,cs)
);
}
);
width = 600;
},
{
layerId = "BD6112AA-D71A-4C36-8E9B-0F516311C436";
shapes = (
{
closed = 1;
nodes = (
(510,35,ls),
(510,5,o),
(495,-10,o),
(465,-10,cs),
(435,-10,o),
(420,5,o),
(420,35,cs),
(420,68,ls),
(420,72,o),
(416,72,o),
(415,69,cs),
(403,41,o),
(381,25,qs),
(339,-6,o),
(273,-10,qs),
(190,-10,o),
(92,92,o),
(92,180,qs),
(92,515,ls),
(92,545,o),
(107,560,o),
(137,560,cs),
(167,560,o),
(182,545,o),
(182,515,cs),
(182,206,ls),
(182,143,o),
(245,76,o),
(299,76,qs),
(345,76,o),
(420,156,o),
(420,220,qs),
(420,515,ls),
(420,545,o),
(435,560,o),
(465,560,cs),
(495,560,o),
(510,545,o),
(510,515,cs)
);
}
);
width = 600;
},
{
layerId = "6081C699-E88C-443F-8307-DAA77428180B";
shapes = (
{
closed = 1;
nodes = (
(492,15,ls),
(492,-2,o),
(484,-10,o),
(467,-10,cs),
(450,-10,o),
(442,-2,o),
(442,15,cs),
(442,60,ls),
(442,66,o),
(438,66,o),
(435,61,cs),
(421,44,o),
(406,32,qs),
(359,-6,o),
(289,-10,qs),
(208,-10,o),
(110,94,o),
(110,183,qs),
(110,535,ls),
(110,552,o),
(118,560,o),
(135,560,cs),
(152,560,o),
(160,552,o),
(160,535,cs),
(160,195,ls),
(160,121,o),
(234,38,o),
(299,38,qs),
(355,38,o),
(442,132,o),
(442,205,qs),
(442,535,ls),
(442,552,o),
(450,560,o),
(467,560,cs),
(484,560,o),
(492,552,o),
(492,535,cs)
);
}
);
width = 600;
}
);
unicode = 117;
},
{
glyphname = v;
layers = (
{
layerId = "3D30E2C5-0B1E-4C3D-8621-C00C1C908D18";
shapes = (
{
closed = 1;
nodes = (
(206,62,ls),
(223,15,o),
(250,-10,o),
(300,-10,cs),
(350,-10,o),
(377,15,o),
(394,62,cs),
(544,482,ls),
(562,532,o),
(518,560,o),
(484,560,cs),
(448,560,o),
(423,540,o),
(412,508,cs),
(319,243,ls),
(311,220,o),
(289,220,o),
(281,243,cs),
(188,508,ls),
(177,540,o),
(152,560,o),
(116,560,cs),
(82,560,o),
(38,532,o),
(56,482,cs)
);
}
);
width = 600;
},
{
layerId = "BD6112AA-D71A-4C36-8E9B-0F516311C436";
shapes = (
{
closed = 1;
nodes = (
(237,38,ls),
(248,6,o),
(267,-10,o),
(300,-10,cs),
(334,-10,o),
(352,6,o),
(363,38,cs),
(526,508,ls),
(535,534,o),
(517,560,o),
(486,560,cs),
(462,560,o),
(444,548,o),
(436,525,cs),
(315,185,ls),
(308,165,o),
(292,165,o),
(285,185,cs),
(164,525,ls),
(156,548,o),
(138,560,o),
(114,560,cs),
(83,560,o),
(65,534,o),
(74,508,cs)
);
}
);
width = 600;
},
{
layerId = "6081C699-E88C-443F-8307-DAA77428180B";
shapes = (
{
closed = 1;
nodes = (
(262,19,ls),
(269,0,o),
(280,-10,o),
(300,-10,cs),
(320,-10,o),
(331,0,o),
(338,19,cs),
(512,531,ls),
(517,547,o),
(500,560,o),
(490,560,cs),
(477,560,o),
(464,554,o),
(460,541,cs),
(310,100,ls),
(304,83,o),
(296,83,o),
(290,100,cs),
(140,541,ls),
(136,554,o),
(123,560,o),
(110,560,cs),
(100,560,o),
(83,547,o),
(88,531,cs)
);
}
);
width = 600;
}
);
unicode = 118;
},
{
glyphname = w;
layers = (
{
layerId = "3D30E2C5-0B1E-4C3D-8621-C00C1C908D18";
shapes = (
{
closed = 1;
nodes = (
(7,490,ls),
(0,537,o),
(23,560,o),
(70,560,cs),
(110,560,o),
(129,540,o),
(134,500,cs),
(167,225,ls),
(169,211,o),
(176,209,o),
(182,224,cs),
(234,365,ls),
(247,401,o),
(262,420,o),
(300,420,cs),
(338,420,o),
(353,401,o),
(366,365,cs),
(418,224,ls),
(424,209,o),
(431,210,o),
(433,225,cs),
(466,508,ls),
(470,543,o),
(487,560,o),
(522,560,cs),
(574,560,o),
(599,534,o),
(591,482,cs),
(526,71,ls),
(517,17,o),
(490,-10,o),
(436,-10,cs),
(382,-10,o),
(362,18,o),
(343,70,cs),
(309,161,ls),
(304,175,o),
(297,176,o),
(291,161,cs),
(257,73,ls),
(237,21,o),
(218,-10,o),
(162,-10,cs),
(106,-10,o),
(77,17,o),
(69,73,cs)
);
}
);
width = 600;
},
{
layerId = "BD6112AA-D71A-4C36-8E9B-0F516311C436";
shapes = (
{
closed = 1;
nodes = (
(17,505,ls),
(11,542,o),
(29,560,o),
(66,560,cs),
(91,560,o),
(103,548,o),
(107,523,cs),
(167,145,ls),
(169,133,o),
(174,132,o),
(178,144,cs),
(244,373,ls),
(253,405,o),
(268,420,o),
(300,420,cs),
(332,420,o),
(347,405,o),
(356,373,cs),
(422,145,ls),
(425,134,o),
(431,134,o),
(433,146,cs),
(493,523,ls),
(497,548,o),
(509,560,o),
(534,560,cs),
(571,560,o),
(589,542,o),
(583,505,cs),
(504,50,ls),
(497,10,o),
(477,-10,o),
(436,-10,cs),
(395,-10,o),
(376,11,o),
(365,50,cs),
(307,251,ls),
(304,262,o),
(296,262,o),
(293,251,cs),
(235,51,ls),
(223,11,o),
(205,-10,o),
(164,-10,cs),
(123,-10,o),
(102,10,o),
(95,51,cs)
);
}
);
width = 600;
},
{
layerId = "6081C699-E88C-443F-8307-DAA77428180B";
shapes = (
{
closed = 1;
nodes = (
(39,530,ls),
(36,550,o),
(45,560,o),
(66,560,cs),
(80,560,o),
(86,554,o),
(88,540,cs),
(169,55,ls),
(170,50,o),
(173,49,o),
(175,55,cs),
(262,389,ls),
(268,411,o),
(279,420,o),
(300,420,cs),
(321,420,o),
(332,411,o),
(338,389,cs),
(427,55,ls),
(428,50,o),
(432,50,o),
(433,55,cs),
(512,540,ls),
(514,554,o),
(520,560,o),
(534,560,cs),
(555,560,o),
(564,550,o),
(561,530,cs),
(475,27,ls),
(471,2,o),
(458,-10,o),
(433,-10,cs),
(408,-10,o),
(395,2,o),
(388,27,cs),
(304,335,ls),
(303,340,o),
(297,340,o),
(296,335,cs),
(212,27,ls),
(205,2,o),
(193,-10,o),
(168,-10,cs),
(143,-10,o),
(129,2,o),
(125,27,cs)
);
}
);
width = 600;
}
);
unicode = 119;
},
{
glyphname = x;
layers = (
{
layerId = "3D30E2C5-0B1E-4C3D-8621-C00C1C908D18";
shapes = (
{
closed = 1;
nodes = (
(215,285,l),
(99,466,ls),
(59,529,o),
(105,560,o),
(150,560,cs),
(187,560,o),
(215,544,o),
(234,512,cs),
(300,400,l),
(366,512,ls),
(385,544,o),
(413,560,o),
(450,560,cs),
(495,560,o),
(541,529,o),
(501,466,cs),
(385,285,l),
(514,84,ls),
(554,21,o),
(508,-10,o),
(463,-10,cs),
(426,-10,o),
(398,6,o),
(379,38,cs),
(300,175,l),
(221,38,ls),
(202,6,o),
(174,-10,o),
(137,-10,cs),
(92,-10,o),
(46,21,o),
(86,84,cs)
);
}
);
width = 600;
},
{
layerId = "BD6112AA-D71A-4C36-8E9B-0F516311C436";
shapes = (
{
closed = 1;
nodes = (
(245,290,l),
(101,501,ls),
(74,541,o),
(106,560,o),
(133,560,cs),
(157,560,o),
(173,550,o),
(186,530,cs),
(300,360,l),
(413,530,ls),
(426,550,o),
(444,560,o),
(468,560,cs),
(496,560,o),
(527,540,o),
(500,500,cs),
(356,290,l),
(511,49,ls),
(536,10,o),
(506,-10,o),
(479,-10,cs),
(455,-10,o),
(438,0,o),
(425,20,cs),
(300,215,l),
(175,20,ls),
(162,0,o),
(145,-10,o),
(121,-10,cs),
(94,-10,o),
(64,10,o),
(89,49,cs)
);
}
);
width = 600;
},
{
layerId = "6081C699-E88C-443F-8307-DAA77428180B";
shapes = (
{
closed = 1;
nodes = (
(269,285,l),
(109,527,ls),
(95,549,o),
(110,560,o),
(126,560,cs),
(139,560,o),
(150,554,o),
(157,543,cs),
(300,325,l),
(443,543,ls),
(450,554,o),
(461,560,o),
(474,560,cs),
(491,560,o),
(507,548,o),
(492,526,cs),
(331,285,l),
(504,22,ls),
(518,0,o),
(502,-10,o),
(486,-10,cs),
(473,-10,o),
(463,-5,o),
(456,6,cs),
(300,245,l),
(144,6,ls),
(137,-5,o),
(127,-10,o),
(114,-10,cs),
(98,-10,o),
(82,0,o),
(96,22,cs)
);
}
);
width = 600;
}
);
unicode = 120;
},
{
glyphname = y;
layers = (
{
layerId = "3D30E2C5-0B1E-4C3D-8621-C00C1C908D18";
shapes = (
{
closed = 1;
nodes = (
(60,-166,o),
(78,-147,o),
(125,-136,cs),
(139,-133,o),
(153,-127,o),
(165,-116,cs),
(202,-84,o),
(211,-65,o),
(225,-29,cs),
(232,-10,o),
(232,8,o),
(225,27,cs),
(70,454,ls),
(47,518,o),
(69,550,o),
(137,550,cs),
(160,550,o),
(174,539,o),
(182,518,cs),
(296,198,ls),
(303,179,o),
(310,179,o),
(316,198,cs),
(424,517,ls),
(432,539,o),
(447,550,o),
(470,550,cs),
(540,550,o),
(563,518,o),
(541,451,cs),
(386,-10,ls),
(367,-66,o),
(329,-177,o),
(275,-217,cs),
(223,-256,o),
(169,-267,o),
(125,-270,cs),
(83,-273,o),
(60,-250,o),
(60,-205,cs)
);
}
);
width = 600;
},
{
layerId = "BD6112AA-D71A-4C36-8E9B-0F516311C436";
shapes = (
{
closed = 1;
nodes = (
(80,-156,o),
(94,-141,o),
(125,-139,cs),
(148,-137,o),
(172,-132,o),
(190,-116,cs),
(228,-83,o),
(237,-56,o),
(252,-14,cs),
(258,2,o),
(257,17,o),
(251,33,cs),
(85,483,ls),
(68,528,o),
(83,550,o),
(131,550,cs),
(147,550,o),
(158,543,o),
(163,528,cs),
(298,164,ls),
(304,148,o),
(308,148,o),
(314,164,cs),
(447,528,ls),
(452,543,o),
(463,550,o),
(479,550,cs),
(527,550,o),
(542,528,o),
(526,483,cs),
(354,-10,ls),
(334,-66,o),
(288,-160,o),
(240,-195,cs),
(208,-218,o),
(163,-226,o),
(125,-229,cs),
(95,-231,o),
(80,-216,o),
(80,-185,cs)
);
}
);
width = 600;
},
{
layerId = "6081C699-E88C-443F-8307-DAA77428180B";
shapes = (
{
closed = 1;
nodes = (
(100,-148,o),
(108,-140,o),
(125,-140,cs),
(150,-140,o),
(177,-136,o),
(200,-116,cs),
(240,-81,o),
(255,-30,o),
(273,20,cs),
(278,33,o),
(278,46,o),
(273,58,cs),
(90,514,ls),
(80,538,o),
(89,550,o),
(115,550,cs),
(124,550,o),
(130,546,o),
(133,538,cs),
(299,129,ls),
(304,117,o),
(308,116,o),
(313,129,cs),
(470,538,ls),
(473,546,o),
(479,550,o),
(487,550,cs),
(512,550,o),
(520,539,o),
(511,515,cs),
(314,-10,ls),
(293,-66,o),
(274,-125,o),
(230,-160,cs),
(195,-188,o),
(160,-190,o),
(125,-190,cs),
(108,-190,o),
(100,-182,o),
(100,-165,cs)
);
}
);
width = 600;
}
);
unicode = 121;
},
{
glyphname = z;
layers = (
{
layerId = "3D30E2C5-0B1E-4C3D-8621-C00C1C908D18";
shapes = (
{
closed = 1;
nodes = (
(157,0,ls),
(99,0,o),
(70,29,o),
(70,87,cs),
(70,116,o),
(80,141,o),
(100,162,cs),
(301,376,ls),
(329,405,o),
(322,420,o),
(282,420,cs),
(145,420,ls),
(101,420,o),
(80,441,o),
(80,485,cs),
(80,529,o),
(101,550,o),
(145,550,cs),
(432,550,ls),
(490,550,o),
(519,521,o),
(519,463,cs),
(519,434,o),
(509,409,o),
(489,388,cs),
(288,174,ls),
(260,145,o),
(267,130,o),
(307,130,cs),
(465,130,ls),
(509,130,o),
(530,109,o),
(530,65,cs),
(530,21,o),
(509,0,o),
(465,0,cs)
);
}
);
width = 600;
},
{
layerId = "BD6112AA-D71A-4C36-8E9B-0F516311C436";
shapes = (
{
closed = 1;
nodes = (
(150,0,ls),
(110,0,o),
(90,20,o),
(90,60,cs),
(90,80,o),
(96,97,o),
(109,113,cs),
(373,437,ls),
(390,458,o),
(385,468,o),
(358,468,cs),
(139,468,ls),
(112,468,o),
(98,482,o),
(98,509,cs),
(98,536,o),
(112,550,o),
(139,550,cs),
(439,550,ls),
(479,550,o),
(499,530,o),
(499,490,cs),
(499,470,o),
(493,452,o),
(480,437,cs),
(211,113,ls),
(194,92,o),
(198,82,o),
(225,82,cs),
(469,82,ls),
(496,82,o),
(510,68,o),
(510,41,cs),
(510,14,o),
(496,0,o),
(469,0,cs)
);
}
);
width = 600;
},
{
layerId = "6081C699-E88C-443F-8307-DAA77428180B";
shapes = (
{
closed = 1;
nodes = (
(134,0,ls),
(113,0,o),
(103,10,o),
(103,31,cs),
(103,41,o),
(106,51,o),
(112,59,cs),
(410,480,ls),
(422,496,o),
(417,505,o),
(397,505,cs),
(135,505,ls),
(120,505,o),
(112,513,o),
(112,528,cs),
(112,543,o),
(119,550,o),
(134,550,cs),
(453,550,ls),
(474,550,o),
(484,540,o),
(484,519,cs),
(484,509,o),
(481,499,o),
(475,490,cs),
(176,69,ls),
(164,53,o),
(169,45,o),
(189,45,cs),
(474,45,ls),
(489,45,o),
(497,38,o),
(497,23,cs),
(497,8,o),
(489,0,o),
(474,0,cs)
);
}
);
width = 600;
}
);
unicode = 122;
},
{
glyphname = comma;
layers = (
{
layerId = "3D30E2C5-0B1E-4C3D-8621-C00C1C908D18";
shapes = (
{
closed = 1;
nodes = (
(151,-195,o),
(118,-175,o),
(118,-139,cs),
(118,-100,o),
(137,-84,o),
(171,-76,cs),
(185,-73,o),
(213,-69,o),
(237,-59,cs),
(272,-44,o),
(283,-25,o),
(283,-10,cs),
(283,40,o),
(211,44,o),
(211,110,cs),
(211,168,o),
(248,200,o),
(310,200,cs),
(390,200,o),
(419,114,o),
(419,36,cs),
(419,-91,o),
(325,-195,o),
(187,-195,cs)
);
}
);
width = 600;
},
{
layerId = "BD6112AA-D71A-4C36-8E9B-0F516311C436";
shapes = (
{
closed = 1;
nodes = (
(159,-169,o),
(141,-157,o),
(141,-131,cs),
(141,-112,o),
(148,-102,o),
(158,-95,cs),
(182,-78,o),
(226,-86,o),
(255,-63,cs),
(269,-51,o),
(281,-29,o),
(281,-10,cs),
(281,42,o),
(228,51,o),
(228,110,cs),
(228,153,o),
(259,177,o),
(300,177,cs),
(373,177,o),
(391,109,o),
(391,40,cs),
(391,-70,o),
(293,-169,o),
(182,-169,cs)
);
}
);
width = 600;
},
{
layerId = "6081C699-E88C-443F-8307-DAA77428180B";
shapes = (
{
closed = 1;
nodes = (
(183,-135,o),
(173,-130,o),
(173,-118,cs),
(173,-110,o),
(175,-103,o),
(184,-98,cs),
(194,-92,o),
(205,-93,o),
(220,-90,cs),
(272,-78,o),
(294,-52,o),
(294,-10,cs),
(294,45,o),
(252,22,o),
(252,83,cs),
(252,111,o),
(271,130,o),
(300,130,cs),
(345,130,o),
(361,97,o),
(361,35,cs),
(361,-70,o),
(275,-135,o),
(194,-135,cs)
);
}
);
width = 600;
}
);
unicode = 44;
},
{
glyphname = zero;
layers = (
{
layerId = "3D30E2C5-0B1E-4C3D-8621-C00C1C908D18";
shapes = (
{
closed = 1;
nodes = (
(395,115,o),
(405,283,o),
(405,365,cs),
(405,448,o),
(395,615,o),
(300,615,cs),
(206,615,o),
(195,447,o),
(195,365,cs),
(195,283,o),
(206,115,o),
(300,115,cs)
);
},
{
closed = 1;
nodes = (
(85,-10,o),
(45,208,o),
(45,365,cs),
(45,522,o),
(85,740,o),
(303,740,cs),
(519,740,o),
(555,524,o),
(555,371,cs),
(555,208,o),
(514,-10,o),
(300,-10,cs)
);
},
{
closed = 1;
nodes = (
(112,267,l),
(467,620,l),
(491,467,l),
(136,114,l)
);
}
);
width = 600;
},
{
layerId = "BD6112AA-D71A-4C36-8E9B-0F516311C436";
shapes = (
{
closed = 1;
nodes = (
(428,80,o),
(447,271,o),
(447,367,cs),
(447,460,o),
(429,650,o),
(300,650,cs),
(171,650,o),
(153,459,o),
(153,366,cs),
(153,271,o),
(172,80,o),
(300,80,cs)
);
},
{
closed = 1;
nodes = (
(100,-10,o),
(63,208,o),
(63,365,cs),
(63,522,o),
(100,740,o),
(302,740,cs),
(503,740,o),
(537,524,o),
(537,370,cs),
(537,208,o),
(499,-10,o),
(300,-10,cs)
);
},
{
closed = 1;
nodes = (
(112,247,l),
(467,600,l),
(491,487,l),
(136,134,l)
);
}
);
width = 600;
},
{
layerId = "6081C699-E88C-443F-8307-DAA77428180B";
shapes = (
{
closed = 1;
nodes = (
(453,40,o),
(484,260,o),
(484,367,cs),
(484,472,o),
(454,690,o),
(300,690,cs),
(146,690,o),
(116,470,o),
(116,365,cs),
(116,260,o),
(147,40,o),
(300,40,cs)
);
},
{
closed = 1;
nodes = (
(106,-10,o),
(66,208,o),
(66,365,cs),
(66,522,o),
(106,740,o),
(302,740,cs),
(498,740,o),
(534,524,o),
(534,371,cs),
(534,208,o),
(493,-10,o),
(300,-10,cs)
);
},
{
closed = 1;
nodes = (
(112,217,l),
(467,570,l),
(491,517,l),
(136,164,l)
);
}
);
width = 600;
}
);
unicode = 48;
},
{
glyphname = one;
layers = (
{
layerId = "3D30E2C5-0B1E-4C3D-8621-C00C1C908D18";
shapes = (
{
closed = 1;
nodes = (
(148,0,ls),
(103,0,o),
(80,23,o),
(80,68,cs),
(80,113,o),
(102,135,o),
(147,135,cs),
(239,135,ls),
(256,135,o),
(264,143,o),
(264,160,cs),
(264,518,ls),
(264,552,o),
(251,558,o),
(224,538,cs),
(186,510,ls),
(114,456,o),
(78,474,o),
(78,564,cs),
(78,594,o),
(90,618,o),
(114,636,cs),
(209,710,ls),
(236,730,o),
(265,740,o),
(299,740,cs),
(314,740,ls),
(381,740,o),
(414,707,o),
(414,640,cs),
(414,160,ls),
(414,143,o),
(422,135,o),
(439,135,cs),
(493,135,ls),
(538,135,o),
(560,113,o),
(560,68,cs),
(560,23,o),
(537,0,o),
(492,0,cs)
);
}
);
width = 600;
},
{
layerId = "BD6112AA-D71A-4C36-8E9B-0F516311C436";
shapes = (
{
closed = 1;
nodes = (
(135,0,ls),
(105,0,o),
(90,15,o),
(90,45,cs),
(90,75,o),
(105,90,o),
(135,90,cs),
(268,90,ls),
(281,90,o),
(288,97,o),
(288,110,cs),
(288,612,ls),
(288,639,o),
(278,644,o),
(257,627,cs),
(159,549,ls),
(113,512,o),
(90,523,o),
(90,582,cs),
(90,602,o),
(98,617,o),
(113,629,cs),
(223,715,ls),
(244,732,o),
(268,740,o),
(295,740,cs),
(298,740,ls),
(352,740,o),
(378,714,o),
(378,660,cs),
(378,110,ls),
(378,97,o),
(385,90,o),
(398,90,cs),
(495,90,ls),
(525,90,o),
(540,75,o),
(540,45,cs),
(540,15,o),
(525,0,o),
(495,0,cs)
);
}
);
width = 600;
},
{
layerId = "6081C699-E88C-443F-8307-DAA77428180B";
shapes = (
{
closed = 1;
nodes = (
(125,0,ls),
(108,0,o),
(100,8,o),
(100,25,cs),
(100,42,o),
(108,50,o),
(125,50,cs),
(292,50,ls),
(302,50,o),
(307,55,o),
(307,65,cs),
(307,654,ls),
(307,674,o),
(299,678,o),
(283,666,cs),
(148,563,ls),
(121,543,o),
(108,548,o),
(108,582,cs),
(108,593,o),
(112,602,o),
(121,609,cs),
(274,727,ls),
(286,736,o),
(299,740,o),
(314,740,cs),
(313,740,ls),
(342,740,o),
(357,725,o),
(357,696,cs),
(357,65,ls),
(357,55,o),
(362,50,o),
(372,50,cs),
(505,50,ls),
(522,50,o),
(530,42,o),
(530,25,cs),
(530,8,o),
(522,0,o),
(505,0,cs)
);
}
);
width = 600;
}
);
unicode = 49;
},
{
glyphname = two;
layers = (
{
layerId = "3D30E2C5-0B1E-4C3D-8621-C00C1C908D18";
shapes = (
{
closed = 1;
nodes = (
(139,553,o),
(114,555,o),
(88,591,cs),
(58,633,o),
(62,672,o),
(100,696,cs),
(161,735,o),
(230,740,o),
(290,740,cs),
(361,740,o),
(477,685,o),
(537,585,o),
(537,519,qs),
(537,461,o),
(487,351,o),
(431,297,qs),
(293,165,ls),
(269,142,o),
(273,130,o),
(307,130,cs),
(480,130,ls),
(524,130,o),
(545,109,o),
(545,65,cs),
(545,21,o),
(524,0,o),
(480,0,cs),
(158,0,ls),
(93,0,o),
(60,33,o),
(60,98,cs),
(60,120,o),
(68,138,o),
(83,153,cs),
(341,410,ls),
(363,431,o),
(384,485,o),
(384,513,qs),
(384,555,o),
(330,610,o),
(290,610,qs),
(259,610,o),
(221,602,o),
(184,580,cs)
);
}
);
width = 600;
},
{
layerId = "BD6112AA-D71A-4C36-8E9B-0F516311C436";
shapes = (
{
closed = 1;
nodes = (
(131,600,o),
(113,604,o),
(97,628,cs),
(79,654,o),
(83,678,o),
(107,694,cs),
(161,730,o),
(230,740,o),
(290,740,cs),
(358,740,o),
(465,689,o),
(518,595,o),
(518,531,qs),
(518,479,o),
(461,365,o),
(392,293,qs),
(223,119,ls),
(204,100,o),
(208,90,o),
(235,90,cs),
(482,90,ls),
(512,90,o),
(527,75,o),
(527,45,cs),
(527,15,o),
(512,0,o),
(482,0,cs),
(136,0,ls),
(96,0,o),
(76,20,o),
(76,60,cs),
(76,80,o),
(83,98,o),
(97,112,cs),
(319,342,ls),
(372,397,o),
(426,482,o),
(426,523,qs),
(426,581,o),
(349,650,o),
(290,650,qs),
(242,650,o),
(197,641,o),
(158,617,cs)
);
}
);
width = 600;
},
{
layerId = "6081C699-E88C-443F-8307-DAA77428180B";
shapes = (
{
closed = 1;
nodes = (
(129,640,o),
(119,642,o),
(110,656,cs),
(100,671,o),
(101,686,o),
(114,696,cs),
(162,733,o),
(239,740,o),
(290,740,cs),
(353,740,o),
(457,689,o),
(510,598,o),
(510,540,qs),
(510,480,o),
(450,354,o),
(394,296,qs),
(179,72,ls),
(165,57,o),
(168,50,o),
(188,50,cs),
(495,50,ls),
(512,50,o),
(520,42,o),
(520,25,cs),
(520,8,o),
(512,0,o),
(495,0,cs),
(123,0,ls),
(101,0,o),
(90,11,o),
(90,33,cs),
(90,44,o),
(94,54,o),
(102,62,cs),
(353,324,ls),
(400,372,o),
(460,481,o),
(460,535,qs),
(460,603,o),
(363,690,o),
(290,690,qs),
(239,690,o),
(180,677,o),
(144,651,cs)
);
}
);
width = 600;
}
);
unicode = 50;
},
{
glyphname = three;
layers = (
{
layerId = "3D30E2C5-0B1E-4C3D-8621-C00C1C908D18";
shapes = (
{
closed = 1;
nodes = (
(218,-10,o),
(70,-9,o),
(70,70,cs),
(70,114,o),
(94,147,o),
(141,147,cs),
(181,147,o),
(229,125,o),
(280,125,cs),
(347,125,o),
(388,160,o),
(388,227,cs),
(388,305,o),
(278,313,o),
(220,314,cs),
(183,314,o),
(147,326,o),
(147,381,cs),
(147,433,o),
(173,449,o),
(220,449,cs),
(279,449,o),
(357,470,o),
(357,534,cs),
(357,583,o),
(305,605,o),
(258,605,cs),
(226,605,o),
(196,580,o),
(165,580,cs),
(115,580,o),
(91,607,o),
(91,655,cs),
(91,739,o),
(222,740,o),
(264,740,cs),
(382,740,o),
(507,690,o),
(507,548,cs),
(507,459,o),
(455,418,o),
(433,408,cs),
(422,403,o),
(406,394,o),
(406,386,cs),
(406,379,o),
(419,372,o),
(436,367,cs),
(486,352,o),
(538,319,o),
(538,224,cs),
(538,82,o),
(439,-10,o),
(281,-10,cs)
);
}
);
width = 600;
},
{
layerId = "BD6112AA-D71A-4C36-8E9B-0F516311C436";
shapes = (
{
closed = 1;
nodes = (
(215,-10,o),
(77,-10,o),
(77,44,cs),
(77,73,o),
(92,95,o),
(121,95,cs),
(168,95,o),
(187,80,o),
(272,80,cs),
(365,80,o),
(430,131,o),
(430,226,cs),
(430,330,o),
(280,339,o),
(205,340,cs),
(181,340,o),
(160,349,o),
(160,382,cs),
(160,414,o),
(177,424,o),
(207,424,cs),
(285,424,o),
(397,454,o),
(397,549,cs),
(397,629,o),
(317,650,o),
(249,650,cs),
(204,650,o),
(168,632,o),
(147,632,cs),
(115,632,o),
(100,650,o),
(100,681,cs),
(100,740,o),
(217,740,o),
(255,740,cs),
(367,740,o),
(487,695,o),
(487,564,cs),
(487,481,o),
(443,441,o),
(416,419,cs),
(404,409,o),
(384,403,o),
(384,394,cs),
(384,384,o),
(408,381,o),
(415,378,cs),
(474,350,o),
(520,299,o),
(520,211,cs),
(520,77,o),
(426,-10,o),
(274,-10,cs)
);
}
);
width = 600;
},
{
layerId = "6081C699-E88C-443F-8307-DAA77428180B";
shapes = (
{
closed = 1;
nodes = (
(221,-10,o),
(81,-10,o),
(81,30,cs),
(81,53,o),
(89,60,o),
(108,60,cs),
(134,60,o),
(179,40,o),
(267,40,cs),
(378,40,o),
(458,105,o),
(458,218,cs),
(458,349,o),
(295,359,o),
(196,358,cs),
(180,358,o),
(169,364,o),
(169,383,cs),
(169,403,o),
(180,408,o),
(198,408,cs),
(293,408,o),
(424,448,o),
(424,569,cs),
(424,667,o),
(326,690,o),
(242,690,cs),
(185,690,o),
(162,667,o),
(135,667,cs),
(115,667,o),
(106,679,o),
(106,698,cs),
(106,742,o),
(219,740,o),
(249,740,cs),
(355,740,o),
(474,700,o),
(474,571,cs),
(474,492,o),
(430,450,o),
(401,423,cs),
(387,410,o),
(366,402,o),
(366,392,cs),
(366,382,o),
(388,379,o),
(406,372,cs),
(470,347,o),
(508,297,o),
(508,203,cs),
(508,81,o),
(403,-10,o),
(269,-10,cs)
);
}
);
width = 600;
}
);
unicode = 51;
},
{
glyphname = four;
layers = (
{
guides = (
{
locked = 1;
position = "{0, 740}";
}
);
layerId = "3D30E2C5-0B1E-4C3D-8621-C00C1C908D18";
shapes = (
{
closed = 1;
nodes = (
(334,268,l),
(334,432,ls),
(334,466,o),
(325,468,o),
(308,439,cs),
(232,311,ls),
(215,282,o),
(222,268,o),
(256,268,cs)
);
},
{
closed = 1;
nodes = (
(334,143,l),
(134,143,ls),
(71,143,o),
(40,174,o),
(40,237,cs),
(40,258,o),
(46,277,o),
(57,295,cs),
(308,697,ls),
(326,725,o),
(351,739,o),
(384,739,cs),
(451,739,o),
(484,706,o),
(484,639,cs),
(484,268,l),
(513,268,ls),
(555,268,o),
(575,248,o),
(575,206,cs),
(575,164,o),
(555,143,o),
(513,143,cs),
(484,143,l),
(484,65,ls),
(484,15,o),
(459,-10,o),
(409,-10,cs),
(359,-10,o),
(334,15,o),
(334,65,cs)
);
}
);
width = 600;
},
{
guides = (
{
locked = 1;
position = "{0, 740}";
}
);
layerId = "BD6112AA-D71A-4C36-8E9B-0F516311C436";
shapes = (
{
closed = 1;
nodes = (
(360,255,l),
(360,538,ls),
(360,565,o),
(353,567,o),
(339,544,cs),
(186,289,ls),
(172,266,o),
(178,255,o),
(205,255,cs)
);
},
{
closed = 1;
nodes = (
(360,165,l),
(128,165,ls),
(83,165,o),
(60,188,o),
(60,233,cs),
(60,248,o),
(64,261,o),
(72,274,cs),
(344,714,ls),
(355,731,o),
(370,740,o),
(390,740,cs),
(430,740,o),
(450,720,o),
(450,680,cs),
(450,255,l),
(510,255,ls),
(540,255,o),
(555,240,o),
(555,210,cs),
(555,180,o),
(540,165,o),
(510,165,cs),
(450,165,l),
(450,35,ls),
(450,5,o),
(435,-10,o),
(405,-10,cs),
(375,-10,o),
(360,5,o),
(360,35,cs)
);
}
);
width = 600;
},
{
guides = (
{
locked = 1;
position = "{0, 740}";
}
);
layerId = "6081C699-E88C-443F-8307-DAA77428180B";
shapes = (
{
closed = 1;
nodes = (
(390,235,l),
(390,625,ls),
(390,645,o),
(384,646,o),
(374,629,cs),
(150,261,ls),
(140,244,o),
(144,235,o),
(164,235,cs)
);
},
{
closed = 1;
nodes = (
(390,185,l),
(112,185,ls),
(87,185,o),
(74,198,o),
(74,223,cs),
(74,231,o),
(77,239,o),
(81,246,cs),
(371,723,ls),
(378,734,o),
(388,740,o),
(401,740,cs),
(427,740,o),
(440,727,o),
(440,701,cs),
(440,235,l),
(510,235,ls),
(527,235,o),
(535,227,o),
(535,210,cs),
(535,193,o),
(527,185,o),
(510,185,cs),
(440,185,l),
(440,15,ls),
(440,-2,o),
(432,-10,o),
(415,-10,cs),
(398,-10,o),
(390,-2,o),
(390,15,cs)
);
}
);
width = 600;
}
);
unicode = 52;
},
{
glyphname = five;
layers = (
{
layerId = "3D30E2C5-0B1E-4C3D-8621-C00C1C908D18";
shapes = (
{
closed = 1;
nodes = (
(59,44,o),
(48,74,o),
(67,115,cs),
(85,154,o),
(112,165,o),
(155,151,cs),
(208,134,o),
(259,125,o),
(291,125,cs),
(361,125,o),
(390,182,o),
(390,229,cs),
(390,301,o),
(321,335,o),
(223,335,cs),
(200,335,ls),
(133,335,o),
(100,368,o),
(100,435,cs),
(100,630,ls),
(100,697,o),
(133,730,o),
(200,730,cs),
(463,730,ls),
(505,730,o),
(525,710,o),
(525,668,cs),
(525,626,o),
(505,605,o),
(463,605,cs),
(300,605,ls),
(266,605,o),
(250,588,o),
(250,555,cs),
(250,510,ls),
(250,477,o),
(266,460,o),
(300,458,cs),
(421,451,o),
(540,415,o),
(540,234,cs),
(540,80,o),
(453,-10,o),
(293,-10,cs),
(255,-10,o),
(192,-10,o),
(99,28,cs)
);
}
);
width = 600;
},
{
layerId = "BD6112AA-D71A-4C36-8E9B-0F516311C436";
shapes = (
{
closed = 1;
nodes = (
(66,24,o),
(58,44,o),
(70,73,cs),
(81,100,o),
(99,107,o),
(129,99,cs),
(182,84,o),
(243,80,o),
(284,80,cs),
(383,80,o),
(432,156,o),
(432,222,cs),
(432,328,o),
(335,352,o),
(210,352,cs),
(190,352,ls),
(136,352,o),
(110,378,o),
(110,432,cs),
(110,650,ls),
(110,704,o),
(136,730,o),
(190,730,cs),
(461,730,ls),
(491,730,o),
(506,715,o),
(506,685,cs),
(506,655,o),
(491,640,o),
(461,640,cs),
(240,640,ls),
(213,640,o),
(200,627,o),
(200,600,cs),
(200,481,ls),
(200,454,o),
(213,441,o),
(240,441,cs),
(372,439,o),
(522,418,o),
(522,222,cs),
(522,76,o),
(440,-10,o),
(287,-10,cs),
(255,-10,o),
(172,-10,o),
(94,15,cs)
);
}
);
width = 600;
},
{
layerId = "6081C699-E88C-443F-8307-DAA77428180B";
shapes = (
{
closed = 1;
nodes = (
(70,22,o),
(65,34,o),
(72,50,cs),
(79,66,o),
(90,71,o),
(107,66,cs),
(167,48,o),
(234,40,o),
(280,40,cs),
(398,40,o),
(460,134,o),
(460,213,cs),
(460,341,o),
(345,371,o),
(202,371,cs),
(175,371,ls),
(135,371,o),
(115,391,o),
(115,431,cs),
(115,670,ls),
(115,710,o),
(135,730,o),
(175,730,cs),
(469,730,ls),
(486,730,o),
(494,722,o),
(494,705,cs),
(494,688,o),
(486,680,o),
(469,680,cs),
(195,680,ls),
(175,680,o),
(165,670,o),
(165,650,cs),
(165,455,ls),
(165,435,o),
(175,425,o),
(195,425,cs),
(338,424,o),
(510,408,o),
(510,214,cs),
(510,73,o),
(431,-10,o),
(283,-10,cs),
(241,-10,o),
(166,-10,o),
(86,17,cs)
);
}
);
width = 600;
}
);
unicode = 53;
},
{
glyphname = seven;
layers = (
{
layerId = "3D30E2C5-0B1E-4C3D-8621-C00C1C908D18";
shapes = (
{
closed = 1;
nodes = (
(384,545,ls),
(400,582,o),
(388,600,o),
(348,600,cs),
(125,600,ls),
(81,600,o),
(60,621,o),
(60,665,cs),
(60,709,o),
(81,730,o),
(125,730,cs),
(466,730,ls),
(536,730,o),
(570,696,o),
(570,626,cs),
(570,609,o),
(566,592,o),
(559,576,cs),
(322,40,ls),
(307,7,o),
(282,-10,o),
(245,-10,cs),
(172,-10,o),
(151,23,o),
(181,90,cs)
);
}
);
width = 600;
},
{
layerId = "BD6112AA-D71A-4C36-8E9B-0F516311C436";
shapes = (
{
closed = 1;
nodes = (
(435,603,ls),
(445,628,o),
(437,640,o),
(410,640,cs),
(127,640,ls),
(97,640,o),
(82,655,o),
(82,685,cs),
(82,715,o),
(97,730,o),
(127,730,cs),
(474,730,ls),
(522,730,o),
(546,706,o),
(546,658,cs),
(546,646,o),
(543,634,o),
(539,623,cs),
(300,20,ls),
(292,0,o),
(277,-10,o),
(255,-10,cs),
(211,-10,o),
(198,10,o),
(214,51,cs)
);
}
);
width = 600;
},
{
layerId = "6081C699-E88C-443F-8307-DAA77428180B";
shapes = (
{
closed = 1;
nodes = (
(471,652,ls),
(478,671,o),
(472,680,o),
(452,680,cs),
(115,680,ls),
(98,680,o),
(90,688,o),
(90,705,cs),
(90,722,o),
(98,730,o),
(115,730,cs),
(495,730,ls),
(522,730,o),
(535,717,o),
(535,690,cs),
(535,683,o),
(533,677,o),
(531,671,cs),
(269,8,ls),
(264,-4,o),
(256,-10,o),
(243,-10,cs),
(218,-10,o),
(210,1,o),
(219,25,cs)
);
}
);
width = 600;
}
);
unicode = 55;
},
{
glyphname = eight;
layers = (
{
layerId = "3D30E2C5-0B1E-4C3D-8621-C00C1C908D18";
shapes = (
{
closed = 1;
nodes = (
(168,386,o),
(169,388,o),
(151,396,cs),
(120,411,o),
(97,441,qs),
(65,484,o),
(65,542,qs),
(65,601,o),
(125,690,o),
(231,740,o),
(300,740,qs),
(370,740,o),
(476,690,o),
(536,601,o),
(536,542,qs),
(537,484,o),
(504,441,qs),
(481,411,o),
(449,396,qs),
(431,388,o),
(432,386,o),
(450,378,cs),
(473,368,o),
(491,352,qs),
(521,326,o),
(556,252,o),
(556,208,qs),
(556,144,o),
(491,45,o),
(376,-10,o),
(300,-10,qs),
(224,-10,o),
(109,45,o),
(44,144,o),
(44,208,qs),
(44,252,o),
(80,326,o),
(110,352,qs),
(128,368,o),
(150,378,qs)
);
},
{
closed = 1;
nodes = (
(349,110,o),
(412,171,o),
(412,217,qs),
(412,264,o),
(350,320,o),
(300,320,qs),
(251,320,o),
(188,264,o),
(188,217,qs),
(188,171,o),
(250,110,o),
(300,110,qs)
);
},
{
closed = 1;
nodes = (
(341,440,o),
(392,488,o),
(392,528,qs),
(392,569,o),
(341,620,o),
(300,620,qs),
(260,620,o),
(209,569,o),
(209,528,qs),
(209,488,o),
(260,440,o),
(300,440,qs)
);
}
);
width = 600;
},
{
layerId = "BD6112AA-D71A-4C36-8E9B-0F516311C436";
shapes = (
{
closed = 1;
nodes = (
(203,383,o),
(202,385,o),
(187,392,cs),
(146,410,o),
(120,445,qs),
(86,490,o),
(86,547,qs),
(86,604,o),
(140,691,o),
(237,740,o),
(300,740,qs),
(364,740,o),
(460,691,o),
(514,604,o),
(514,547,qs),
(514,490,o),
(480,445,qs),
(454,410,o),
(413,392,qs),
(398,385,o),
(397,383,o),
(413,378,cs),
(442,370,o),
(466,352,qs),
(499,327,o),
(534,250,o),
(534,204,qs),
(534,141,o),
(475,44,o),
(370,-10,o),
(300,-10,qs),
(231,-10,o),
(125,44,o),
(66,141,o),
(66,204,qs),
(66,250,o),
(103,327,o),
(135,352,qs),
(159,370,o),
(187,378,qs)
);
},
{
closed = 1;
nodes = (
(364,80,o),
(444,151,o),
(444,206,qs),
(444,267,o),
(364,337,o),
(300,337,qs),
(236,337,o),
(156,267,o),
(156,206,qs),
(156,151,o),
(236,80,o),
(300,80,qs)
);
},
{
closed = 1;
nodes = (
(356,427,o),
(424,488,o),
(424,541,qs),
(424,588,o),
(356,650,o),
(300,650,qs),
(245,650,o),
(176,588,o),
(176,541,qs),
(176,488,o),
(245,427,o),
(300,427,qs)
);
}
);
width = 600;
},
{
layerId = "6081C699-E88C-443F-8307-DAA77428180B";
shapes = (
{
closed = 1;
nodes = (
(217,379,o),
(216,382,o),
(204,387,cs),
(163,404,o),
(136,441,qs),
(103,487,o),
(102,547,qs),
(102,604,o),
(152,691,o),
(242,740,o),
(300,740,qs),
(359,740,o),
(448,691,o),
(498,604,o),
(498,547,qs),
(499,487,o),
(465,441,qs),
(438,404,o),
(396,387,qs),
(384,382,o),
(383,379,o),
(396,375,cs),
(426,364,o),
(451,344,qs),
(483,317,o),
(518,241,o),
(518,196,qs),
(518,135,o),
(463,42,o),
(365,-10,o),
(300,-10,qs),
(236,-10,o),
(137,42,o),
(82,135,o),
(82,196,qs),
(82,241,o),
(119,317,o),
(150,344,qs),
(174,364,o),
(204,375,qs)
);
},
{
closed = 1;
nodes = (
(375,40,o),
(468,123,o),
(468,193,qs),
(468,266,o),
(375,354,o),
(300,354,qs),
(225,354,o),
(132,266,o),
(132,193,qs),
(132,123,o),
(225,40,o),
(300,40,qs)
);
},
{
closed = 1;
nodes = (
(366,404,o),
(448,482,o),
(448,547,qs),
(448,607,o),
(366,690,o),
(300,690,qs),
(234,690,o),
(152,607,o),
(152,547,qs),
(152,482,o),
(234,404,o),
(300,404,qs)
);
}
);
width = 600;
}
);
unicode = 56;
},
{
glyphname = hyphen;
layers = (
{
layerId = "3D30E2C5-0B1E-4C3D-8621-C00C1C908D18";
shapes = (
{
closed = 1;
nodes = (
(130,255,ls),
(80,255,o),
(55,280,o),
(55,330,cs),
(55,380,o),
(80,405,o),
(130,405,cs),
(470,405,ls),
(520,405,o),
(545,380,o),
(545,330,cs),
(545,280,o),
(520,255,o),
(470,255,cs)
);
}
);
width = 600;
},
{
layerId = "BD6112AA-D71A-4C36-8E9B-0F516311C436";
shapes = (
{
closed = 1;
nodes = (
(110,285,ls),
(80,285,o),
(65,300,o),
(65,330,cs),
(65,360,o),
(80,375,o),
(110,375,cs),
(490,375,ls),
(520,375,o),
(535,360,o),
(535,330,cs),
(535,300,o),
(520,285,o),
(490,285,cs)
);
}
);
width = 600;
},
{
layerId = "6081C699-E88C-443F-8307-DAA77428180B";
shapes = (
{
closed = 1;
nodes = (
(100,307,ls),
(83,307,o),
(75,315,o),
(75,332,cs),
(75,349,o),
(83,357,o),
(100,357,cs),
(500,357,ls),
(517,357,o),
(525,349,o),
(525,332,cs),
(525,315,o),
(517,307,o),
(500,307,cs)
);
}
);
width = 600;
}
);
unicode = 45;
},
{
glyphname = plus;
layers = (
{
layerId = "3D30E2C5-0B1E-4C3D-8621-C00C1C908D18";
shapes = (
{
closed = 1;
nodes = (
(250,90,o),
(225,115,o),
(225,165,cs),
(225,255,l),
(130,255,ls),
(80,255,o),
(55,280,o),
(55,330,cs),
(55,380,o),
(80,405,o),
(130,405,cs),
(225,405,l),
(225,495,ls),
(225,545,o),
(250,570,o),
(300,570,cs),
(350,570,o),
(375,545,o),
(375,495,cs),
(375,405,l),
(470,405,ls),
(520,405,o),
(545,380,o),
(545,330,cs),
(545,280,o),
(520,255,o),
(470,255,cs),
(375,255,l),
(375,165,ls),
(375,115,o),
(350,90,o),
(300,90,cs)
);
}
);
width = 600;
},
{
layerId = "BD6112AA-D71A-4C36-8E9B-0F516311C436";
shapes = (
{
closed = 1;
nodes = (
(270,95,o),
(255,110,o),
(255,140,cs),
(255,285,l),
(110,285,ls),
(80,285,o),
(65,300,o),
(65,330,cs),
(65,360,o),
(80,375,o),
(110,375,cs),
(255,375,l),
(255,520,ls),
(255,550,o),
(270,565,o),
(300,565,cs),
(330,565,o),
(345,550,o),
(345,520,cs),
(345,375,l),
(490,375,ls),
(520,375,o),
(535,360,o),
(535,330,cs),
(535,300,o),
(520,285,o),
(490,285,cs),
(345,285,l),
(345,140,ls),
(345,110,o),
(330,95,o),
(300,95,cs)
);
}
);
width = 600;
},
{
layerId = "6081C699-E88C-443F-8307-DAA77428180B";
shapes = (
{
closed = 1;
nodes = (
(283,100,o),
(275,108,o),
(275,125,cs),
(275,307,l),
(100,307,ls),
(83,307,o),
(75,315,o),
(75,332,cs),
(75,349,o),
(83,357,o),
(100,357,cs),
(275,357,l),
(275,540,ls),
(275,557,o),
(283,565,o),
(300,565,cs),
(317,565,o),
(325,557,o),
(325,540,cs),
(325,357,l),
(500,357,ls),
(517,357,o),
(525,349,o),
(525,332,cs),
(525,315,o),
(517,307,o),
(500,307,cs),
(325,307,l),
(325,125,ls),
(325,108,o),
(317,100,o),
(300,100,cs)
);
}
);
width = 600;
}
);
unicode = 43;
},
{
glyphname = asterisk;
layers = (
{
layerId = "3D30E2C5-0B1E-4C3D-8621-C00C1C908D18";
shapes = (
{
closed = 1;
nodes = (
(250,70,o),
(222,95,o),
(225,145,cs),
(229,211,l),
(177,173,ls),
(137,143,o),
(100,157,o),
(75,200,cs),
(50,243,o),
(57,281,o),
(102,302,cs),
(161,330,l),
(102,358,ls),
(57,379,o),
(50,417,o),
(75,460,cs),
(100,503,o),
(137,517,o),
(177,487,cs),
(229,449,l),
(225,515,ls),
(222,565,o),
(250,590,o),
(300,590,cs),
(350,590,o),
(378,565,o),
(375,515,cs),
(371,449,l),
(423,487,ls),
(463,517,o),
(500,503,o),
(525,460,cs),
(550,417,o),
(543,379,o),
(498,358,cs),
(439,330,l),
(488,302,ls),
(531,277,o),
(550,243,o),
(525,200,cs),
(500,157,o),
(463,143,o),
(423,173,cs),
(371,211,l),
(375,145,ls),
(378,95,o),
(350,70,o),
(300,70,cs)
);
}
);
width = 600;
},
{
layerId = "BD6112AA-D71A-4C36-8E9B-0F516311C436";
shapes = (
{
closed = 1;
nodes = (
(270,70,o),
(255,85,o),
(255,115,cs),
(255,252,l),
(136,183,ls),
(110,168,o),
(90,174,o),
(75,200,cs),
(60,226,o),
(65,246,o),
(91,261,cs),
(210,330,l),
(91,399,ls),
(65,414,o),
(60,434,o),
(75,460,cs),
(90,486,o),
(110,492,o),
(136,477,cs),
(255,408,l),
(255,545,ls),
(255,575,o),
(270,590,o),
(300,590,cs),
(330,590,o),
(345,575,o),
(345,545,cs),
(345,408,l),
(464,477,ls),
(490,492,o),
(510,486,o),
(525,460,cs),
(540,434,o),
(535,414,o),
(509,399,cs),
(390,330,l),
(509,261,ls),
(535,246,o),
(540,226,o),
(525,200,cs),
(510,174,o),
(490,168,o),
(464,183,cs),
(345,252,l),
(345,115,ls),
(345,85,o),
(330,70,o),
(300,70,cs)
);
}
);
width = 600;
},
{
layerId = "6081C699-E88C-443F-8307-DAA77428180B";
shapes = (
{
closed = 1;
nodes = (
(283,70,o),
(275,78,o),
(275,95,cs),
(275,287,l),
(109,191,ls),
(94,182,o),
(83,185,o),
(75,200,c),
(66,215,o),
(69,225,o),
(84,234,cs),
(250,330,l),
(84,426,ls),
(69,435,o),
(66,445,o),
(75,460,c),
(83,475,o),
(94,478,o),
(109,469,cs),
(275,373,l),
(275,565,ls),
(275,582,o),
(283,590,o),
(300,590,cs),
(317,590,o),
(325,582,o),
(325,565,cs),
(325,373,l),
(491,469,ls),
(506,478,o),
(517,475,o),
(525,460,c),
(534,445,o),
(531,435,o),
(516,426,cs),
(350,330,l),
(516,234,ls),
(531,225,o),
(534,215,o),
(525,200,c),
(517,185,o),
(506,182,o),
(491,191,cs),
(325,287,l),
(325,95,ls),
(325,78,o),
(317,70,o),
(300,70,cs)
);
}
);
width = 600;
}
);
unicode = 42;
},
{
glyphname = asciicircum;
layers = (
{
layerId = "3D30E2C5-0B1E-4C3D-8621-C00C1C908D18";
shapes = (
{
closed = 1;
nodes = (
(105,320,o),
(68,350,o),
(97,406,cs),
(200,604,ls),
(223,648,o),
(252,670,o),
(300,670,cs),
(348,670,o),
(377,648,o),
(400,604,cs),
(503,406,ls),
(532,350,o),
(495,320,o),
(447,320,cs),
(416,320,o),
(387,334,o),
(373,363,cs),
(319,474,ls),
(304,504,o),
(296,504,o),
(281,474,cs),
(227,363,ls),
(213,334,o),
(184,320,o),
(153,320,cs)
);
}
);
width = 600;
},
{
layerId = "BD6112AA-D71A-4C36-8E9B-0F516311C436";
shapes = (
{
closed = 1;
nodes = (
(108,320,o),
(86,336,o),
(103,369,cs),
(243,634,ls),
(256,658,o),
(273,670,o),
(300,670,cs),
(327,670,o),
(344,658,o),
(357,634,cs),
(497,369,ls),
(514,336,o),
(492,320,o),
(466,320,cs),
(438,320,o),
(420,326,o),
(405,355,cs),
(316,528,ls),
(303,553,o),
(297,553,o),
(284,528,cs),
(195,355,ls),
(180,326,o),
(162,320,o),
(134,320,cs)
);
}
);
width = 600;
},
{
layerId = "6081C699-E88C-443F-8307-DAA77428180B";
shapes = (
{
closed = 1;
nodes = (
(123,320,o),
(104,331,o),
(116,355,cs),
(262,645,ls),
(270,662,o),
(282,670,o),
(300,670,cs),
(318,670,o),
(330,662,o),
(338,645,cs),
(484,355,ls),
(496,331,o),
(477,320,o),
(461,320,cs),
(448,320,o),
(440,326,o),
(434,338,cs),
(312,582,ls),
(303,600,o),
(297,600,o),
(288,582,cs),
(166,338,ls),
(160,326,o),
(152,320,o),
(139,320,cs)
);
}
);
width = 600;
}
);
unicode = 94;
},
{
glyphname = slash;
layers = (
{
layerId = "3D30E2C5-0B1E-4C3D-8621-C00C1C908D18";
shapes = (
{
closed = 1;
nodes = (
(378,783,ls),
(390,814,o),
(411,830,o),
(445,830,cs),
(513,830,o),
(541,804,o),
(516,736,cs),
(222,-63,ls),
(208,-98,o),
(187,-110,o),
(150,-110,cs),
(83,-110,o),
(61,-79,o),
(84,-16,cs)
);
}
);
width = 600;
},
{
layerId = "BD6112AA-D71A-4C36-8E9B-0F516311C436";
shapes = (
{
closed = 1;
nodes = (
(419,800,ls),
(426,820,o),
(441,830,o),
(462,830,cs),
(504,830,o),
(518,811,o),
(503,771,cs),
(181,-80,ls),
(174,-100,o),
(159,-110,o),
(138,-110,cs),
(96,-110,o),
(82,-91,o),
(97,-51,cs)
);
}
);
width = 600;
},
{
layerId = "6081C699-E88C-443F-8307-DAA77428180B";
shapes = (
{
closed = 1;
nodes = (
(445,813,ls),
(449,824,o),
(457,830,o),
(469,830,cs),
(493,830,o),
(501,819,o),
(492,796,cs),
(155,-93,ls),
(151,-104,o),
(143,-110,o),
(131,-110,cs),
(107,-110,o),
(99,-99,o),
(108,-76,cs)
);
}
);
width = 600;
}
);
unicode = 47;
},
{
glyphname = backslash;
layers = (
{
layerId = "3D30E2C5-0B1E-4C3D-8621-C00C1C908D18";
shapes = (
{
closed = 1;
nodes = (
(516,-16,ls),
(539,-79,o),
(517,-110,o),
(450,-110,cs),
(413,-110,o),
(392,-98,o),
(378,-63,cs),
(84,736,ls),
(59,804,o),
(87,830,o),
(155,830,cs),
(189,830,o),
(210,814,o),
(222,783,cs)
);
}
);
width = 600;
},
{
layerId = "BD6112AA-D71A-4C36-8E9B-0F516311C436";
shapes = (
{
closed = 1;
nodes = (
(503,-51,ls),
(518,-91,o),
(504,-110,o),
(462,-110,cs),
(441,-110,o),
(426,-100,o),
(419,-80,cs),
(97,771,ls),
(82,811,o),
(96,830,o),
(138,830,cs),
(159,830,o),
(174,820,o),
(181,800,cs)
);
}
);
width = 600;
},
{
layerId = "6081C699-E88C-443F-8307-DAA77428180B";
shapes = (
{
closed = 1;
nodes = (
(492,-76,ls),
(501,-99,o),
(493,-110,o),
(469,-110,cs),
(457,-110,o),
(449,-104,o),
(445,-93,cs),
(108,796,ls),
(99,819,o),
(107,830,o),
(131,830,cs),
(143,830,o),
(151,824,o),
(155,813,cs)
);
}
);
width = 600;
}
);
unicode = 92;
},
{
glyphname = colon;
layers = (
{
layerId = "3D30E2C5-0B1E-4C3D-8621-C00C1C908D18";
shapes = (
{
closed = 1;
nodes = (
(253,-10,o),
(199,44,o),
(199,91,qs),
(199,138,o),
(253,192,o),
(300,192,qs),
(347,192,o),
(401,138,o),
(401,91,qs),
(401,44,o),
(347,-10,o),
(300,-10,qs)
);
},
{
closed = 1;
nodes = (
(253,349,o),
(199,403,o),
(199,450,qs),
(199,497,o),
(253,551,o),
(300,551,qs),
(347,551,o),
(401,497,o),
(401,450,qs),
(401,403,o),
(347,349,o),
(300,349,qs)
);
}
);
width = 600;
},
{
layerId = "BD6112AA-D71A-4C36-8E9B-0F516311C436";
shapes = (
{
closed = 1;
nodes = (
(262,-10,o),
(218,30,o),
(218,69,qs),
(218,110,o),
(262,152,o),
(300,152,qs),
(338,152,o),
(382,109,o),
(382,69,qs),
(382,30,o),
(338,-10,o),
(300,-10,qs)
);
},
{
closed = 1;
nodes = (
(262,371,o),
(218,411,o),
(218,450,qs),
(218,491,o),
(262,533,o),
(300,533,qs),
(338,533,o),
(382,490,o),
(382,450,qs),
(382,411,o),
(338,371,o),
(300,371,qs)
);
}
);
width = 600;
},
{
layerId = "6081C699-E88C-443F-8307-DAA77428180B";
shapes = (
{
closed = 1;
nodes = (
(273,-10,o),
(242,22,o),
(242,50,qs),
(242,77,o),
(273,108,o),
(300,108,qs),
(327,108,o),
(358,77,o),
(358,50,qs),
(358,22,o),
(327,-10,o),
(300,-10,qs)
);
},
{
closed = 1;
nodes = (
(273,390,o),
(242,422,o),
(242,450,qs),
(242,477,o),
(273,508,o),
(300,508,qs),
(327,508,o),
(358,477,o),
(358,450,qs),
(358,422,o),
(327,390,o),
(300,390,qs)
);
}
);
width = 600;
}
);
unicode = 58;
},
{
glyphname = less;
layers = (
{
layerId = "3D30E2C5-0B1E-4C3D-8621-C00C1C908D18";
shapes = (
{
closed = 1;
nodes = (
(138,230,ls),
(96,250,o),
(75,283,o),
(75,330,cs),
(75,377,o),
(95,409,o),
(138,429,cs),
(422,561,ls),
(491,593,o),
(525,571,o),
(525,495,cs),
(525,470,o),
(514,452,o),
(491,441,cs),
(297,351,ls),
(267,337,o),
(267,323,o),
(297,309,cs),
(490,218,ls),
(513,207,o),
(525,190,o),
(525,164,cs),
(525,87,o),
(491,65,o),
(421,98,cs)
);
}
);
width = 600;
},
{
layerId = "BD6112AA-D71A-4C36-8E9B-0F516311C436";
shapes = (
{
closed = 1;
nodes = (
(130,258,ls),
(100,273,o),
(85,296,o),
(85,330,cs),
(85,364,o),
(100,387,o),
(130,402,cs),
(443,559,ls),
(491,583,o),
(515,569,o),
(515,515,cs),
(515,497,o),
(507,484,o),
(491,476,cs),
(241,348,ls),
(217,336,o),
(217,324,o),
(241,312,cs),
(490,187,ls),
(506,179,o),
(515,166,o),
(515,148,cs),
(515,93,o),
(490,77,o),
(441,102,cs)
);
}
);
width = 600;
},
{
layerId = "6081C699-E88C-443F-8307-DAA77428180B";
shapes = (
{
closed = 1;
nodes = (
(117,293,ls),
(102,301,o),
(95,313,o),
(95,330,cs),
(95,347,o),
(102,359,o),
(117,367,cs),
(466,559,ls),
(492,573,o),
(505,566,o),
(505,536,cs),
(505,526,o),
(501,519,o),
(492,514,cs),
(178,344,ls),
(160,334,o),
(160,326,o),
(178,316,cs),
(492,146,ls),
(501,141,o),
(505,134,o),
(505,124,cs),
(505,94,o),
(492,87,o),
(466,101,cs)
);
}
);
width = 600;
}
);
unicode = 60;
},
{
glyphname = equal;
layers = (
{
layerId = "3D30E2C5-0B1E-4C3D-8621-C00C1C908D18";
shapes = (
{
closed = 1;
nodes = (
(130,375,ls),
(80,375,o),
(55,400,o),
(55,450,cs),
(55,500,o),
(80,525,o),
(130,525,cs),
(470,525,ls),
(520,525,o),
(545,500,o),
(545,450,cs),
(545,400,o),
(520,375,o),
(470,375,cs)
);
},
{
closed = 1;
nodes = (
(130,135,ls),
(80,135,o),
(55,160,o),
(55,210,cs),
(55,260,o),
(80,285,o),
(130,285,cs),
(470,285,ls),
(520,285,o),
(545,260,o),
(545,210,cs),
(545,160,o),
(520,135,o),
(470,135,cs)
);
}
);
width = 600;
},
{
layerId = "BD6112AA-D71A-4C36-8E9B-0F516311C436";
shapes = (
{
closed = 1;
nodes = (
(110,405,ls),
(80,405,o),
(65,420,o),
(65,450,cs),
(65,480,o),
(80,495,o),
(110,495,cs),
(490,495,ls),
(520,495,o),
(535,480,o),
(535,450,cs),
(535,420,o),
(520,405,o),
(490,405,cs)
);
},
{
closed = 1;
nodes = (
(110,165,ls),
(80,165,o),
(65,180,o),
(65,210,cs),
(65,240,o),
(80,255,o),
(110,255,cs),
(490,255,ls),
(520,255,o),
(535,240,o),
(535,210,cs),
(535,180,o),
(520,165,o),
(490,165,cs)
);
}
);
width = 600;
},
{
layerId = "6081C699-E88C-443F-8307-DAA77428180B";
shapes = (
{
closed = 1;
nodes = (
(100,427,ls),
(83,427,o),
(75,435,o),
(75,452,cs),
(75,469,o),
(83,477,o),
(100,477,cs),
(500,477,ls),
(517,477,o),
(525,469,o),
(525,452,cs),
(525,435,o),
(517,427,o),
(500,427,cs)
);
},
{
closed = 1;
nodes = (
(100,187,ls),
(83,187,o),
(75,195,o),
(75,212,cs),
(75,229,o),
(83,237,o),
(100,237,cs),
(500,237,ls),
(517,237,o),
(525,229,o),
(525,212,cs),
(525,195,o),
(517,187,o),
(500,187,cs)
);
}
);
width = 600;
}
);
unicode = 61;
},
{
glyphname = exclam;
layers = (
{
layerId = "3D30E2C5-0B1E-4C3D-8621-C00C1C908D18";
shapes = (
{
closed = 1;
nodes = (
(225,315,ls),
(227,265,o),
(255,240,o),
(300,240,cs),
(345,240,o),
(373,265,o),
(375,315,cs),
(389,635,ls),
(392,705,o),
(360,740,o),
(300,740,cs),
(240,740,o),
(208,705,o),
(211,635,cs)
);
},
{
closed = 1;
nodes = (
(215,28,o),
(253,-10,o),
(300,-10,cs),
(347,-10,o),
(385,28,o),
(385,75,cs),
(385,122,o),
(347,160,o),
(300,160,cs),
(253,160,o),
(215,122,o),
(215,75,cs)
);
}
);
width = 600;
},
{
layerId = "BD6112AA-D71A-4C36-8E9B-0F516311C436";
shapes = (
{
closed = 1;
nodes = (
(253,255,ls),
(254,225,o),
(270,210,o),
(300,210,cs),
(330,210,o),
(346,225,o),
(347,255,cs),
(363,675,ls),
(365,719,o),
(344,740,o),
(300,740,cs),
(256,740,o),
(235,719,o),
(237,675,cs)
);
},
{
closed = 1;
nodes = (
(240,16,o),
(267,-10,o),
(300,-10,cs),
(333,-10,o),
(360,16,o),
(360,50,cs),
(360,83,o),
(333,110,o),
(300,110,cs),
(267,110,o),
(240,83,o),
(240,50,cs)
);
}
);
width = 600;
},
{
layerId = "6081C699-E88C-443F-8307-DAA77428180B";
shapes = (
{
closed = 1;
nodes = (
(275,225,ls),
(275,208,o),
(283,200,o),
(300,200,cs),
(317,200,o),
(325,208,o),
(325,225,cs),
(334,705,ls),
(334,728,o),
(323,740,o),
(300,740,cs),
(277,740,o),
(266,728,o),
(266,705,cs)
);
},
{
closed = 1;
nodes = (
(255,10,o),
(275,-10,o),
(300,-10,cs),
(325,-10,o),
(345,10,o),
(345,35,cs),
(345,60,o),
(325,80,o),
(300,80,cs),
(275,80,o),
(255,60,o),
(255,35,cs)
);
}
);
width = 600;
}
);
unicode = 33;
},
{
glyphname = question;
layers = (
{
guides = (
{
position = "{0, 740}";
}
);
layerId = "3D30E2C5-0B1E-4C3D-8621-C00C1C908D18";
shapes = (
{
closed = 1;
nodes = (
(215,28,o),
(253,-10,o),
(300,-10,cs),
(347,-10,o),
(385,28,o),
(385,75,cs),
(385,122,o),
(347,160,o),
(300,160,cs),
(253,160,o),
(215,122,o),
(215,75,cs)
);
},
{
closed = 1;
nodes = (
(79,560,o),
(109,526,o),
(172,526,cs),
(195,526,o),
(221,532,o),
(245,577,cs),
(252,590,o),
(263,597,qs),
(283,610,o),
(312,610,qs),
(352,610,o),
(396,567,o),
(396,539,qs),
(396,496,o),
(342,454,o),
(298,420,qs),
(246,380,o),
(234,342,qs),
(231,333,o),
(229,324,o),
(228,315,cs),
(220,267,o),
(245,240,o),
(298,240,cs),
(332,240,o),
(365,246,o),
(379,299,cs),
(381,307,o),
(382,312,o),
(386,319,cs),
(400,341,o),
(423,362,qs),
(463,398,o),
(546,475,o),
(546,544,qs),
(546,638,o),
(420,740,o),
(314,740,qs),
(210,741,o),
(147,690,qs),
(112,661,o),
(96,613,qs)
);
}
);
width = 600;
},
{
layerId = "BD6112AA-D71A-4C36-8E9B-0F516311C436";
shapes = (
{
closed = 1;
nodes = (
(240,16,o),
(267,-10,o),
(300,-10,cs),
(333,-10,o),
(360,16,o),
(360,50,cs),
(360,83,o),
(333,110,o),
(300,110,cs),
(267,110,o),
(240,83,o),
(240,50,cs)
);
},
{
closed = 1;
nodes = (
(108,563,o),
(124,545,o),
(158,545,cs),
(188,545,o),
(204,558,o),
(215,594,cs),
(223,619,o),
(238,630,qs),
(264,650,o),
(314,650,qs),
(366,650,o),
(427,601,o),
(427,551,qs),
(427,502,o),
(369,437,o),
(328,397,qs),
(282,351,o),
(264,313,qs),
(255,294,o),
(252,276,o),
(250,259,cs),
(247,227,o),
(263,210,o),
(297,210,cs),
(328,210,o),
(343,224,o),
(351,259,cs),
(352,266,o),
(354,273,o),
(357,280,cs),
(368,312,o),
(410,350,qs),
(448,385,o),
(517,484,o),
(517,552,qs),
(517,638,o),
(409,740,o),
(314,740,qs),
(219,740,o),
(164,691,qs),
(124,655,o),
(113,594,qs)
);
}
);
width = 600;
},
{
layerId = "6081C699-E88C-443F-8307-DAA77428180B";
shapes = (
{
closed = 1;
nodes = (
(255,10,o),
(275,-10,o),
(300,-10,cs),
(325,-10,o),
(345,10,o),
(345,35,cs),
(345,60,o),
(325,80,o),
(300,80,cs),
(275,80,o),
(255,60,o),
(255,35,cs)
);
},
{
closed = 1;
nodes = (
(133,557,o),
(143,548,o),
(160,548,cs),
(176,548,o),
(185,556,o),
(187,573,cs),
(195,629,o),
(223,658,qs),
(256,693,o),
(319,690,qs),
(383,687,o),
(451,624,o),
(451,569,qs),
(451,512,o),
(404,437,o),
(360,395,qs),
(312,350,o),
(292,310,qs),
(278,283,o),
(273,254,o),
(273,225,cs),
(273,209,o),
(282,200,o),
(299,200,cs),
(315,200,o),
(326,208,o),
(327,225,cs),
(328,246,o),
(331,267,o),
(341,288,cs),
(358,324,o),
(403,371,qs),
(445,415,o),
(501,502,o),
(501,569,qs),
(501,642,o),
(405,740,o),
(319,740,qs),
(233,740,o),
(183,690,qs),
(140,647,o),
(134,573,qs)
);
}
);
width = 600;
}
);
unicode = 63;
},
{
glyphname = quotesingle;
layers = (
{
layerId = "3D30E2C5-0B1E-4C3D-8621-C00C1C908D18";
shapes = (
{
closed = 1;
nodes = (
(225,515,ls),
(225,465,o),
(250,440,o),
(300,440,cs),
(350,440,o),
(375,465,o),
(375,515,cs),
(375,665,ls),
(375,715,o),
(350,740,o),
(300,740,cs),
(250,740,o),
(225,715,o),
(225,665,cs)
);
}
);
width = 600;
},
{
layerId = "BD6112AA-D71A-4C36-8E9B-0F516311C436";
shapes = (
{
closed = 1;
nodes = (
(255,485,ls),
(255,455,o),
(270,440,o),
(300,440,cs),
(330,440,o),
(345,455,o),
(345,485,cs),
(345,695,ls),
(345,725,o),
(330,740,o),
(300,740,cs),
(270,740,o),
(255,725,o),
(255,695,cs)
);
}
);
width = 600;
},
{
layerId = "6081C699-E88C-443F-8307-DAA77428180B";
shapes = (
{
closed = 1;
nodes = (
(275,465,ls),
(275,448,o),
(283,440,o),
(300,440,cs),
(317,440,o),
(325,448,o),
(325,465,cs),
(325,715,ls),
(325,732,o),
(317,740,o),
(300,740,cs),
(283,740,o),
(275,732,o),
(275,715,cs)
);
}
);
width = 600;
}
);
unicode = 39;
},
{
glyphname = quotedbl;
layers = (
{
layerId = "3D30E2C5-0B1E-4C3D-8621-C00C1C908D18";
shapes = (
{
closed = 1;
nodes = (
(115,515,ls),
(115,465,o),
(140,440,o),
(190,440,cs),
(240,440,o),
(265,465,o),
(265,515,cs),
(265,665,ls),
(265,715,o),
(240,740,o),
(190,740,cs),
(140,740,o),
(115,715,o),
(115,665,cs)
);
},
{
closed = 1;
nodes = (
(335,515,ls),
(335,465,o),
(360,440,o),
(410,440,cs),
(460,440,o),
(485,465,o),
(485,515,cs),
(485,665,ls),
(485,715,o),
(460,740,o),
(410,740,cs),
(360,740,o),
(335,715,o),
(335,665,cs)
);
}
);
width = 600;
},
{
layerId = "BD6112AA-D71A-4C36-8E9B-0F516311C436";
shapes = (
{
closed = 1;
nodes = (
(156,485,ls),
(156,455,o),
(171,440,o),
(201,440,cs),
(231,440,o),
(246,455,o),
(246,485,cs),
(246,695,ls),
(246,725,o),
(231,740,o),
(201,740,cs),
(171,740,o),
(156,725,o),
(156,695,cs)
);
},
{
closed = 1;
nodes = (
(355,485,ls),
(355,455,o),
(370,440,o),
(400,440,cs),
(430,440,o),
(445,455,o),
(445,485,cs),
(445,695,ls),
(445,725,o),
(430,740,o),
(400,740,cs),
(370,740,o),
(355,725,o),
(355,695,cs)
);
}
);
width = 600;
},
{
layerId = "6081C699-E88C-443F-8307-DAA77428180B";
shapes = (
{
closed = 1;
nodes = (
(185,465,ls),
(185,448,o),
(193,440,o),
(210,440,cs),
(227,440,o),
(235,448,o),
(235,465,cs),
(235,715,ls),
(235,732,o),
(227,740,o),
(210,740,cs),
(193,740,o),
(185,732,o),
(185,715,cs)
);
},
{
closed = 1;
nodes = (
(365,465,ls),
(365,448,o),
(373,440,o),
(390,440,cs),
(407,440,o),
(415,448,o),
(415,465,cs),
(415,715,ls),
(415,732,o),
(407,740,o),
(390,740,cs),
(373,740,o),
(365,732,o),
(365,715,cs)
);
}
);
width = 600;
}
);
unicode = 34;
},
{
glyphname = at.cv04;
layers = (
{
layerId = "3D30E2C5-0B1E-4C3D-8621-C00C1C908D18";
shapes = (
{
closed = 1;
nodes = (
(145,-130,o),
(10,35,o),
(10,310,cs),
(10,561,o),
(110,740,o),
(320,740,cs),
(474,740,o),
(590,627,o),
(590,427,cs),
(590,298,ls),
(590,188,o),
(546,80,o),
(410,80,cs),
(280,80,o),
(220,177,o),
(220,283,cs),
(220,431,o),
(266,510,o),
(362,510,cs),
(408,510,o),
(440,486,o),
(445,464,c),
(445,539,o),
(399,590,o),
(320,590,cs),
(231,590,o),
(160,484,o),
(160,311,cs),
(160,101,o),
(267,20,o),
(370,20,cs),
(417,20,o),
(450,-5,o),
(450,-55,cs),
(450,-105,o),
(422,-130,o),
(375,-130,cs)
);
},
{
closed = 1;
nodes = (
(446,194,o),
(450,262,o),
(450,280,cs),
(450,298,ls),
(450,326,o),
(440,375,o),
(410,375,cs),
(379,375,o),
(370,324,o),
(370,283,cs),
(370,257,o),
(379,194,o),
(414,194,cs)
);
}
);
width = 600;
},
{
layerId = "BD6112AA-D71A-4C36-8E9B-0F516311C436";
shapes = (
{
closed = 1;
nodes = (
(147,-130,o),
(30,35,o),
(30,311,cs),
(30,552,o),
(121,740,o),
(320,740,cs),
(503,740,o),
(570,611,o),
(570,457,cs),
(570,319,ls),
(570,210,o),
(547,90,o),
(411,90,cs),
(296,90,o),
(236,171,o),
(236,298,cs),
(236,437,o),
(291,510,o),
(386,510,cs),
(444,510,o),
(470,472,o),
(480,449,c),
(480,543,o),
(441,650,o),
(320,650,cs),
(196,650,o),
(120,494,o),
(120,311,cs),
(120,100,o),
(199,-40,o),
(394,-40,cs),
(425,-40,o),
(450,-50,o),
(450,-85,cs),
(450,-120,o),
(430,-130,o),
(400,-130,cs)
);
},
{
closed = 1;
nodes = (
(464,180,o),
(480,241,o),
(480,299,cs),
(480,321,ls),
(480,369,o),
(456,420,o),
(404,420,cs),
(346,420,o),
(326,366,o),
(326,298,cs),
(326,232,o),
(343,180,o),
(404,180,cs)
);
}
);
width = 600;
},
{
layerId = "6081C699-E88C-443F-8307-DAA77428180B";
shapes = (
{
closed = 1;
nodes = (
(153,-130,o),
(40,36,o),
(40,311,cs),
(40,562,o),
(140,740,o),
(320,740,cs),
(498,740,o),
(550,616,o),
(550,457,cs),
(550,309,ls),
(550,176,o),
(509,100,o),
(400,100,cs),
(313,100,o),
(240,154,o),
(240,295,cs),
(240,436,o),
(295,510,o),
(382,510,cs),
(460,510,o),
(504,453,o),
(510,423,c),
(510,581,o),
(453,690,o),
(320,690,cs),
(167,690,o),
(90,504,o),
(90,311,cs),
(90,90,o),
(180,-80,o),
(425,-80,cs),
(438,-80,o),
(450,-87,o),
(450,-105,cs),
(450,-123,o),
(438,-130,o),
(425,-130,cs)
);
},
{
closed = 1;
nodes = (
(461,150,o),
(510,210,o),
(510,289,cs),
(510,322,ls),
(510,379,o),
(466,460,o),
(391,460,cs),
(322,460,o),
(290,396,o),
(290,295,cs),
(290,205,o),
(332,150,o),
(400,150,cs)
);
}
);
width = 600;
}
);
},
{
glyphname = dollar.cv01;
layers = (
{
layerId = "3D30E2C5-0B1E-4C3D-8621-C00C1C908D18";
shapes = (
{
closed = 1;
nodes = (
(41,170,o),
(74,210,o),
(134,210,cs),
(162,210,o),
(174,197,o),
(196,163,cs),
(203,153,o),
(213,145,qs),
(243,121,o),
(302,120,qs),
(351,119,o),
(416,159,o),
(416,206,qs),
(416,246,o),
(370,296,o),
(335,304,qs),
(246,325,ls),
(160,345,o),
(59,450,o),
(59,530,qs),
(59,595,o),
(116,689,o),
(223,740,o),
(296,740,qs),
(370,740,o),
(478,689,o),
(507,642,qs),
(511,634,o),
(515,626,qs),
(542,572,o),
(510,531,o),
(459,531,cs),
(429,531,o),
(415,550,o),
(387,578,cs),
(381,584,o),
(375,591,qs),
(350,622,o),
(296,622,qs),
(253,622,o),
(190,580,o),
(190,540,qs),
(190,506,o),
(241,458,o),
(274,450,qs),
(366,429,ls),
(452,409,o),
(553,295,o),
(553,206,qs),
(553,141,o),
(492,43,o),
(379,-10,o),
(302,-10,qs),
(225,-10,o),
(112,46,o),
(79,94,qs),
(72,104,o),
(67,115,qs)
);
},
{
closed = 1;
nodes = (
(230,775,ls),
(230,825,o),
(270,840,o),
(300,840,cs),
(330,840,o),
(370,825,o),
(370,775,cs),
(370,-55,ls),
(370,-105,o),
(330,-120,o),
(300,-120,cs),
(270,-120,o),
(230,-105,o),
(230,-55,cs)
);
}
);
width = 600;
},
{
layerId = "BD6112AA-D71A-4C36-8E9B-0F516311C436";
shapes = (
{
closed = 1;
nodes = (
(71,184,o),
(86,200,o),
(117,200,cs),
(144,200,o),
(158,187,o),
(168,155,cs),
(177,125,o),
(201,105,qs),
(240,71,o),
(304,70,qs),
(366,70,o),
(440,142,o),
(440,200,qs),
(440,244,o),
(393,309,o),
(349,321,qs),
(238,352,ls),
(169,372,o),
(90,475,o),
(90,545,qs),
(90,603,o),
(142,691,o),
(236,740,o),
(297,740,qs),
(359,740,o),
(454,692,o),
(481,648,qs),
(496,623,o),
(503,592,qs),
(509,564,o),
(495,547,o),
(463,547,cs),
(437,547,o),
(423,558,o),
(410,591,cs),
(402,613,o),
(384,629,qs),
(350,661,o),
(297,660,qs),
(244,660,o),
(178,597,o),
(178,547,qs),
(178,507,o),
(221,450,o),
(260,439,qs),
(374,407,ls),
(447,387,o),
(528,276,o),
(528,200,qs),
(528,136,o),
(473,42,o),
(372,-10,o),
(304,-10,qs),
(234,-10,o),
(130,41,o),
(101,88,qs),
(83,118,o),
(76,155,qs)
);
},
{
closed = 1;
nodes = (
(255,795,ls),
(255,825,o),
(270,840,o),
(300,840,cs),
(330,840,o),
(345,825,o),
(345,795,cs),
(345,-75,ls),
(345,-105,o),
(330,-120,o),
(300,-120,cs),
(270,-120,o),
(255,-105,o),
(255,-75,cs)
);
}
);
width = 600;
},
{
layerId = "6081C699-E88C-443F-8307-DAA77428180B";
shapes = (
{
closed = 1;
nodes = (
(84,192,o),
(93,200,o),
(110,200,cs),
(126,200,o),
(133,193,o),
(135,176,cs),
(142,119,o),
(182,81,qs),
(230,35,o),
(305,35,qs),
(376,35,o),
(466,116,o),
(466,180,qs),
(466,238,o),
(404,325,o),
(351,341,qs),
(249,372,ls),
(183,392,o),
(105,489,o),
(105,555,qs),
(105,609,o),
(155,694,o),
(245,740,o),
(304,740,qs),
(363,740,o),
(453,691,o),
(478,647,qs),
(498,612,o),
(502,569,qs),
(504,553,o),
(496,545,o),
(479,545,cs),
(463,545,o),
(455,552,o),
(453,569,cs),
(447,621,o),
(413,655,qs),
(372,697,o),
(303,696,qs),
(237,696,o),
(154,618,o),
(154,559,qs),
(154,508,o),
(212,434,o),
(261,418,qs),
(363,386,ls),
(433,364,o),
(515,255,o),
(515,183,qs),
(515,126,o),
(462,39,o),
(368,-10,o),
(305,-10,qs),
(240,-10,o),
(141,44,o),
(113,91,qs),
(91,129,o),
(86,176,qs)
);
},
{
closed = 1;
nodes = (
(275,815,ls),
(275,832,o),
(283,840,o),
(300,840,cs),
(317,840,o),
(325,832,o),
(325,815,cs),
(325,-95,ls),
(325,-112,o),
(317,-120,o),
(300,-120,cs),
(283,-120,o),
(275,-112,o),
(275,-95,cs)
);
}
);
width = 600;
}
);
},
{
glyphname = percent;
layers = (
{
layerId = "3D30E2C5-0B1E-4C3D-8621-C00C1C908D18";
shapes = (
{
closed = 1;
nodes = (
(314,-10,o),
(256,81,o),
(256,185,cs),
(256,289,o),
(314,380,o),
(425,380,cs),
(536,380,o),
(595,290,o),
(595,185,cs),
(595,81,o),
(536,-10,o),
(425,-10,cs)
);
},
{
closed = 1;
nodes = (
(453,110,o),
(469,146,o),
(469,185,cs),
(469,225,o),
(453,260,o),
(425,260,cs),
(397,260,o),
(381,225,o),
(381,185,cs),
(381,146,o),
(397,110,o),
(425,110,cs)
);
},
{
closed = 1;
nodes = (
(63,350,o),
(5,441,o),
(5,545,cs),
(5,649,o),
(63,740,o),
(174,740,cs),
(285,740,o),
(344,650,o),
(344,545,cs),
(344,441,o),
(285,350,o),
(174,350,cs)
);
},
{
closed = 1;
nodes = (
(202,470,o),
(218,506,o),
(218,545,cs),
(218,585,o),
(202,620,o),
(174,620,cs),
(146,620,o),
(130,585,o),
(130,545,cs),
(130,506,o),
(146,470,o),
(174,470,cs)
);
},
{
closed = 1;
nodes = (
(116,278,ls),
(135,317,o),
(164,326,o),
(204,307,cs),
(244,288,o),
(252,259,o),
(233,220,cs),
(148,43,ls),
(129,4,o),
(101,-5,o),
(61,14,cs),
(21,33,o),
(12,62,o),
(31,101,cs)
);
},
{
closed = 1;
nodes = (
(451,687,ls),
(470,726,o),
(499,735,o),
(539,716,cs),
(579,697,o),
(587,668,o),
(568,629,cs),
(483,452,ls),
(464,413,o),
(436,404,o),
(396,423,cs),
(356,442,o),
(347,471,o),
(366,510,cs)
);
}
);
width = 600;
},
{
layerId = "BD6112AA-D71A-4C36-8E9B-0F516311C436";
shapes = (
{
closed = 1;
nodes = (
(322,-10,o),
(272,74,o),
(272,175,cs),
(272,277,o),
(322,360,o),
(420,360,cs),
(521,360,o),
(570,278,o),
(570,175,cs),
(570,74,o),
(519,-10,o),
(420,-10,cs)
);
},
{
closed = 1;
nodes = (
(463,80,o),
(487,122,o),
(487,176,cs),
(487,228,o),
(463,270,o),
(419,270,cs),
(377,270,o),
(354,227,o),
(354,176,cs),
(354,122,o),
(377,80,o),
(419,80,cs)
);
},
{
closed = 1;
nodes = (
(80,370,o),
(30,454,o),
(30,555,cs),
(30,657,o),
(80,740,o),
(178,740,cs),
(279,740,o),
(328,658,o),
(328,555,cs),
(328,454,o),
(277,370,o),
(178,370,cs)
);
},
{
closed = 1;
nodes = (
(221,460,o),
(245,502,o),
(245,556,cs),
(245,608,o),
(221,650,o),
(177,650,cs),
(135,650,o),
(112,607,o),
(112,556,cs),
(112,502,o),
(135,460,o),
(177,460,cs)
);
},
{
closed = 1;
nodes = (
(160,296,ls),
(176,321,o),
(196,327,o),
(222,312,cs),
(248,297,o),
(254,275,o),
(238,250,cs),
(116,59,ls),
(100,34,o),
(80,28,o),
(54,43,cs),
(28,58,o),
(22,79,o),
(38,104,cs)
);
},
{
closed = 1;
nodes = (
(485,672,ls),
(501,697,o),
(521,703,o),
(547,688,cs),
(573,673,o),
(579,651,o),
(563,626,cs),
(441,435,ls),
(425,410,o),
(405,404,o),
(379,419,cs),
(353,434,o),
(347,455,o),
(363,480,cs)
);
}
);
width = 600;
},
{
layerId = "6081C699-E88C-443F-8307-DAA77428180B";
shapes = (
{
closed = 1;
nodes = (
(339,-10,o),
(290,62,o),
(290,165,cs),
(290,267,o),
(339,340,o),
(423,340,cs),
(509,340,o),
(555,268,o),
(555,165,cs),
(555,62,o),
(506,-10,o),
(423,-10,cs)
);
},
{
closed = 1;
nodes = (
(477,40,o),
(509,91,o),
(509,165,cs),
(509,239,o),
(478,290,o),
(423,290,cs),
(368,290,o),
(335,239,o),
(335,165,cs),
(335,91,o),
(368,40,o),
(423,40,cs)
);
},
{
closed = 1;
nodes = (
(94,390,o),
(45,462,o),
(45,565,cs),
(45,667,o),
(94,740,o),
(178,740,cs),
(264,740,o),
(310,668,o),
(310,565,cs),
(310,462,o),
(261,390,o),
(178,390,cs)
);
},
{
closed = 1;
nodes = (
(232,440,o),
(264,491,o),
(264,565,cs),
(264,639,o),
(233,690,o),
(178,690,cs),
(123,690,o),
(90,639,o),
(90,565,cs),
(90,491,o),
(123,440,o),
(178,440,cs)
);
},
{
closed = 1;
nodes = (
(208,299,ls),
(218,312,o),
(229,315,o),
(243,306,cs),
(257,297,o),
(260,285,o),
(250,271,cs),
(104,71,ls),
(94,57,o),
(83,55,o),
(69,64,cs),
(55,73,o),
(52,85,o),
(62,98,cs)
);
},
{
closed = 1;
nodes = (
(496,659,ls),
(506,672,o),
(517,675,o),
(531,666,cs),
(545,657,o),
(548,645,o),
(538,631,cs),
(392,431,ls),
(382,417,o),
(371,415,o),
(357,424,cs),
(343,433,o),
(340,445,o),
(350,458,cs)
);
}
);
width = 600;
}
);
unicode = 37;
},
{
glyphname = ampersand;
layers = (
{
layerId = "3D30E2C5-0B1E-4C3D-8621-C00C1C908D18";
shapes = (
{
closed = 1;
nodes = (
(568,94,ls),
(622,22,o),
(567,-10,o),
(518,-10,cs),
(488,-10,o),
(469,-4,o),
(460,7,cs),
(455,13,l),
(492,41,o),
(522,80,o),
(546,123,c)
);
},
{
closed = 1;
nodes = (
(119,444,ls),
(97,472,o),
(80,505,o),
(80,562,cs),
(80,667,o),
(156,740,o),
(271,740,cs),
(369,740,o),
(420,688,o),
(462,610,cs),
(484,569,o),
(473,537,o),
(428,518,cs),
(386,500,o),
(358,511,o),
(333,555,cs),
(318,582,o),
(297,605,o),
(266,605,cs),
(234,605,o),
(215,585,o),
(215,554,cs),
(215,538,o),
(221,528,o),
(232,515,cs),
(375,337,l),
(358,288,o),
(332,246,o),
(302,209,c)
);
},
{
closed = 1;
nodes = (
(195,252,l),
(190,240,o),
(187,222,o),
(187,209,cs),
(187,168,o),
(216,125,o),
(259,125,cs),
(341,125,o),
(408,248,o),
(435,347,cs),
(446,388,o),
(469,406,o),
(508,402,cs),
(550,398,o),
(569,374,o),
(562,335,cs),
(531,152,o),
(403,-10,o),
(259,-10,cs),
(131,-10,o),
(52,87,o),
(52,209,cs),
(52,269,o),
(68,319,o),
(101,373,c)
);
}
);
width = 600;
},
{
layerId = "BD6112AA-D71A-4C36-8E9B-0F516311C436";
shapes = (
{
closed = 1;
nodes = (
(563,59,ls),
(599,13,o),
(558,-10,o),
(529,-10,cs),
(509,-10,o),
(495,-3,o),
(482,13,cs),
(465,34,l),
(489,52,o),
(509,79,o),
(524,108,c)
);
},
{
closed = 1;
nodes = (
(124,471,ls),
(104,497,o),
(90,527,o),
(90,580,cs),
(90,675,o),
(158,740,o),
(263,740,cs),
(361,740,o),
(406,691,o),
(443,619,cs),
(456,593,o),
(449,574,o),
(421,562,cs),
(394,550,o),
(375,557,o),
(361,584,cs),
(342,622,o),
(318,650,o),
(264,650,cs),
(217,650,o),
(180,616,o),
(180,571,cs),
(180,543,o),
(192,528,o),
(208,508,cs),
(386,283,l),
(376,256,o),
(349,222,o),
(331,206,c)
);
},
{
closed = 1;
nodes = (
(184,306,l),
(162,271,o),
(151,239,o),
(151,195,cs),
(151,129,o),
(182,91,o),
(250,91,cs),
(341,91,o),
(434,225,o),
(458,331,cs),
(465,362,o),
(480,375,o),
(509,373,cs),
(540,371,o),
(554,353,o),
(551,324,cs),
(531,148,o),
(396,-10,o),
(250,-10,cs),
(131,-10,o),
(58,80,o),
(58,195,cs),
(58,272,o),
(77,330,o),
(119,388,c)
);
}
);
width = 600;
},
{
layerId = "6081C699-E88C-443F-8307-DAA77428180B";
shapes = (
{
closed = 1;
nodes = (
(555,37,ls),
(581,5,o),
(553,-10,o),
(532,-10,cs),
(522,-10,o),
(514,-6,o),
(508,2,cs),
(472,47,l),
(486,62,o),
(497,79,o),
(507,96,c)
);
},
{
closed = 1;
nodes = (
(127,489,ls),
(108,513,o),
(96,542,o),
(96,592,cs),
(96,680,o),
(160,740,o),
(258,740,cs),
(350,740,o),
(395,694,o),
(430,624,cs),
(438,609,o),
(435,597,o),
(420,587,cs),
(406,577,o),
(396,580,o),
(388,596,cs),
(361,652,o),
(321,690,o),
(259,690,cs),
(198,690,o),
(150,641,o),
(150,582,cs),
(150,546,o),
(163,527,o),
(182,503,cs),
(405,225,l),
(395,207,o),
(383,192,o),
(371,178,c)
);
},
{
closed = 1;
nodes = (
(168,354,l),
(132,307,o),
(110,252,o),
(110,186,cs),
(110,103,o),
(159,40,o),
(244,40,cs),
(360,40,o),
(464,193,o),
(489,330,cs),
(492,348,o),
(502,355,o),
(519,353,cs),
(537,351,o),
(545,341,o),
(543,324,cs),
(522,157,o),
(388,-10,o),
(244,-10,cs),
(131,-10,o),
(60,76,o),
(60,186,cs),
(60,276,o),
(90,343,o),
(135,396,c)
);
}
);
width = 600;
}
);
unicode = 38;
},
{
glyphname = parenleft;
layers = (
{
layerId = "3D30E2C5-0B1E-4C3D-8621-C00C1C908D18";
shapes = (
{
closed = 1;
nodes = (
(469,-69,o),
(459,-114,o),
(417,-114,cs),
(402,-114,o),
(387,-109,o),
(374,-102,cs),
(202,-14,o),
(134,178,o),
(134,358,cs),
(134,546,o),
(194,733,o),
(375,823,cs),
(388,829,o),
(402,834,o),
(417,834,cs),
(459,834,o),
(469,791,o),
(469,757,cs),
(469,722,o),
(452,708,o),
(422,690,cs),
(405,680,o),
(388,663,o),
(374,648,cs),
(305,575,o),
(278,449,o),
(278,358,cs),
(278,268,o),
(307,149,o),
(374,77,cs),
(388,62,o),
(404,46,o),
(422,34,cs),
(449,16,o),
(469,1,o),
(469,-35,cs)
);
}
);
width = 600;
},
{
layerId = "BD6112AA-D71A-4C36-8E9B-0F516311C436";
shapes = (
{
closed = 1;
nodes = (
(454,-89,o),
(447,-114,o),
(421,-114,cs),
(413,-114,o),
(405,-112,o),
(398,-109,cs),
(205,-32,o),
(149,180,o),
(149,363,cs),
(149,543,o),
(209,753,o),
(398,829,cs),
(405,832,o),
(413,834,o),
(421,834,cs),
(447,834,o),
(454,809,o),
(454,787,cs),
(454,766,o),
(444,757,o),
(426,749,cs),
(398,737,o),
(374,713,o),
(352,691,cs),
(269,611,o),
(234,476,o),
(234,364,cs),
(234,245,o),
(264,115,o),
(352,29,cs),
(374,7,o),
(398,-17,o),
(426,-29,cs),
(444,-37,o),
(454,-46,o),
(454,-67,cs)
);
}
);
width = 601;
},
{
layerId = "6081C699-E88C-443F-8307-DAA77428180B";
shapes = (
{
closed = 1;
nodes = (
(441,-100,o),
(438,-113,o),
(424,-113,cs),
(420,-113,o),
(416,-113,o),
(412,-111,cs),
(219,-35,o),
(160,172,o),
(160,356,cs),
(160,545,o),
(211,753,o),
(412,831,cs),
(416,832,o),
(420,833,o),
(424,833,cs),
(438,833,o),
(441,820,o),
(441,809,cs),
(441,797,o),
(436,793,o),
(426,789,cs),
(390,773,o),
(361,749,o),
(332,721,cs),
(239,633,o),
(210,487,o),
(210,364,cs),
(210,236,o),
(235,92,o),
(332,-1,cs),
(361,-29,o),
(390,-53,o),
(426,-69,cs),
(436,-73,o),
(441,-77,o),
(441,-89,cs)
);
}
);
width = 600;
}
);
unicode = 40;
},
{
glyphname = parenright;
layers = (
{
layerId = "3D30E2C5-0B1E-4C3D-8621-C00C1C908D18";
shapes = (
{
closed = 1;
nodes = (
(131,1,o),
(151,16,o),
(178,34,cs),
(196,46,o),
(212,62,o),
(226,77,cs),
(293,149,o),
(322,268,o),
(322,358,cs),
(322,449,o),
(295,575,o),
(226,648,cs),
(212,663,o),
(195,680,o),
(178,690,cs),
(148,708,o),
(131,722,o),
(131,757,cs),
(131,791,o),
(141,834,o),
(183,834,cs),
(198,834,o),
(212,829,o),
(225,823,cs),
(406,733,o),
(466,546,o),
(466,358,cs),
(466,178,o),
(398,-14,o),
(226,-102,cs),
(213,-109,o),
(198,-114,o),
(183,-114,cs),
(141,-114,o),
(131,-69,o),
(131,-35,cs)
);
}
);
width = 600;
},
{
layerId = "BD6112AA-D71A-4C36-8E9B-0F516311C436";
shapes = (
{
closed = 1;
nodes = (
(147,-46,o),
(157,-37,o),
(175,-29,cs),
(203,-17,o),
(227,7,o),
(249,29,cs),
(337,115,o),
(367,245,o),
(367,364,cs),
(367,476,o),
(332,611,o),
(249,691,cs),
(227,713,o),
(203,737,o),
(175,749,cs),
(157,757,o),
(147,766,o),
(147,787,cs),
(147,809,o),
(154,834,o),
(180,834,cs),
(188,834,o),
(196,832,o),
(203,829,cs),
(392,753,o),
(452,543,o),
(452,363,cs),
(452,180,o),
(396,-32,o),
(203,-109,cs),
(196,-112,o),
(188,-114,o),
(180,-114,cs),
(154,-114,o),
(147,-89,o),
(147,-67,cs)
);
}
);
width = 601;
},
{
layerId = "6081C699-E88C-443F-8307-DAA77428180B";
shapes = (
{
closed = 1;
nodes = (
(159,-77,o),
(164,-73,o),
(174,-69,cs),
(210,-53,o),
(239,-29,o),
(268,-1,cs),
(365,92,o),
(390,236,o),
(390,364,cs),
(390,487,o),
(361,633,o),
(268,721,cs),
(239,749,o),
(210,773,o),
(174,789,cs),
(164,793,o),
(159,797,o),
(159,809,cs),
(159,820,o),
(162,833,o),
(176,833,cs),
(180,833,o),
(184,832,o),
(188,831,cs),
(389,753,o),
(440,545,o),
(440,356,cs),
(440,172,o),
(381,-35,o),
(188,-111,cs),
(184,-113,o),
(180,-113,o),
(176,-113,cs),
(162,-113,o),
(159,-100,o),
(159,-89,cs)
);
}
);
width = 600;
}
);
unicode = 41;
},
{
glyphname = braceleft;
layers = (
{
layerId = "3D30E2C5-0B1E-4C3D-8621-C00C1C908D18";
shapes = (
{
closed = 1;
nodes = (
(160,269,ls),
(113,269,o),
(90,292,o),
(90,339,cs),
(90,386,o),
(113,409,o),
(160,409,cs),
(164,409,ls),
(184,409,o),
(220,448,o),
(220,489,qs),
(220,650,ls),
(220,704,o),
(256,785,o),
(341,830,o),
(400,830,qs),
(440,830,ls),
(487,830,o),
(510,807,o),
(510,760,cs),
(510,713,o),
(487,690,o),
(440,690,cs),
(430,690,ls),
(401,690,o),
(370,657,o),
(370,630,qs),
(370,459,ls),
(370,423,o),
(338,368,o),
(310,356,qs),
(302,352,o),
(294,349,qs),
(275,342,o),
(275,338,o),
(294,331,cs),
(302,328,o),
(310,324,qs),
(338,312,o),
(370,256,o),
(370,219,qs),
(370,50,ls),
(370,23,o),
(400,-10,o),
(430,-10,qs),
(440,-10,ls),
(487,-10,o),
(510,-33,o),
(510,-80,cs),
(510,-127,o),
(487,-150,o),
(440,-150,cs),
(400,-150,ls),
(341,-150,o),
(255,-103,o),
(220,-20,o),
(220,35,qs),
(220,189,ls),
(220,231,o),
(184,269,o),
(164,269,qs)
);
}
);
width = 600;
},
{
layerId = "BD6112AA-D71A-4C36-8E9B-0F516311C436";
shapes = (
{
closed = 1;
nodes = (
(150,300,ls),
(123,300,o),
(110,313,o),
(110,340,cs),
(110,367,o),
(123,380,o),
(150,380,cs),
(155,380,ls),
(210,380,o),
(245,427,o),
(245,480,qs),
(245,664,ls),
(245,717,o),
(284,791,o),
(361,830,o),
(420,830,qs),
(450,830,ls),
(475,830,o),
(490,812,o),
(490,785,cs),
(490,758,o),
(475,740,o),
(450,740,cs),
(420,740,ls),
(373,740,o),
(335,697,o),
(335,654,qs),
(335,480,ls),
(335,437,o),
(305,375,o),
(291,364,qs),
(282,356,o),
(264,349,qs),
(249,343,o),
(248,340,o),
(264,335,cs),
(282,329,o),
(291,321,qs),
(305,308,o),
(335,243,o),
(335,200,qs),
(335,26,ls),
(335,-17,o),
(373,-60,o),
(420,-60,qs),
(450,-60,ls),
(475,-60,o),
(490,-78,o),
(490,-105,cs),
(490,-132,o),
(475,-150,o),
(450,-150,cs),
(420,-150,ls),
(361,-150,o),
(284,-111,o),
(245,-36,o),
(245,16,qs),
(245,200,ls),
(245,253,o),
(210,300,o),
(155,300,qs)
);
}
);
width = 600;
},
{
layerId = "6081C699-E88C-443F-8307-DAA77428180B";
shapes = (
{
closed = 1;
nodes = (
(153,316,ls),
(138,316,o),
(130,324,o),
(130,339,cs),
(130,354,o),
(138,362,o),
(153,362,cs),
(160,362,ls),
(202,362,o),
(255,407,o),
(255,462,qs),
(255,680,ls),
(255,727,o),
(283,794,o),
(357,830,o),
(405,830,qs),
(447,830,ls),
(462,830,o),
(470,820,o),
(470,805,cs),
(470,790,o),
(462,780,o),
(447,780,cs),
(405,780,ls),
(359,780,o),
(305,724,o),
(305,675,qs),
(305,462,ls),
(305,425,o),
(286,368,o),
(266,356,qs),
(257,351,o),
(249,347,qs),
(237,341,o),
(237,339,o),
(249,333,cs),
(257,329,o),
(266,324,qs),
(286,312,o),
(305,255,o),
(305,217,qs),
(305,5,ls),
(305,-44,o),
(359,-100,o),
(405,-100,qs),
(447,-100,ls),
(462,-100,o),
(470,-110,o),
(470,-125,cs),
(470,-140,o),
(462,-150,o),
(447,-150,cs),
(405,-150,ls),
(357,-150,o),
(283,-114,o),
(255,-47,o),
(255,0,qs),
(255,217,ls),
(255,270,o),
(205,316,o),
(160,316,qs)
);
}
);
width = 600;
}
);
unicode = 123;
},
{
glyphname = bar;
layers = (
{
layerId = "3D30E2C5-0B1E-4C3D-8621-C00C1C908D18";
shapes = (
{
closed = 1;
nodes = (
(225,-45,ls),
(225,-95,o),
(250,-120,o),
(300,-120,cs),
(350,-120,o),
(375,-95,o),
(375,-45,cs),
(375,765,ls),
(375,815,o),
(350,840,o),
(300,840,cs),
(250,840,o),
(225,815,o),
(225,765,cs)
);
}
);
width = 600;
},
{
layerId = "BD6112AA-D71A-4C36-8E9B-0F516311C436";
shapes = (
{
closed = 1;
nodes = (
(255,-75,ls),
(255,-105,o),
(270,-120,o),
(300,-120,cs),
(330,-120,o),
(345,-105,o),
(345,-75,cs),
(345,795,ls),
(345,825,o),
(330,840,o),
(300,840,cs),
(270,840,o),
(255,825,o),
(255,795,cs)
);
}
);
width = 600;
},
{
layerId = "6081C699-E88C-443F-8307-DAA77428180B";
shapes = (
{
closed = 1;
nodes = (
(275,-95,ls),
(275,-112,o),
(283,-120,o),
(300,-120,cs),
(317,-120,o),
(325,-112,o),
(325,-95,cs),
(325,815,ls),
(325,832,o),
(317,840,o),
(300,840,cs),
(283,840,o),
(275,832,o),
(275,815,cs)
);
}
);
width = 600;
}
);
unicode = 124;
},
{
glyphname = bracketleft;
layers = (
{
layerId = "3D30E2C5-0B1E-4C3D-8621-C00C1C908D18";
shapes = (
{
closed = 1;
nodes = (
(230,-150,ls),
(163,-150,o),
(130,-117,o),
(130,-50,cs),
(130,730,ls),
(130,797,o),
(163,830,o),
(230,830,cs),
(400,830,ls),
(447,830,o),
(470,807,o),
(470,760,cs),
(470,713,o),
(447,690,o),
(400,690,cs),
(330,690,ls),
(297,690,o),
(280,674,o),
(280,640,cs),
(280,40,ls),
(280,6,o),
(297,-10,o),
(330,-10,cs),
(400,-10,ls),
(447,-10,o),
(470,-33,o),
(470,-80,cs),
(470,-127,o),
(447,-150,o),
(400,-150,cs)
);
}
);
width = 600;
},
{
layerId = "BD6112AA-D71A-4C36-8E9B-0F516311C436";
shapes = (
{
closed = 1;
nodes = (
(230,-150,ls),
(176,-150,o),
(150,-124,o),
(150,-70,cs),
(150,750,ls),
(150,804,o),
(176,830,o),
(230,830,cs),
(410,830,ls),
(435,830,o),
(450,812,o),
(450,785,cs),
(450,758,o),
(435,740,o),
(410,740,cs),
(280,740,ls),
(253,740,o),
(240,727,o),
(240,700,cs),
(240,-20,ls),
(240,-47,o),
(253,-60,o),
(280,-60,cs),
(410,-60,ls),
(435,-60,o),
(450,-78,o),
(450,-105,cs),
(450,-132,o),
(435,-150,o),
(410,-150,cs)
);
}
);
width = 600;
},
{
layerId = "6081C699-E88C-443F-8307-DAA77428180B";
shapes = (
{
closed = 1;
nodes = (
(230,-150,ls),
(190,-150,o),
(170,-130,o),
(170,-90,cs),
(170,770,ls),
(170,810,o),
(190,830,o),
(230,830,cs),
(407,830,ls),
(422,830,o),
(430,820,o),
(430,805,cs),
(430,790,o),
(422,780,o),
(407,780,cs),
(250,780,ls),
(230,780,o),
(220,765,o),
(220,745,cs),
(220,-70,ls),
(220,-90,o),
(230,-100,o),
(250,-100,cs),
(407,-100,ls),
(422,-100,o),
(430,-110,o),
(430,-125,cs),
(430,-140,o),
(422,-150,o),
(407,-150,cs)
);
}
);
width = 600;
}
);
unicode = 91;
},
{
glyphname = bracketright;
layers = (
{
layerId = "3D30E2C5-0B1E-4C3D-8621-C00C1C908D18";
shapes = (
{
closed = 1;
nodes = (
(200,-110,ls),
(153,-110,o),
(130,-87,o),
(130,-40,cs),
(130,7,o),
(153,30,o),
(200,30,cs),
(270,30,ls),
(303,30,o),
(320,46,o),
(320,80,cs),
(320,640,ls),
(320,674,o),
(303,690,o),
(270,690,cs),
(200,690,ls),
(153,690,o),
(130,713,o),
(130,760,cs),
(130,807,o),
(153,830,o),
(200,830,cs),
(370,830,ls),
(437,830,o),
(470,797,o),
(470,730,cs),
(470,-10,ls),
(470,-77,o),
(437,-110,o),
(370,-110,cs)
);
}
);
width = 600;
},
{
layerId = "BD6112AA-D71A-4C36-8E9B-0F516311C436";
shapes = (
{
closed = 1;
nodes = (
(190,-110,ls),
(163,-110,o),
(150,-97,o),
(150,-70,cs),
(150,-43,o),
(163,-30,o),
(190,-30,cs),
(320,-30,ls),
(347,-30,o),
(360,-17,o),
(360,10,cs),
(360,710,ls),
(360,737,o),
(347,750,o),
(320,750,cs),
(190,750,ls),
(163,750,o),
(150,763,o),
(150,790,cs),
(150,817,o),
(163,830,o),
(190,830,cs),
(370,830,ls),
(424,830,o),
(450,804,o),
(450,750,cs),
(450,-30,ls),
(450,-84,o),
(424,-110,o),
(370,-110,cs)
);
}
);
width = 600;
},
{
layerId = "6081C699-E88C-443F-8307-DAA77428180B";
shapes = (
{
closed = 1;
nodes = (
(193,-110,ls),
(178,-110,o),
(170,-103,o),
(170,-88,cs),
(170,-73,o),
(178,-65,o),
(193,-65,cs),
(350,-65,ls),
(370,-65,o),
(380,-55,o),
(380,-35,cs),
(380,755,ls),
(380,775,o),
(370,785,o),
(350,785,cs),
(193,785,ls),
(178,785,o),
(170,793,o),
(170,808,cs),
(170,823,o),
(178,830,o),
(193,830,cs),
(370,830,ls),
(410,830,o),
(430,810,o),
(430,770,cs),
(430,-50,ls),
(430,-90,o),
(410,-110,o),
(370,-110,cs)
);
}
);
width = 600;
}
);
unicode = 93;
},
{
glyphname = B;
layers = (
{
layerId = "3D30E2C5-0B1E-4C3D-8621-C00C1C908D18";
shapes = (
{
closed = 1;
nodes = (
(439,391,o),
(439,385,o),
(451,381,cs),
(475,374,o),
(495,359,qs),
(527,335,o),
(561,258,o),
(561,211,qs),
(561,148,o),
(498,53,o),
(385,0,o),
(310,0,qs),
(156,0,ls),
(106,0,o),
(66,40,o),
(66,90,cs),
(66,630,ls),
(66,700,o),
(96,730,o),
(166,730,cs),
(301,730,ls),
(374,730,o),
(483,683,o),
(544,599,o),
(544,542,qs),
(544,501,o),
(514,436,o),
(486,415,qs),
(470,403,o),
(451,395,qs)
);
},
{
closed = 1;
nodes = (
(241,318,ls),
(226,318,o),
(216,308,o),
(216,293,cs),
(216,160,ls),
(216,135,o),
(231,120,o),
(256,120,cs),
(305,120,ls),
(354,120,o),
(411,172,o),
(411,219,qs),
(411,265,o),
(354,318,o),
(305,318,qs)
);
},
{
closed = 1;
nodes = (
(216,463,ls),
(216,448,o),
(226,438,o),
(241,438,cs),
(299,438,ls),
(343,438,o),
(394,483,o),
(394,523,qs),
(394,564,o),
(343,610,o),
(299,610,qs),
(256,610,ls),
(231,610,o),
(216,595,o),
(216,570,cs)
);
}
);
width = 600;
},
{
layerId = "BD6112AA-D71A-4C36-8E9B-0F516311C436";
shapes = (
{
closed = 1;
nodes = (
(399,381,o),
(400,378,o),
(409,375,cs),
(441,366,o),
(466,348,qs),
(500,324,o),
(530,259,o),
(530,213,qs),
(530,151,o),
(478,49,o),
(382,0,o),
(315,0,qs),
(172,0,ls),
(116,0,o),
(93,23,o),
(93,80,cs),
(93,650,ls),
(93,707,o),
(116,730,o),
(172,730,cs),
(299,730,ls),
(367,730,o),
(462,685,o),
(513,600,o),
(513,541,qs),
(513,504,o),
(487,441,o),
(464,418,qs),
(443,397,o),
(408,384,qs)
);
},
{
closed = 1;
nodes = (
(207,329,ls),
(190,329,o),
(182,321,o),
(182,304,cs),
(182,130,ls),
(182,102,o),
(194,90,o),
(222,90,cs),
(305,90,ls),
(368,90,o),
(441,158,o),
(441,216,qs),
(441,278,o),
(371,329,o),
(305,329,qs)
);
},
{
closed = 1;
nodes = (
(182,444,ls),
(182,427,o),
(190,419,o),
(207,419,cs),
(298,419,ls),
(367,419,o),
(424,481,o),
(424,534,qs),
(424,587,o),
(358,640,o),
(299,640,qs),
(222,640,ls),
(193,640,o),
(182,628,o),
(182,600,cs)
);
}
);
width = 600;
},
{
layerId = "6081C699-E88C-443F-8307-DAA77428180B";
shapes = (
{
closed = 1;
nodes = (
(389,376,o),
(391,373,o),
(395,372,cs),
(432,362,o),
(454,341,qs),
(484,313,o),
(515,245,o),
(515,200,qs),
(515,139,o),
(462,49,o),
(367,0,o),
(301,0,qs),
(180,0,ls),
(136,0,o),
(110,26,o),
(110,70,cs),
(110,660,ls),
(110,704,o),
(136,730,o),
(180,730,cs),
(298,730,ls),
(359,730,o),
(448,684,o),
(498,599,o),
(498,542,qs),
(498,505,o),
(480,443,o),
(456,416,qs),
(437,394,o),
(394,378,qs)
);
},
{
closed = 1;
nodes = (
(175,348,ls),
(166,348,o),
(160,342,o),
(160,333,cs),
(160,85,ls),
(160,63,o),
(173,50,o),
(195,50,cs),
(301,50,ls),
(378,50,o),
(465,128,o),
(465,199,qs),
(465,270,o),
(374,348,o),
(301,348,qs)
);
},
{
closed = 1;
nodes = (
(160,413,ls),
(160,404,o),
(166,398,o),
(175,398,cs),
(298,398,ls),
(362,398,o),
(448,474,o),
(448,541,qs),
(448,608,o),
(368,680,o),
(298,680,qs),
(195,680,ls),
(173,680,o),
(160,667,o),
(160,645,cs)
);
}
);
width = 600;
}
);
unicode = 66;
},
{
glyphname = asciitilde;
layers = (
{
layerId = "3D30E2C5-0B1E-4C3D-8621-C00C1C908D18";
shapes = (
{
closed = 1;
nodes = (
(65,215,o),
(40,235,o),
(40,275,cs),
(40,330,ls),
(40,394,o),
(125,470,o),
(195,470,qs),
(238,470,o),
(295,452,o),
(332,410,o),
(359,368,o),
(385,340,o),
(400,340,qs),
(415,340,o),
(430,359,o),
(430,375,qs),
(430,410,ls),
(430,450,o),
(455,470,o),
(495,470,cs),
(535,470,o),
(560,450,o),
(560,410,cs),
(560,355,ls),
(560,291,o),
(476,215,o),
(405,215,qs),
(362,215,o),
(305,233,o),
(268,275,o),
(241,317,o),
(215,345,o),
(200,345,qs),
(185,345,o),
(170,327,o),
(170,310,qs),
(170,275,ls),
(170,235,o),
(145,215,o),
(105,215,cs)
);
}
);
width = 600;
},
{
layerId = "BD6112AA-D71A-4C36-8E9B-0F516311C436";
shapes = (
{
closed = 1;
nodes = (
(87,240,o),
(70,254,o),
(70,282,cs),
(70,315,ls),
(70,374,o),
(142,445,o),
(200,445,qs),
(237,445,o),
(287,419,o),
(321,385,o),
(348,346,o),
(378,320,o),
(398,320,qs),
(421,320,o),
(440,348,o),
(440,370,qs),
(440,403,ls),
(440,431,o),
(457,445,o),
(485,445,cs),
(513,445,o),
(530,431,o),
(530,403,cs),
(530,370,ls),
(530,312,o),
(459,240,o),
(400,240,qs),
(363,240,o),
(313,261,o),
(279,300,o),
(252,339,o),
(222,365,o),
(202,365,qs),
(180,365,o),
(160,337,o),
(160,315,qs),
(160,282,ls),
(160,254,o),
(143,240,o),
(115,240,cs)
);
}
);
width = 600;
},
{
layerId = "6081C699-E88C-443F-8307-DAA77428180B";
shapes = (
{
closed = 1;
nodes = (
(100,250,o),
(90,258,o),
(90,273,cs),
(90,325,ls),
(90,376,o),
(146,435,o),
(195,435,qs),
(230,435,o),
(277,401,o),
(313,364,o),
(345,326,o),
(383,297,o),
(410,297,qs),
(436,297,o),
(460,333,o),
(460,365,qs),
(460,412,ls),
(460,427,o),
(470,435,o),
(485,435,cs),
(500,435,o),
(510,427,o),
(510,412,cs),
(510,360,ls),
(510,308,o),
(457,250,o),
(410,250,qs),
(374,250,o),
(325,279,o),
(289,322,o),
(257,359,o),
(221,388,o),
(195,388,qs),
(167,388,o),
(140,352,o),
(140,325,qs),
(140,273,ls),
(140,258,o),
(130,250,o),
(115,250,cs)
);
}
);
width = 600;
}
);
unicode = 126;
},
{
glyphname = underscore;
layers = (
{
layerId = "3D30E2C5-0B1E-4C3D-8621-C00C1C908D18";
shapes = (
{
closed = 1;
nodes = (
(130,-150,ls),
(80,-150,o),
(55,-127,o),
(55,-80,cs),
(55,-34,o),
(80,-10,o),
(130,-10,cs),
(470,-10,ls),
(520,-10,o),
(545,-34,o),
(545,-80,cs),
(545,-127,o),
(520,-150,o),
(470,-150,cs)
);
}
);
width = 600;
},
{
layerId = "BD6112AA-D71A-4C36-8E9B-0F516311C436";
shapes = (
{
closed = 1;
nodes = (
(110,-150,ls),
(80,-150,o),
(65,-135,o),
(65,-105,cs),
(65,-75,o),
(80,-60,o),
(110,-60,cs),
(490,-60,ls),
(520,-60,o),
(535,-75,o),
(535,-105,cs),
(535,-135,o),
(520,-150,o),
(490,-150,cs)
);
}
);
width = 600;
},
{
layerId = "6081C699-E88C-443F-8307-DAA77428180B";
shapes = (
{
closed = 1;
nodes = (
(100,-150,ls),
(83,-150,o),
(75,-142,o),
(75,-125,cs),
(75,-108,o),
(83,-100,o),
(100,-100,cs),
(500,-100,ls),
(517,-100,o),
(525,-108,o),
(525,-125,cs),
(525,-142,o),
(517,-150,o),
(500,-150,cs)
);
}
);
width = 600;
}
);
unicode = 95;
},
{
glyphname = grave;
layers = (
{
layerId = "3D30E2C5-0B1E-4C3D-8621-C00C1C908D18";
shapes = (
{
closed = 1;
nodes = (
(317.46,510.441,ls),
(352.8,475.071,o),
(388.155,475.056,o),
(423.525,510.396,cs),
(458.895,545.736,o),
(458.91,581.091,o),
(423.57,616.461,cs),
(282.21,757.941,ls),
(246.87,793.311,o),
(211.515,793.326,o),
(176.145,757.986,cs),
(140.775,722.646,o),
(140.76,687.291,o),
(176.1,651.921,cs)
);
}
);
width = 600;
},
{
layerId = "BD6112AA-D71A-4C36-8E9B-0F516311C436";
shapes = (
{
closed = 1;
nodes = (
(360,511,ls),
(381,490,o),
(403,490,o),
(424,511,cs),
(445,532,o),
(445,554,o),
(424,575,cs),
(240,759,ls),
(219,780,o),
(197,780,o),
(176,759,cs),
(155,738,o),
(155,716,o),
(176,695,cs)
);
}
);
width = 600;
},
{
layerId = "6081C699-E88C-443F-8307-DAA77428180B";
shapes = (
{
closed = 1;
nodes = (
(388.621,510.306,ls),
(400.649,498.293,o),
(411.963,498.299,o),
(423.976,510.326,cs),
(435.99,522.354,o),
(435.984,533.668,o),
(423.956,545.681,cs),
(211.706,757.691,ls),
(199.679,769.705,o),
(188.365,769.699,o),
(176.351,757.671,cs),
(164.338,745.644,o),
(164.344,734.33,o),
(176.371,722.316,cs)
);
}
);
width = 600;
}
);
unicode = 96;
},
{
glyphname = V;
layers = (
{
layerId = "3D30E2C5-0B1E-4C3D-8621-C00C1C908D18";
shapes = (
{
closed = 1;
nodes = (
(206,62,ls),
(219,13,o),
(250,-10,o),
(300,-10,cs),
(350,-10,o),
(381,13,o),
(394,62,cs),
(554,662,ls),
(568,714,o),
(528,740,o),
(494,740,cs),
(458,740,o),
(430,723,o),
(422,688,cs),
(319,263,ls),
(311,230,o),
(289,230,o),
(281,263,cs),
(178,688,ls),
(170,723,o),
(142,740,o),
(106,740,cs),
(72,740,o),
(32,714,o),
(46,662,cs)
);
}
);
width = 600;
},
{
layerId = "BD6112AA-D71A-4C36-8E9B-0F516311C436";
shapes = (
{
closed = 1;
nodes = (
(237,38,ls),
(246,6,o),
(267,-10,o),
(300,-10,cs),
(334,-10,o),
(354,6,o),
(363,38,cs),
(536,688,ls),
(543,714,o),
(527,740,o),
(496,740,cs),
(472,740,o),
(452,728,o),
(446,705,cs),
(315,185,ls),
(307,155,o),
(293,155,o),
(285,185,cs),
(154,705,ls),
(148,728,o),
(128,740,o),
(104,740,cs),
(73,740,o),
(57,714,o),
(64,688,cs)
);
}
);
width = 600;
},
{
layerId = "6081C699-E88C-443F-8307-DAA77428180B";
shapes = (
{
closed = 1;
nodes = (
(262,19,ls),
(267,0,o),
(280,-10,o),
(300,-10,cs),
(320,-10,o),
(333,0,o),
(338,19,cs),
(522,711,ls),
(526,727,o),
(510,740,o),
(500,740,cs),
(487,740,o),
(473,734,o),
(470,721,cs),
(310,100,ls),
(305,80,o),
(295,80,o),
(290,100,cs),
(130,721,ls),
(127,734,o),
(113,740,o),
(100,740,cs),
(90,740,o),
(74,727,o),
(78,711,cs)
);
}
);
width = 600;
}
);
unicode = 86;
},
{
glyphname = p;
layers = (
{
layerId = "3D30E2C5-0B1E-4C3D-8621-C00C1C908D18";
shapes = (
{
closed = 1;
nodes = (
(232,504,o),
(245,516,qs),
(296,560,o),
(362,560,qs),
(442,560,o),
(560,429,o),
(560,275,qs),
(560,121,o),
(438,-10,o),
(358,-10,qs),
(288,-10,o),
(245,25,qs),
(237,31,o),
(231,36,qs),
(225,41,o),
(216,39,o),
(216,31,cs),
(216,-115,ls),
(216,-165,o),
(191,-190,o),
(141,-190,cs),
(91,-190,o),
(66,-165,o),
(66,-115,cs),
(66,487,ls),
(66,536,o),
(90,560,o),
(139,560,cs),
(188,560,o),
(211,537,o),
(211,488,cs),
(211,486,ls),
(211,481,o),
(215,481,o),
(218,485,cs)
);
},
{
closed = 1;
nodes = (
(271,410,o),
(216,351,o),
(216,315,qs),
(216,235,ls),
(216,189,o),
(271,130,o),
(314,130,qs),
(355,130,o),
(410,191,o),
(410,275,qs),
(410,358,o),
(355,410,o),
(314,410,qs)
);
}
);
width = 600;
},
{
layerId = "BD6112AA-D71A-4C36-8E9B-0F516311C436";
shapes = (
{
closed = 1;
nodes = (
(210,505,o),
(232,523,qs),
(277,560,o),
(342,560,qs),
(425,560,o),
(533,425,o),
(533,275,qs),
(533,125,o),
(425,-10,o),
(342,-10,qs),
(275,-10,o),
(232,27,qs),
(209,47,o),
(196,74,qs),
(195,77,o),
(192,77,o),
(192,74,cs),
(192,-145,ls),
(192,-175,o),
(177,-190,o),
(147,-190,cs),
(117,-190,o),
(102,-175,o),
(102,-145,cs),
(102,515,ls),
(102,545,o),
(117,560,o),
(147,560,cs),
(177,560,o),
(192,545,o),
(192,515,cs),
(192,476,ls),
(192,474,o),
(195,473,o),
(196,476,cs)
);
},
{
closed = 1;
nodes = (
(270,477,o),
(192,387,o),
(192,345,qs),
(192,235,ls),
(192,169,o),
(276,75,o),
(315,75,qs),
(370,75,o),
(443,157,o),
(443,275,qs),
(443,392,o),
(369,477,o),
(322,477,qs)
);
}
);
width = 600;
},
{
layerId = "6081C699-E88C-443F-8307-DAA77428180B";
shapes = (
{
closed = 1;
nodes = (
(186,499,o),
(209,519,qs),
(257,560,o),
(323,560,qs),
(406,560,o),
(515,421,o),
(515,275,qs),
(515,130,o),
(406,-10,o),
(323,-10,qs),
(257,-10,o),
(209,31,qs),
(186,51,o),
(175,76,qs),
(174,79,o),
(170,79,o),
(170,75,cs),
(170,-165,ls),
(170,-182,o),
(162,-190,o),
(145,-190,cs),
(128,-190,o),
(120,-182,o),
(120,-165,cs),
(120,535,ls),
(120,552,o),
(128,560,o),
(145,560,cs),
(162,560,o),
(170,552,o),
(170,535,cs),
(170,475,ls),
(170,471,o),
(173,470,o),
(175,474,cs)
);
},
{
closed = 1;
nodes = (
(261,512,o),
(170,419,o),
(170,356,qs),
(170,195,ls),
(170,141,o),
(260,38,o),
(313,38,qs),
(380,38,o),
(465,146,o),
(465,275,qs),
(465,405,o),
(380,512,o),
(313,512,qs)
);
}
);
width = 600;
}
);
unicode = 112;
},
{
glyphname = q;
layers = (
{
layerId = "3D30E2C5-0B1E-4C3D-8621-C00C1C908D18";
shapes = (
{
closed = 1;
nodes = (
(385,481,o),
(389,481,o),
(389,486,cs),
(389,488,ls),
(389,537,o),
(412,560,o),
(461,560,cs),
(510,560,o),
(534,536,o),
(534,487,cs),
(534,-115,ls),
(534,-165,o),
(509,-190,o),
(459,-190,cs),
(409,-190,o),
(384,-165,o),
(384,-115,cs),
(384,31,ls),
(384,39,o),
(375,41,o),
(369,36,cs),
(363,31,o),
(355,25,qs),
(312,-10,o),
(242,-10,qs),
(162,-10,o),
(40,121,o),
(40,275,qs),
(40,429,o),
(158,560,o),
(238,560,qs),
(304,560,o),
(355,516,qs),
(368,504,o),
(382,485,qs)
);
},
{
closed = 1;
nodes = (
(245,410,o),
(190,358,o),
(190,275,qs),
(190,191,o),
(245,130,o),
(286,130,qs),
(329,130,o),
(384,189,o),
(384,235,qs),
(384,315,ls),
(384,351,o),
(329,410,o),
(286,410,qs)
);
}
);
width = 600;
},
{
layerId = "BD6112AA-D71A-4C36-8E9B-0F516311C436";
shapes = (
{
closed = 1;
nodes = (
(415,473,o),
(418,474,o),
(418,476,cs),
(418,515,ls),
(418,545,o),
(433,560,o),
(463,560,cs),
(493,560,o),
(508,545,o),
(508,515,cs),
(508,-145,ls),
(508,-175,o),
(493,-190,o),
(463,-190,cs),
(433,-190,o),
(418,-175,o),
(418,-145,cs),
(418,74,ls),
(418,77,o),
(415,77,o),
(414,74,cs),
(401,47,o),
(378,27,qs),
(335,-10,o),
(268,-10,qs),
(185,-10,o),
(77,125,o),
(77,275,qs),
(77,425,o),
(185,560,o),
(268,560,qs),
(333,560,o),
(378,523,qs),
(400,505,o),
(414,476,qs)
);
},
{
closed = 1;
nodes = (
(241,477,o),
(167,392,o),
(167,275,qs),
(167,157,o),
(240,75,o),
(295,75,qs),
(334,75,o),
(418,169,o),
(418,235,qs),
(418,345,ls),
(418,387,o),
(340,477,o),
(288,477,qs)
);
}
);
width = 600;
},
{
layerId = "6081C699-E88C-443F-8307-DAA77428180B";
shapes = (
{
closed = 1;
nodes = (
(437,470,o),
(440,471,o),
(440,475,cs),
(440,535,ls),
(440,552,o),
(448,560,o),
(465,560,cs),
(482,560,o),
(490,552,o),
(490,535,cs),
(490,-165,ls),
(490,-182,o),
(482,-190,o),
(465,-190,cs),
(448,-190,o),
(440,-182,o),
(440,-165,cs),
(440,75,ls),
(440,79,o),
(436,79,o),
(435,76,cs),
(424,51,o),
(401,31,qs),
(353,-10,o),
(287,-10,qs),
(204,-10,o),
(95,130,o),
(95,275,qs),
(95,421,o),
(204,560,o),
(287,560,qs),
(353,560,o),
(401,519,qs),
(424,499,o),
(435,474,qs)
);
},
{
closed = 1;
nodes = (
(230,512,o),
(145,405,o),
(145,275,qs),
(145,146,o),
(230,38,o),
(297,38,qs),
(350,38,o),
(440,141,o),
(440,195,qs),
(440,356,ls),
(440,419,o),
(349,512,o),
(297,512,qs)
);
}
);
width = 600;
}
);
unicode = 113;
},
{
glyphname = k;
layers = (
{
layerId = "3D30E2C5-0B1E-4C3D-8621-C00C1C908D18";
shapes = (
{
closed = 1;
nodes = (
(225,65,ls),
(225,15,o),
(200,-10,o),
(150,-10,cs),
(100,-10,o),
(75,15,o),
(75,65,cs),
(75,665,ls),
(75,715,o),
(100,740,o),
(150,740,cs),
(200,740,o),
(225,715,o),
(225,665,cs),
(225,408,ls),
(225,394,o),
(231,391,o),
(242,401,cs),
(373,527,ls),
(395,548,o),
(420,560,o),
(451,560,cs),
(494,560,o),
(540,506,o),
(495,459,cs),
(396,356,ls),
(384,344,o),
(383,330,o),
(392,316,cs),
(533,86,ls),
(563,37,o),
(523,-10,o),
(478,-10,cs),
(440,-10,o),
(409,1,o),
(390,33,cs),
(282,218,ls),
(274,232,o),
(265,233,o),
(252,222,cs),
(242,213,ls),
(229,202,o),
(225,187,o),
(225,170,cs)
);
}
);
width = 600;
},
{
layerId = "BD6112AA-D71A-4C36-8E9B-0F516311C436";
shapes = (
{
closed = 1;
nodes = (
(190,35,ls),
(190,5,o),
(175,-10,o),
(145,-10,cs),
(115,-10,o),
(100,5,o),
(100,35,cs),
(100,695,ls),
(100,725,o),
(115,740,o),
(145,740,cs),
(175,740,o),
(190,725,o),
(190,695,cs),
(190,332,ls),
(190,323,o),
(196,318,o),
(204,326,cs),
(415,539,ls),
(429,553,o),
(445,560,o),
(464,560,cs),
(500,560,o),
(516,524,o),
(491,497,cs),
(357,356,ls),
(347,346,o),
(346,336,o),
(353,324,cs),
(518,46,ls),
(536,16,o),
(515,-10,o),
(491,-10,cs),
(469,-10,o),
(446,-10,o),
(430,18,cs),
(287,261,ls),
(280,273,o),
(274,274,o),
(263,263,cs),
(204,202,ls),
(193,191,o),
(190,180,o),
(190,167,cs)
);
}
);
width = 600;
},
{
layerId = "6081C699-E88C-443F-8307-DAA77428180B";
shapes = (
{
closed = 1;
nodes = (
(170,15,ls),
(170,-2,o),
(162,-10,o),
(145,-10,cs),
(128,-10,o),
(120,-2,o),
(120,15,cs),
(120,715,ls),
(120,732,o),
(128,740,o),
(145,740,cs),
(162,740,o),
(170,732,o),
(170,715,cs),
(170,285,ls),
(170,279,o),
(175,276,o),
(180,281,cs),
(438,546,ls),
(447,555,o),
(457,560,o),
(470,560,cs),
(488,560,o),
(503,536,o),
(487,519,cs),
(330,355,ls),
(324,348,o),
(323,340,o),
(328,331,cs),
(510,23,ls),
(519,8,o),
(507,-10,o),
(491,-10,cs),
(478,-10,o),
(468,-4,o),
(462,7,cs),
(293,297,ls),
(288,306,o),
(282,306,o),
(275,299,cs),
(180,200,ls),
(173,193,o),
(170,184,o),
(170,174,cs)
);
}
);
width = 600;
}
);
unicode = 107;
},
{
glyphname = h;
layers = (
{
layerId = "3D30E2C5-0B1E-4C3D-8621-C00C1C908D18";
shapes = (
{
closed = 1;
nodes = (
(66,667,ls),
(66,716,o),
(90,740,o),
(139,740,c),
(188,740,o),
(211,717,o),
(211,668,cs),
(211,488,ls),
(211,480,o),
(218,480,o),
(221,486,cs),
(234,505,o),
(250,519,qs),
(294,557,o),
(359,560,qs),
(439,560,o),
(536,448,o),
(536,355,qs),
(536,65,ls),
(536,15,o),
(511,-10,o),
(461,-10,c),
(411,-10,o),
(386,15,o),
(386,65,cs),
(386,330,ls),
(386,373,o),
(351,420,o),
(311,420,qs),
(281,420,o),
(216,363,o),
(216,310,qs),
(216,65,ls),
(216,15,o),
(191,-10,o),
(141,-10,c),
(91,-10,o),
(66,15,o),
(66,65,cs)
);
}
);
width = 600;
},
{
layerId = "BD6112AA-D71A-4C36-8E9B-0F516311C436";
shapes = (
{
closed = 1;
nodes = (
(92,695,ls),
(92,725,o),
(107,740,o),
(137,740,cs),
(167,740,o),
(182,725,o),
(182,695,cs),
(182,482,ls),
(182,478,o),
(186,478,o),
(187,481,cs),
(199,509,o),
(221,525,qs),
(263,556,o),
(329,560,qs),
(412,560,o),
(510,458,o),
(510,370,qs),
(510,35,ls),
(510,5,o),
(495,-10,o),
(465,-10,cs),
(435,-10,o),
(420,5,o),
(420,35,cs),
(420,344,ls),
(420,407,o),
(357,474,o),
(303,474,qs),
(257,474,o),
(182,394,o),
(182,330,qs),
(182,35,ls),
(182,5,o),
(167,-10,o),
(137,-10,cs),
(107,-10,o),
(92,5,o),
(92,35,cs)
);
}
);
width = 600;
},
{
layerId = "6081C699-E88C-443F-8307-DAA77428180B";
shapes = (
{
closed = 1;
nodes = (
(110,715,ls),
(110,732,o),
(118,740,o),
(135,740,cs),
(152,740,o),
(160,732,o),
(160,715,cs),
(160,490,ls),
(160,484,o),
(164,484,o),
(167,489,cs),
(181,506,o),
(196,518,qs),
(243,556,o),
(313,560,qs),
(394,560,o),
(492,456,o),
(492,367,qs),
(492,15,ls),
(492,-2,o),
(484,-10,o),
(467,-10,cs),
(450,-10,o),
(442,-2,o),
(442,15,cs),
(442,355,ls),
(442,429,o),
(368,512,o),
(303,512,qs),
(247,512,o),
(160,418,o),
(160,345,qs),
(160,15,ls),
(160,-2,o),
(152,-10,o),
(135,-10,cs),
(118,-10,o),
(110,-2,o),
(110,15,cs)
);
}
);
width = 600;
}
);
unicode = 104;
},
{
glyphname = i;
layers = (
{
layerId = "3D30E2C5-0B1E-4C3D-8621-C00C1C908D18";
shapes = (
{
closed = 1;
nodes = (
(138,0,ls),
(93,0,o),
(70,23,o),
(70,68,cs),
(70,113,o),
(92,135,o),
(137,135,cs),
(222,135,ls),
(242,135,o),
(252,145,o),
(252,165,cs),
(252,339,ls),
(252,376,o),
(234,395,o),
(197,395,cs),
(155,395,ls),
(112,395,o),
(90,417,o),
(90,460,cs),
(90,507,o),
(113,530,o),
(160,530,cs),
(282,530,ls),
(362,530,o),
(402,490,o),
(402,410,cs),
(402,165,ls),
(402,145,o),
(412,135,o),
(432,135,cs),
(493,135,ls),
(538,135,o),
(560,113,o),
(560,68,cs),
(560,23,o),
(537,0,o),
(492,0,cs)
);
},
{
closed = 1;
nodes = (
(202,770,o),
(242,810,o),
(302,810,cs),
(362,810,o),
(402,770,o),
(402,710,cs),
(402,650,o),
(362,610,o),
(302,610,cs),
(242,610,o),
(202,650,o),
(202,710,cs)
);
}
);
width = 600;
},
{
layerId = "BD6112AA-D71A-4C36-8E9B-0F516311C436";
shapes = (
{
closed = 1;
nodes = (
(128,0,ls),
(101,0,o),
(85,18,o),
(85,45,cs),
(85,72,o),
(101,90,o),
(128,90,cs),
(260,90,ls),
(273,90,o),
(280,97,o),
(280,110,cs),
(280,400,ls),
(280,427,o),
(267,440,o),
(240,440,cs),
(149,440,ls),
(122,440,o),
(105,458,o),
(105,485,cs),
(105,512,o),
(122,530,o),
(149,530,cs),
(290,530,ls),
(344,530,o),
(370,504,o),
(370,450,cs),
(370,110,ls),
(370,97,o),
(377,90,o),
(390,90,cs),
(512,90,ls),
(539,90,o),
(555,72,o),
(555,45,cs),
(555,18,o),
(539,0,o),
(512,0,cs)
);
},
{
closed = 1;
nodes = (
(220,760,o),
(250,790,o),
(295,790,cs),
(340,790,o),
(370,760,o),
(370,715,cs),
(370,670,o),
(340,640,o),
(295,640,cs),
(250,640,o),
(220,670,o),
(220,715,cs)
);
}
);
width = 600;
},
{
layerId = "6081C699-E88C-443F-8307-DAA77428180B";
shapes = (
{
closed = 1;
nodes = (
(119,0,ls),
(104,0,o),
(95,10,o),
(95,25,cs),
(95,40,o),
(104,50,o),
(119,50,cs),
(281,50,ls),
(291,50,o),
(296,55,o),
(296,65,cs),
(296,450,ls),
(296,470,o),
(286,480,o),
(266,480,cs),
(145,480,ls),
(130,480,o),
(120,490,o),
(120,505,cs),
(120,520,o),
(130,530,o),
(145,530,cs),
(286,530,ls),
(326,530,o),
(346,510,o),
(346,470,cs),
(346,65,ls),
(346,55,o),
(351,50,o),
(361,50,cs),
(510,50,ls),
(525,50,o),
(535,40,o),
(535,25,cs),
(535,10,o),
(526,0,o),
(511,0,cs)
);
},
{
closed = 1;
nodes = (
(246,730,o),
(266,750,o),
(296,750,cs),
(326,750,o),
(346,730,o),
(346,700,cs),
(346,670,o),
(326,650,o),
(296,650,cs),
(266,650,o),
(246,670,o),
(246,700,cs)
);
}
);
width = 600;
}
);
unicode = 105;
},
{
glyphname = j;
layers = (
{
layerId = "3D30E2C5-0B1E-4C3D-8621-C00C1C908D18";
shapes = (
{
closed = 1;
nodes = (
(315,39,ls),
(315,-72,o),
(290,-110,o),
(234,-110,cs),
(161,-110,o),
(143,-36,o),
(95,-36,cs),
(55,-36,o),
(22,-78,o),
(22,-111,cs),
(22,-128,o),
(29,-150,o),
(42,-164,cs),
(118,-247,o),
(182,-253,o),
(234,-253,cs),
(409,-253,o),
(465,-145,o),
(465,63,cs),
(465,410,ls),
(465,490,o),
(425,530,o),
(345,530,cs),
(173,530,ls),
(126,530,o),
(103,507,o),
(103,460,cs),
(103,417,o),
(125,395,o),
(168,395,cs),
(260,395,ls),
(297,395,o),
(315,376,o),
(315,339,cs)
);
},
{
closed = 1;
nodes = (
(264,650,o),
(301,610,o),
(365,610,cs),
(425,610,o),
(465,650,o),
(465,710,cs),
(465,770,o),
(425,810,o),
(365,810,cs),
(301,810,o),
(265,768,o),
(265,710,cs)
);
}
);
width = 600;
},
{
layerId = "BD6112AA-D71A-4C36-8E9B-0F516311C436";
shapes = (
{
closed = 1;
nodes = (
(350,-31,ls),
(350,-97,o),
(296,-138,o),
(235,-138,cs),
(159,-138,o),
(128,-58,o),
(94,-58,cs),
(71,-58,o),
(50,-83,o),
(50,-103,cs),
(50,-113,o),
(53,-124,o),
(61,-132,cs),
(106,-183,o),
(162,-224,o),
(235,-224,cs),
(352,-224,o),
(440,-141,o),
(440,-17,cs),
(440,450,ls),
(440,504,o),
(414,530,o),
(360,530,cs),
(175,530,ls),
(148,530,o),
(130,510,o),
(130,485,cs),
(130,458,o),
(148,440,o),
(175,440,cs),
(310,440,ls),
(337,440,o),
(350,427,o),
(350,400,cs)
);
},
{
closed = 1;
nodes = (
(290,670,o),
(320,640,o),
(365,640,cs),
(410,640,o),
(440,670,o),
(440,715,cs),
(440,760,o),
(410,790,o),
(365,790,cs),
(321,790,o),
(291,759,o),
(290,715,cs)
);
}
);
width = 600;
},
{
layerId = "6081C699-E88C-443F-8307-DAA77428180B";
shapes = (
{
closed = 1;
nodes = (
(366,-56,ls),
(366,-112,o),
(306,-159,o),
(241,-159,cs),
(150,-159,o),
(112,-83,o),
(94,-83,cs),
(80,-83,o),
(69,-103,o),
(69,-113,cs),
(69,-120,o),
(70,-128,o),
(75,-133,cs),
(100,-159,o),
(151,-209,o),
(241,-209,cs),
(339,-209,o),
(416,-145,o),
(416,-52,cs),
(416,470,ls),
(416,510,o),
(396,530,o),
(356,530,cs),
(175,530,ls),
(160,530,o),
(150,520,o),
(150,505,cs),
(150,490,o),
(160,480,o),
(175,480,cs),
(336,480,ls),
(356,480,o),
(366,470,o),
(366,450,cs)
);
},
{
closed = 1;
nodes = (
(316,670,o),
(336,650,o),
(366,650,cs),
(396,650,o),
(416,670,o),
(416,700,cs),
(416,730,o),
(396,750,o),
(366,750,cs),
(337,750,o),
(316,729,o),
(316,700,cs)
);
}
);
width = 600;
}
);
unicode = 106;
},
{
glyphname = g;
layers = (
{
layerId = "3D30E2C5-0B1E-4C3D-8621-C00C1C908D18";
shapes = (
{
closed = 1;
nodes = (
(385,481,o),
(389,481,o),
(389,486,cs),
(389,488,ls),
(389,537,o),
(412,560,o),
(461,560,cs),
(510,560,o),
(534,536,o),
(534,487,cs),
(534,53,ls),
(534,-155,o),
(458,-263,o),
(283,-263,cs),
(231,-263,o),
(147,-257,o),
(71,-174,cs),
(58,-160,o),
(51,-138,o),
(51,-121,cs),
(51,-88,o),
(84,-46,o),
(124,-46,cs),
(172,-46,o),
(210,-120,o),
(283,-120,cs),
(338,-120,o),
(384,-92,o),
(384,13,cs),
(384,31,ls),
(384,40,o),
(375,41,o),
(369,36,cs),
(363,31,o),
(355,25,qs),
(312,-10,o),
(242,-10,qs),
(162,-10,o),
(40,121,o),
(40,275,qs),
(40,429,o),
(158,560,o),
(238,560,qs),
(304,560,o),
(355,516,q),
(368,504,o),
(382,485,qs)
);
},
{
closed = 1;
nodes = (
(245,410,o),
(190,358,o),
(190,275,qs),
(190,191,o),
(245,130,o),
(286,130,qs),
(329,130,o),
(384,189,o),
(384,235,qs),
(384,315,ls),
(384,351,o),
(329,410,o),
(286,410,qs)
);
}
);
width = 600;
},
{
layerId = "BD6112AA-D71A-4C36-8E9B-0F516311C436";
shapes = (
{
closed = 1;
nodes = (
(415,473,o),
(418,474,o),
(418,476,cs),
(418,515,ls),
(418,545,o),
(433,560,o),
(463,560,cs),
(493,560,o),
(508,545,o),
(508,515,cs),
(508,-17,ls),
(508,-141,o),
(406,-224,o),
(289,-224,cs),
(216,-224,o),
(146,-183,o),
(101,-132,cs),
(93,-124,o),
(90,-113,o),
(90,-103,cs),
(90,-83,o),
(111,-58,o),
(134,-58,cs),
(168,-58,o),
(213,-138,o),
(289,-138,cs),
(347,-138,o),
(418,-97,o),
(418,-31,cs),
(418,74,ls),
(418,77,o),
(415,77,o),
(414,74,cs),
(401,47,o),
(378,27,qs),
(335,-10,o),
(268,-10,qs),
(185,-10,o),
(77,125,o),
(77,275,qs),
(77,425,o),
(185,560,o),
(268,560,qs),
(333,560,o),
(378,523,qs),
(400,505,o),
(414,476,q)
);
},
{
closed = 1;
nodes = (
(241,477,o),
(167,392,o),
(167,275,qs),
(167,157,o),
(240,75,o),
(295,75,qs),
(334,75,o),
(418,169,o),
(418,235,qs),
(418,345,ls),
(418,387,o),
(340,477,o),
(288,477,qs)
);
}
);
width = 600;
},
{
layerId = "6081C699-E88C-443F-8307-DAA77428180B";
shapes = (
{
closed = 1;
nodes = (
(437,470,o),
(440,471,o),
(440,475,cs),
(440,535,ls),
(440,552,o),
(448,560,o),
(465,560,cs),
(482,560,o),
(490,552,o),
(490,535,cs),
(490,-52,ls),
(490,-153,o),
(393,-209,o),
(300,-209,cs),
(210,-209,o),
(143,-159,o),
(118,-133,cs),
(113,-128,o),
(112,-120,o),
(112,-113,cs),
(112,-103,o),
(123,-83,o),
(137,-83,cs),
(155,-83,o),
(209,-159,o),
(300,-159,cs),
(365,-159,o),
(440,-117,o),
(440,-56,cs),
(440,75,ls),
(440,79,o),
(436,79,o),
(435,76,cs),
(424,51,o),
(401,31,qs),
(353,-10,o),
(287,-10,qs),
(204,-10,o),
(95,130,o),
(95,275,qs),
(95,421,o),
(204,560,o),
(287,560,qs),
(353,560,o),
(401,519,qs),
(424,499,o),
(435,474,q)
);
},
{
closed = 1;
nodes = (
(230,512,o),
(145,405,o),
(145,275,qs),
(145,146,o),
(230,38,o),
(297,38,qs),
(350,38,o),
(440,141,o),
(440,195,qs),
(440,356,ls),
(440,419,o),
(349,512,o),
(297,512,qs)
);
}
);
width = 600;
}
);
unicode = 103;
},
{
glyphname = six;
layers = (
{
layerId = "3D30E2C5-0B1E-4C3D-8621-C00C1C908D18";
shapes = (
{
closed = 1;
nodes = (
(385,306,o),
(362,344,o),
(296,344,cs),
(230,344,o),
(195,306,o),
(195,244,cs),
(195,183,o),
(230,136,o),
(291,136,cs),
(356,136,o),
(385,189,o),
(385,250,cs)
);
},
{
closed = 1;
nodes = (
(469,730,o),
(490,711,o),
(490,668,cs),
(490,627,o),
(471,606,o),
(428,602,cs),
(331,592,o),
(256,558,o),
(217,492,cs),
(207,475,o),
(213,470,o),
(233,477,cs),
(255,484,o),
(280,487,o),
(306,487,cs),
(452,487,o),
(528,400,o),
(528,255,cs),
(528,115,o),
(458,-10,o),
(291,-10,cs),
(102,-10,o),
(45,111,o),
(45,324,cs),
(45,579,o),
(170,730,o),
(428,730,cs)
);
}
);
width = 572;
},
{
layerId = "BD6112AA-D71A-4C36-8E9B-0F516311C436";
shapes = (
{
closed = 1;
nodes = (
(420,320,o),
(386,375,o),
(292,375,cs),
(209,375,o),
(154,332,o),
(154,238,cs),
(154,144,o),
(207,80,o),
(290,80,cs),
(380,80,o),
(420,156,o),
(420,241,cs)
);
},
{
closed = 1;
nodes = (
(454,730,o),
(470,715,o),
(470,684,cs),
(470,654,o),
(455,639,o),
(424,636,cs),
(272,623,o),
(187,544,o),
(164,429,cs),
(161,413,o),
(165,411,o),
(178,422,cs),
(213,452,o),
(261,465,o),
(312,465,cs),
(441,465,o),
(510,383,o),
(510,245,cs),
(510,111,o),
(445,-10,o),
(290,-10,cs),
(113,-10,o),
(60,108,o),
(60,321,cs),
(60,551,o),
(155,730,o),
(424,730,cs)
);
}
);
width = 572;
},
{
layerId = "6081C699-E88C-443F-8307-DAA77428180B";
shapes = (
{
closed = 1;
nodes = (
(450,330,o),
(409,400,o),
(304,400,cs),
(211,400,o),
(135,346,o),
(135,225,cs),
(135,115,o),
(198,40,o),
(297,40,cs),
(403,40,o),
(450,129,o),
(450,232,cs)
);
},
{
closed = 1;
nodes = (
(442,730,o),
(450,722,o),
(450,705,cs),
(450,688,o),
(442,681,o),
(425,680,cs),
(253,671,o),
(152,561,o),
(131,375,cs),
(130,366,o),
(132,365,o),
(138,373,cs),
(187,439,o),
(261,450,o),
(314,450,cs),
(436,450,o),
(500,363,o),
(500,230,cs),
(500,101,o),
(440,-10,o),
(295,-10,cs),
(152,-10,o),
(79,68,o),
(79,320,cs),
(79,553,o),
(179,730,o),
(425,730,cs)
);
}
);
width = 572;
}
);
unicode = 54;
},
{
glyphname = nine;
layers = (
{
layerId = "3D30E2C5-0B1E-4C3D-8621-C00C1C908D18";
shapes = (
{
closed = 1;
nodes = (
(188,414,o),
(211,376,o),
(277,376,cs),
(343,376,o),
(378,414,o),
(378,476,cs),
(378,537,o),
(343,584,o),
(282,584,cs),
(217,584,o),
(188,531,o),
(188,470,cs)
);
},
{
closed = 1;
nodes = (
(104,-10,o),
(83,9,o),
(83,52,cs),
(83,93,o),
(102,114,o),
(145,118,cs),
(242,128,o),
(317,162,o),
(356,228,cs),
(366,245,o),
(360,250,o),
(340,243,cs),
(318,236,o),
(293,233,o),
(267,233,cs),
(121,233,o),
(45,320,o),
(45,465,cs),
(45,605,o),
(115,730,o),
(282,730,cs),
(471,730,o),
(528,609,o),
(528,396,cs),
(528,141,o),
(403,-10,o),
(145,-10,cs)
);
}
);
width = 572;
},
{
layerId = "BD6112AA-D71A-4C36-8E9B-0F516311C436";
shapes = (
{
closed = 1;
nodes = (
(150,400,o),
(184,345,o),
(278,345,cs),
(361,345,o),
(416,388,o),
(416,482,cs),
(416,576,o),
(363,640,o),
(280,640,cs),
(190,640,o),
(150,564,o),
(150,479,cs)
);
},
{
closed = 1;
nodes = (
(116,-10,o),
(100,5,o),
(100,36,cs),
(100,66,o),
(115,81,o),
(146,84,cs),
(298,97,o),
(383,176,o),
(406,291,cs),
(409,307,o),
(405,309,o),
(392,298,cs),
(357,268,o),
(309,255,o),
(258,255,cs),
(129,255,o),
(60,337,o),
(60,475,cs),
(60,609,o),
(125,730,o),
(280,730,cs),
(457,730,o),
(510,612,o),
(510,399,cs),
(510,169,o),
(415,-10,o),
(146,-10,cs)
);
}
);
width = 572;
},
{
layerId = "6081C699-E88C-443F-8307-DAA77428180B";
shapes = (
{
closed = 1;
nodes = (
(129,390,o),
(170,320,o),
(275,320,cs),
(368,320,o),
(444,374,o),
(444,495,cs),
(444,605,o),
(381,680,o),
(282,680,cs),
(176,680,o),
(129,591,o),
(129,488,cs)
);
},
{
closed = 1;
nodes = (
(137,-10,o),
(129,-2,o),
(129,15,cs),
(129,32,o),
(137,39,o),
(154,40,cs),
(326,49,o),
(427,159,o),
(448,345,cs),
(449,354,o),
(447,355,o),
(441,347,cs),
(392,281,o),
(318,270,o),
(265,270,cs),
(143,270,o),
(79,357,o),
(79,490,cs),
(79,619,o),
(139,730,o),
(284,730,cs),
(427,730,o),
(500,652,o),
(500,400,cs),
(500,167,o),
(400,-10,o),
(154,-10,cs)
);
}
);
width = 572;
}
);
unicode = 57;
},
{
glyphname = semicolon;
layers = (
{
layerId = "3D30E2C5-0B1E-4C3D-8621-C00C1C908D18";
shapes = (
{
closed = 1;
nodes = (
(151,-195,o),
(118,-175,o),
(118,-139,cs),
(118,-100,o),
(137,-84,o),
(171,-76,cs),
(185,-73,o),
(213,-69,o),
(237,-59,cs),
(272,-44,o),
(283,-25,o),
(283,-10,cs),
(283,40,o),
(211,44,o),
(211,110,cs),
(211,168,o),
(248,200,o),
(310,200,cs),
(390,200,o),
(419,114,o),
(419,36,cs),
(419,-91,o),
(325,-195,o),
(187,-195,cs)
);
},
{
closed = 1;
nodes = (
(253,349,o),
(199,403,o),
(199,450,qs),
(199,497,o),
(253,551,o),
(300,551,qs),
(347,551,o),
(401,497,o),
(401,450,qs),
(401,403,o),
(347,349,o),
(300,349,qs)
);
}
);
width = 600;
},
{
layerId = "BD6112AA-D71A-4C36-8E9B-0F516311C436";
shapes = (
{
closed = 1;
nodes = (
(159,-169,o),
(141,-157,o),
(141,-131,cs),
(141,-112,o),
(148,-102,o),
(158,-95,cs),
(182,-78,o),
(226,-86,o),
(255,-63,cs),
(269,-51,o),
(281,-29,o),
(281,-10,cs),
(281,42,o),
(228,51,o),
(228,110,cs),
(228,153,o),
(259,177,o),
(300,177,cs),
(373,177,o),
(391,109,o),
(391,40,cs),
(391,-70,o),
(293,-169,o),
(182,-169,cs)
);
},
{
closed = 1;
nodes = (
(262,371,o),
(218,411,o),
(218,450,qs),
(218,491,o),
(262,533,o),
(300,533,qs),
(338,533,o),
(382,490,o),
(382,450,qs),
(382,411,o),
(338,371,o),
(300,371,qs)
);
}
);
width = 600;
},
{
layerId = "6081C699-E88C-443F-8307-DAA77428180B";
shapes = (
{
closed = 1;
nodes = (
(183,-135,o),
(173,-130,o),
(173,-118,cs),
(173,-110,o),
(175,-103,o),
(184,-98,cs),
(194,-92,o),
(205,-93,o),
(220,-90,cs),
(272,-78,o),
(294,-52,o),
(294,-10,cs),
(294,45,o),
(252,22,o),
(252,83,cs),
(252,111,o),
(271,130,o),
(300,130,cs),
(345,130,o),
(361,97,o),
(361,35,cs),
(361,-70,o),
(275,-135,o),
(194,-135,cs)
);
},
{
closed = 1;
nodes = (
(273,390,o),
(242,422,o),
(242,450,qs),
(242,477,o),
(273,508,o),
(300,508,qs),
(327,508,o),
(358,477,o),
(358,450,qs),
(358,422,o),
(327,390,o),
(300,390,qs)
);
}
);
width = 600;
}
);
unicode = 59;
},
{
glyphname = braceright;
layers = (
{
layerId = "3D30E2C5-0B1E-4C3D-8621-C00C1C908D18";
shapes = (
{
closed = 1;
nodes = (
(436,289,ls),
(416,289,o),
(380,251,o),
(380,209,qs),
(380,74,ls),
(380,19,o),
(345,-64,o),
(259,-111,o),
(200,-111,qs),
(160,-111,ls),
(113,-111,o),
(90,-88,o),
(90,-41,cs),
(90,6,o),
(113,29,o),
(160,29,cs),
(170,29,ls),
(200,29,o),
(230,62,o),
(230,89,qs),
(230,239,ls),
(230,276,o),
(262,332,o),
(290,344,qs),
(298,348,o),
(306,351,qs),
(325,358,o),
(325,362,o),
(306,369,cs),
(298,372,o),
(290,376,qs),
(262,388,o),
(230,443,o),
(230,479,qs),
(230,630,ls),
(230,657,o),
(199,690,o),
(170,690,qs),
(160,690,ls),
(113,690,o),
(90,713,o),
(90,760,cs),
(90,807,o),
(113,830,o),
(160,830,cs),
(200,830,ls),
(259,830,o),
(344,785,o),
(380,704,o),
(380,650,qs),
(380,509,ls),
(380,468,o),
(416,429,o),
(436,429,qs),
(440,429,ls),
(487,429,o),
(510,406,o),
(510,359,cs),
(510,312,o),
(487,289,o),
(440,289,cs)
);
}
);
width = 600;
},
{
layerId = "BD6112AA-D71A-4C36-8E9B-0F516311C436";
shapes = (
{
closed = 1;
nodes = (
(445,320,ls),
(390,320,o),
(355,273,o),
(355,220,qs),
(355,56,ls),
(355,4,o),
(316,-71,o),
(239,-110,o),
(180,-110,qs),
(150,-110,ls),
(123,-110,o),
(110,-97,o),
(110,-70,cs),
(110,-43,o),
(123,-30,o),
(150,-30,cs),
(180,-30,ls),
(227,-30,o),
(265,13,o),
(265,56,qs),
(265,220,ls),
(265,263,o),
(295,328,o),
(309,341,qs),
(318,349,o),
(336,355,qs),
(352,360,o),
(351,363,o),
(336,369,cs),
(318,376,o),
(309,384,qs),
(295,395,o),
(265,457,o),
(265,500,qs),
(265,664,ls),
(265,707,o),
(227,750,o),
(180,750,qs),
(150,750,ls),
(123,750,o),
(110,763,o),
(110,790,cs),
(110,817,o),
(123,830,o),
(150,830,cs),
(180,830,ls),
(239,830,o),
(316,791,o),
(355,717,o),
(355,664,qs),
(355,500,ls),
(355,447,o),
(390,400,o),
(445,400,qs),
(450,400,ls),
(477,400,o),
(490,387,o),
(490,360,cs),
(490,333,o),
(477,320,o),
(450,320,cs)
);
}
);
width = 600;
},
{
layerId = "6081C699-E88C-443F-8307-DAA77428180B";
shapes = (
{
closed = 1;
nodes = (
(440,336,ls),
(395,336,o),
(345,290,o),
(345,237,qs),
(345,40,ls),
(345,-7,o),
(317,-74,o),
(243,-110,o),
(195,-110,qs),
(153,-110,ls),
(138,-110,o),
(130,-103,o),
(130,-88,cs),
(130,-73,o),
(138,-65,o),
(153,-65,cs),
(195,-65,ls),
(241,-65,o),
(295,-9,o),
(295,40,qs),
(295,237,ls),
(295,275,o),
(314,332,o),
(334,344,qs),
(343,349,o),
(351,353,qs),
(363,359,o),
(363,361,o),
(351,367,cs),
(343,371,o),
(334,376,qs),
(314,388,o),
(295,445,o),
(295,482,qs),
(295,680,ls),
(295,729,o),
(241,785,o),
(195,785,qs),
(153,785,ls),
(138,785,o),
(130,793,o),
(130,808,cs),
(130,823,o),
(138,830,o),
(153,830,cs),
(195,830,ls),
(243,830,o),
(317,794,o),
(345,727,o),
(345,680,qs),
(345,482,ls),
(345,427,o),
(398,382,o),
(440,382,qs),
(447,382,ls),
(462,382,o),
(470,374,o),
(470,359,cs),
(470,344,o),
(462,336,o),
(447,336,cs)
);
}
);
width = 600;
}
);
unicode = 125;
},
{
glyphname = greater;
layers = (
{
layerId = "3D30E2C5-0B1E-4C3D-8621-C00C1C908D18";
shapes = (
{
closed = 1;
nodes = (
(179,98,ls),
(109,65,o),
(75,87,o),
(75,164,cs),
(75,190,o),
(87,207,o),
(110,218,cs),
(303,309,ls),
(333,323,o),
(333,337,o),
(303,351,cs),
(109,441,ls),
(86,452,o),
(75,470,o),
(75,495,cs),
(75,571,o),
(109,593,o),
(178,561,cs),
(462,429,ls),
(505,409,o),
(525,377,o),
(525,330,cs),
(525,283,o),
(504,250,o),
(462,230,cs)
);
}
);
width = 600;
},
{
layerId = "BD6112AA-D71A-4C36-8E9B-0F516311C436";
shapes = (
{
closed = 1;
nodes = (
(159,102,ls),
(110,77,o),
(85,93,o),
(85,148,cs),
(85,166,o),
(94,179,o),
(110,187,cs),
(359,312,ls),
(383,324,o),
(383,336,o),
(359,348,cs),
(109,476,ls),
(93,484,o),
(85,497,o),
(85,515,cs),
(85,569,o),
(109,583,o),
(157,559,cs),
(470,402,ls),
(500,387,o),
(515,364,o),
(515,330,cs),
(515,296,o),
(500,273,o),
(470,258,cs)
);
}
);
width = 600;
},
{
layerId = "6081C699-E88C-443F-8307-DAA77428180B";
shapes = (
{
closed = 1;
nodes = (
(134,101,ls),
(108,87,o),
(95,94,o),
(95,124,cs),
(95,134,o),
(99,141,o),
(108,146,cs),
(422,316,ls),
(440,326,o),
(440,334,o),
(422,344,cs),
(108,514,ls),
(99,519,o),
(95,526,o),
(95,536,cs),
(95,566,o),
(108,573,o),
(134,559,cs),
(483,367,ls),
(498,359,o),
(505,347,o),
(505,330,cs),
(505,313,o),
(498,301,o),
(483,293,cs)
);
}
);
width = 600;
}
);
unicode = 62;
},
{
glyphname = numbersign;
layers = (
{
layerId = "3D30E2C5-0B1E-4C3D-8621-C00C1C908D18";
shapes = (
{
closed = 1;
nodes = (
(234,-10,o),
(255,11,o),
(255,55,cs),
(255,160,l),
(345,160,l),
(345,55,ls),
(345,11,o),
(366,-10,o),
(410,-10,cs),
(454,-10,o),
(475,11,o),
(475,55,cs),
(475,160,l),
(505,160,ls),
(555,160,o),
(580,185,o),
(580,235,cs),
(580,285,o),
(555,310,o),
(505,310,cs),
(475,310,l),
(475,430,l),
(505,430,ls),
(555,430,o),
(580,455,o),
(580,505,cs),
(580,555,o),
(555,580,o),
(505,580,cs),
(475,580,l),
(475,675,ls),
(475,719,o),
(454,740,o),
(410,740,cs),
(366,740,o),
(345,719,o),
(345,675,cs),
(345,580,l),
(255,580,l),
(255,675,ls),
(255,719,o),
(234,740,o),
(190,740,cs),
(146,740,o),
(125,719,o),
(125,675,cs),
(125,580,l),
(95,580,ls),
(45,580,o),
(20,555,o),
(20,505,cs),
(20,455,o),
(45,430,o),
(95,430,cs),
(125,430,l),
(125,310,l),
(95,310,ls),
(45,310,o),
(20,285,o),
(20,235,cs),
(20,185,o),
(45,160,o),
(95,160,cs),
(125,160,l),
(125,55,ls),
(125,11,o),
(146,-10,o),
(190,-10,cs)
);
},
{
closed = 1;
nodes = (
(255,310,l),
(255,430,l),
(345,430,l),
(345,310,l)
);
}
);
width = 600;
},
{
layerId = "BD6112AA-D71A-4C36-8E9B-0F516311C436";
shapes = (
{
closed = 1;
nodes = (
(220,-10,o),
(235,5,o),
(235,35,cs),
(235,190,l),
(365,190,l),
(365,35,ls),
(365,5,o),
(380,-10,o),
(410,-10,cs),
(440,-10,o),
(455,5,o),
(455,35,cs),
(455,190,l),
(535,190,ls),
(565,190,o),
(580,205,o),
(580,235,cs),
(580,265,o),
(565,280,o),
(535,280,cs),
(455,280,l),
(455,460,l),
(535,460,ls),
(565,460,o),
(580,475,o),
(580,505,cs),
(580,535,o),
(565,550,o),
(535,550,cs),
(455,550,l),
(455,695,ls),
(455,725,o),
(440,740,o),
(410,740,cs),
(380,740,o),
(365,725,o),
(365,695,cs),
(365,550,l),
(235,550,l),
(235,695,ls),
(235,725,o),
(220,740,o),
(190,740,cs),
(160,740,o),
(145,725,o),
(145,695,cs),
(145,550,l),
(65,550,ls),
(35,550,o),
(20,535,o),
(20,505,cs),
(20,475,o),
(35,460,o),
(65,460,cs),
(145,460,l),
(145,280,l),
(65,280,ls),
(35,280,o),
(20,265,o),
(20,235,cs),
(20,205,o),
(35,190,o),
(65,190,cs),
(145,190,l),
(145,35,ls),
(145,5,o),
(160,-10,o),
(190,-10,cs)
);
},
{
closed = 1;
nodes = (
(235,280,l),
(235,460,l),
(365,460,l),
(365,280,l)
);
}
);
width = 600;
},
{
layerId = "6081C699-E88C-443F-8307-DAA77428180B";
shapes = (
{
closed = 1;
nodes = (
(207,-10,o),
(215,-2,o),
(215,15,cs),
(215,210,l),
(385,210,l),
(385,15,ls),
(385,-2,o),
(393,-10,o),
(410,-10,cs),
(427,-10,o),
(435,-2,o),
(435,15,cs),
(435,210,l),
(555,210,ls),
(572,210,o),
(580,218,o),
(580,235,cs),
(580,252,o),
(572,260,o),
(555,260,cs),
(435,260,l),
(435,480,l),
(555,480,ls),
(572,480,o),
(580,488,o),
(580,505,cs),
(580,522,o),
(572,530,o),
(555,530,cs),
(435,530,l),
(435,715,ls),
(435,732,o),
(427,740,o),
(410,740,cs),
(393,740,o),
(385,732,o),
(385,715,cs),
(385,530,l),
(215,530,l),
(215,715,ls),
(215,732,o),
(207,740,o),
(190,740,cs),
(173,740,o),
(165,732,o),
(165,715,cs),
(165,530,l),
(45,530,ls),
(28,530,o),
(20,522,o),
(20,505,cs),
(20,488,o),
(28,480,o),
(45,480,cs),
(165,480,l),
(165,260,l),
(45,260,ls),
(28,260,o),
(20,252,o),
(20,235,cs),
(20,218,o),
(28,210,o),
(45,210,cs),
(165,210,l),
(165,15,ls),
(165,-2,o),
(173,-10,o),
(190,-10,cs)
);
},
{
closed = 1;
nodes = (
(215,260,l),
(215,480,l),
(385,480,l),
(385,260,l)
);
}
);
width = 600;
}
);
unicode = 35;
},
{
glyphname = at;
layers = (
{
layerId = "3D30E2C5-0B1E-4C3D-8621-C00C1C908D18";
shapes = (
{
closed = 1;
nodes = (
(454,174,o),
(450,220,o),
(450,250,cs),
(450,298,o),
(456,424,o),
(400,500,cs),
(362,551,o),
(304,560,o),
(232,560,cs),
(179,560,o),
(128,532,o),
(102,513,cs),
(86,502,o),
(67,498,o),
(52,502,cs),
(31,507,o),
(17,522,o),
(11,546,cs),
(3,581,o),
(9,611,o),
(23,626,cs),
(80,691,o),
(167,710,o),
(277,710,cs),
(379,710,o),
(475,658,o),
(524,576,cs),
(593,461,o),
(592,347,o),
(590,243,cs),
(589,214,o),
(578,174,o),
(520,174,cs)
);
},
{
closed = 1;
nodes = (
(431,-10,o),
(386,-8,o),
(361,-1,cs),
(311,12,o),
(285,43,o),
(272,82,cs),
(235,189,o),
(276,320,o),
(216,320,cs),
(179,320,o),
(160,260,o),
(160,199,cs),
(160,154,o),
(163,135,o),
(184,129,cs),
(197,125,o),
(206,120,o),
(212,112,cs),
(221,102,o),
(224,76,o),
(224,59,cs),
(224,6,o),
(194,-9,o),
(155,-9,cs),
(52,-9,o),
(20,77,o),
(20,168,cs),
(20,338,o),
(83,470,o),
(230,470,cs),
(387,470,o),
(368,298,o),
(377,183,cs),
(380,141,o),
(398,125,o),
(414,117,cs),
(434,107,o),
(467,112,o),
(488,99,cs),
(500,92,o),
(509,78,o),
(509,53,cs),
(509,14,o),
(495,-10,o),
(457,-10,cs)
);
}
);
width = 600;
},
{
layerId = "BD6112AA-D71A-4C36-8E9B-0F516311C436";
shapes = (
{
closed = 1;
nodes = (
(486,177,o),
(467,190,o),
(467,220,cs),
(467,318,o),
(464,420,o),
(417,502,cs),
(379,569,o),
(316,590,o),
(247,590,cs),
(184,590,o),
(138,552,o),
(113,528,cs),
(98,514,o),
(73,512,o),
(58,515,cs),
(48,517,o),
(32,527,o),
(29,545,cs),
(25,566,o),
(32,584,o),
(43,596,cs),
(102,661,o),
(177,680,o),
(267,680,cs),
(353,680,o),
(452,635,o),
(495,551,cs),
(556,432,o),
(559,377,o),
(557,223,cs),
(557,194,o),
(540,177,o),
(512,177,cs)
);
},
{
closed = 1;
nodes = (
(431,-10,o),
(403,-9,o),
(379,0,cs),
(332,17,o),
(315,43,o),
(302,82,cs),
(265,189,o),
(313,360,o),
(215,360,cs),
(159,360,o),
(130,295,o),
(130,209,cs),
(130,164,o),
(134,71,o),
(169,89,cs),
(183,96,o),
(201,95,o),
(213,85,cs),
(223,77,o),
(228,64,o),
(228,47,cs),
(228,24,o),
(223,12,o),
(191,-1,cs),
(116,-32,o),
(40,17,o),
(40,168,cs),
(40,363,o),
(99,450,o),
(221,450,cs),
(378,450,o),
(358,298,o),
(367,183,cs),
(370,141,o),
(387,92,o),
(401,82,cs),
(432,60,o),
(451,73,o),
(478,59,cs),
(490,53,o),
(499,42,o),
(499,23,cs),
(499,4,o),
(485,-10,o),
(457,-10,cs)
);
}
);
width = 600;
},
{
layerId = "6081C699-E88C-443F-8307-DAA77428180B";
shapes = (
{
closed = 1;
nodes = (
(499,193,o),
(490,205,o),
(490,220,cs),
(490,307,o),
(477,423,o),
(430,505,cs),
(391,573,o),
(336,610,o),
(254,610,cs),
(181,610,o),
(130,584,o),
(97,540,cs),
(89,529,o),
(83,524,o),
(73,522,cs),
(63,520,o),
(48,525,o),
(44,537,cs),
(40,549,o),
(42,561,o),
(53,576,cs),
(100,643,o),
(174,660,o),
(264,660,cs),
(353,660,o),
(436,612,o),
(476,528,cs),
(532,410,o),
(540,355,o),
(540,221,cs),
(540,207,o),
(533,193,o),
(515,193,cs)
);
},
{
closed = 1;
nodes = (
(411,-10,o),
(392,-10,o),
(369,3,cs),
(341,19,o),
(323,41,o),
(317,82,cs),
(301,194,o),
(311,370,o),
(221,370,cs),
(160,370,o),
(110,299,o),
(110,199,cs),
(110,78,o),
(125,31,o),
(163,39,cs),
(180,42,o),
(199,55,o),
(215,53,cs),
(229,51,o),
(231,38,o),
(231,31,cs),
(231,18,o),
(223,14,o),
(215,10,cs),
(94,-51,o),
(60,37,o),
(60,168,cs),
(60,340,o),
(116,420,o),
(221,420,cs),
(348,420,o),
(348,298,o),
(357,183,cs),
(360,141,o),
(358,84,o),
(381,59,cs),
(407,30,o),
(443,32,o),
(467,36,cs),
(481,38,o),
(490,29,o),
(490,10,cs),
(490,-10,o),
(445,-10,o),
(427,-10,cs)
);
}
);
width = 600;
}
);
unicode = 64;
},
{
glyphname = dollar;
layers = (
{
layerId = "3D30E2C5-0B1E-4C3D-8621-C00C1C908D18";
shapes = (
{
closed = 1;
nodes = (
(563,268,o),
(543,317,o),
(508,354,cs),
(476,388,o),
(417,419,o),
(365,435,cs),
(235,475,ls),
(203,485,o),
(175,511,o),
(175,540,cs),
(175,558,o),
(175,565,o),
(175,585,c),
(175,731,l),
(82,708,o),
(44,642,o),
(44,530,cs),
(44,485,o),
(57,448,o),
(78,418,cs),
(109,375,o),
(178,341,o),
(235,324,cs),
(365,285,ls),
(395,276,o),
(425,249,o),
(425,206,cs),
(425,175,o),
(425,153,o),
(425,140,c),
(425,0,l),
(517,25,o),
(563,93,o),
(563,206,cs)
);
},
{
closed = 1;
nodes = (
(365,220,l),
(235,258,l),
(235,-55,ls),
(235,-97,o),
(260,-120,o),
(300,-120,cs),
(340,-120,o),
(365,-97,o),
(365,-55,cs)
);
},
{
closed = 1;
nodes = (
(365,500,l),
(365,775,ls),
(365,817,o),
(340,840,o),
(300,840,cs),
(260,840,o),
(235,817,o),
(235,775,cs),
(235,540,l)
);
},
{
closed = 1;
nodes = (
(175,151,l),
(170,167,o),
(169,180,o),
(156,194,cs),
(147,204,o),
(135,210,o),
(115,210,cs),
(79,210,o),
(43,191,o),
(43,151,cs),
(43,81,o),
(107,24,o),
(175,0,c)
);
},
{
closed = 1;
nodes = (
(425,585,l),
(433,577,o),
(439,566,o),
(443,554,cs),
(447,542,o),
(456,531,o),
(479,531,cs),
(513,531,o),
(535,551,o),
(535,588,cs),
(535,655,o),
(499,704,o),
(425,726,c)
);
}
